<?xml version="1.0" encoding="UTF-8"?>
<!DOCTYPE svg PUBLIC "-//W3C//DTD SVG 1.1//EN" "http://www.w3.org/Graphics/SVG/1.1/DTD/svg11.dtd">
<!-- Creator: CorelDRAW X7 -->
<svg xmlns="http://www.w3.org/2000/svg" xml:space="preserve" width="941px" height="87px" version="1.1" shape-rendering="geometricPrecision" text-rendering="geometricPrecision" image-rendering="optimizeQuality" fill-rule="evenodd" clip-rule="evenodd"
viewBox="0 0 1014 94"
 xmlns:xlink="http://www.w3.org/1999/xlink">
 <g id="Слой_x0020_1">
  <metadata id="CorelCorpID_0Corel-Layer"/>
  <g>
   <path fill="none" fill-rule="nonzero" stroke="#FEFEFE" stroke-width="12.7242" stroke-linecap="round" stroke-linejoin="round" d="M40 51c6,0 9,3 9,8 0,4 -3,7 -9,7l-10 0 0 -15 10 0zm2 35c10,0 17,-2 23,-7 5,-5 8,-11 8,-19 0,-8 -2,-14 -8,-19 -6,-5 -13,-7 -23,-7l-12 0 0 -7 36 0 0 -19 -60 0 0 78 36 0zm63 -59l9 0c5,0 8,3 8,7 0,5 -3,7 -8,7l-9 0 0 -14zm-24 59l24 0 0 -27 12 0c9,0 16,-3 22,-7 5,-5 8,-11 8,-19 0,-7 -3,-13 -8,-18 -6,-5 -13,-7 -22,-7l-36 0 0 78zm88 2c4,0 8,-1 13,-3 5,-3 11,-8 15,-16l27 -61 -25 0 -12 30 -13 -30 -26 0 27 53c-2,4 -5,6 -10,6 -4,0 -8,-1 -11,-3l0 20c4,2 9,4 15,4zm85 -36l26 34 29 0 -33 -42 28 -36 -28 0 -22 29 0 -29 -24 0 0 78 24 0 0 -34zm98 -8l-38 0 0 21 38 0 0 -21zm24 -15l0 57 24 0 0 -57 23 0 0 -21 -69 0 0 21 22 0zm117 36l-38 0 0 -11 29 0 0 -19 -29 0 0 -6 37 0 0 -21 -61 0 0 78 62 0 0 -21zm31 -21l-30 42 28 0 15 -24 16 24 28 0 -30 -42 25 -36 -27 0 -12 19 -11 -19 -28 0 26 36zm131 44c8,0 15,-2 20,-5l0 -23c-5,4 -11,6 -19,6 -6,0 -11,-2 -15,-5 -4,-4 -7,-8 -7,-14 0,-5 2,-10 6,-14 4,-3 9,-5 15,-5 6,0 13,2 19,5l0 -23c-5,-2 -12,-4 -20,-4 -12,0 -23,4 -32,12 -8,7 -12,17 -12,29 0,12 4,22 13,29 8,8 19,12 32,12l0 0zm93 -23l-38 0 0 -11 29 0 0 -19 -29 0 0 -6 37 0 0 -21 -61 0 0 78 62 0 0 -21zm33 -38l8 0c5,0 9,3 9,7 0,5 -4,7 -9,7l-8 0 0 -14zm-24 59l24 0 0 -27 12 0c8,0 16,-3 21,-7 5,-5 8,-11 8,-19 0,-7 -3,-13 -8,-18 -5,-5 -13,-7 -21,-7l-36 0 0 78zm108 -59c4,0 6,2 6,5 0,3 -2,5 -6,5l-12 0 0 -10 12 0zm1 27c4,0 7,2 7,6 0,4 -3,7 -7,7l-13 0 0 -13 13 0zm5 32c8,0 15,-2 20,-6 6,-4 8,-10 8,-17 0,-5 -1,-10 -5,-14 -3,-3 -6,-6 -10,-6 3,-1 5,-3 7,-6 2,-2 3,-5 3,-9 0,-7 -3,-12 -7,-15 -5,-3 -11,-5 -18,-5l-40 0 0 78 42 0zm61 -78l-24 0 0 78 24 0 0 -78zm55 80c8,0 15,-2 20,-5l0 -23c-5,4 -11,6 -19,6 -6,0 -11,-2 -15,-5 -4,-4 -6,-8 -6,-14 0,-5 2,-10 5,-14 4,-3 9,-5 15,-5 7,0 13,2 19,5l0 -23c-5,-2 -12,-4 -19,-4 -13,0 -24,4 -32,12 -9,7 -13,17 -13,29 0,12 4,22 13,29 8,8 19,12 32,12l0 0z"/>
   <path id="1" fill="#2B2A29" fill-rule="nonzero" d="M40 51c6,0 9,3 9,8 0,4 -3,7 -9,7l-10 0 0 -15 10 0zm2 35c10,0 17,-2 23,-7 5,-5 8,-11 8,-19 0,-8 -2,-14 -8,-19 -6,-5 -13,-7 -23,-7l-12 0 0 -7 36 0 0 -19 -60 0 0 78 36 0zm63 -59l9 0c5,0 8,3 8,7 0,5 -3,7 -8,7l-9 0 0 -14zm-24 59l24 0 0 -27 12 0c9,0 16,-3 22,-7 5,-5 8,-11 8,-19 0,-7 -3,-13 -8,-18 -6,-5 -13,-7 -22,-7l-36 0 0 78zm88 2c4,0 8,-1 13,-3 5,-3 11,-8 15,-16l27 -61 -25 0 -12 30 -13 -30 -26 0 27 53c-2,4 -5,6 -10,6 -4,0 -8,-1 -11,-3l0 20c4,2 9,4 15,4zm85 -36l26 34 29 0 -33 -42 28 -36 -28 0 -22 29 0 -29 -24 0 0 78 24 0 0 -34zm98 -8l-38 0 0 21 38 0 0 -21zm24 -15l0 57 24 0 0 -57 23 0 0 -21 -69 0 0 21 22 0zm117 36l-38 0 0 -11 29 0 0 -19 -29 0 0 -6 37 0 0 -21 -61 0 0 78 62 0 0 -21zm31 -21l-30 42 28 0 15 -24 16 24 28 0 -30 -42 25 -36 -27 0 -12 19 -11 -19 -28 0 26 36zm131 44c8,0 15,-2 20,-5l0 -23c-5,4 -11,6 -19,6 -6,0 -11,-2 -15,-5 -4,-4 -7,-8 -7,-14 0,-5 2,-10 6,-14 4,-3 9,-5 15,-5 6,0 13,2 19,5l0 -23c-5,-2 -12,-4 -20,-4 -12,0 -23,4 -32,12 -8,7 -12,17 -12,29 0,12 4,22 13,29 8,8 19,12 32,12l0 0zm93 -23l-38 0 0 -11 29 0 0 -19 -29 0 0 -6 37 0 0 -21 -61 0 0 78 62 0 0 -21zm33 -38l8 0c5,0 9,3 9,7 0,5 -4,7 -9,7l-8 0 0 -14zm-24 59l24 0 0 -27 12 0c8,0 16,-3 21,-7 5,-5 8,-11 8,-19 0,-7 -3,-13 -8,-18 -5,-5 -13,-7 -21,-7l-36 0 0 78zm108 -59c4,0 6,2 6,5 0,3 -2,5 -6,5l-12 0 0 -10 12 0zm1 27c4,0 7,2 7,6 0,4 -3,7 -7,7l-13 0 0 -13 13 0zm5 32c8,0 15,-2 20,-6 6,-4 8,-10 8,-17 0,-5 -1,-10 -5,-14 -3,-3 -6,-6 -10,-6 3,-1 5,-3 7,-6 2,-2 3,-5 3,-9 0,-7 -3,-12 -7,-15 -5,-3 -11,-5 -18,-5l-40 0 0 78 42 0zm61 -78l-24 0 0 78 24 0 0 -78zm55 80c8,0 15,-2 20,-5l0 -23c-5,4 -11,6 -19,6 -6,0 -11,-2 -15,-5 -4,-4 -6,-8 -6,-14 0,-5 2,-10 5,-14 4,-3 9,-5 15,-5 7,0 13,2 19,5l0 -23c-5,-2 -12,-4 -19,-4 -13,0 -24,4 -32,12 -9,7 -13,17 -13,29 0,12 4,22 13,29 8,8 19,12 32,12l0 0z"/>
  </g>
 </g>
</svg>
