<?xml version="1.0" encoding="UTF-8"?>
<!DOCTYPE svg PUBLIC "-//W3C//DTD SVG 1.1//EN" "http://www.w3.org/Graphics/SVG/1.1/DTD/svg11.dtd">
<!-- Creator: CorelDRAW X7 -->
<svg xmlns="http://www.w3.org/2000/svg" xml:space="preserve" width="2932px" height="274px" version="1.1" shape-rendering="geometricPrecision" text-rendering="geometricPrecision" image-rendering="optimizeQuality" fill-rule="evenodd" clip-rule="evenodd"
viewBox="0 0 2929 274"
 xmlns:xlink="http://www.w3.org/1999/xlink">
 <g id="Слой_x0020_1">
  <metadata id="CorelCorpID_0Corel-Layer"/>
  <g id="_766308272">
   <path fill="none" stroke="#FEFEFE" stroke-width="36.7659" stroke-linecap="round" stroke-linejoin="round" d="M117 148c17,0 26,9 26,24 0,11 -9,20 -26,20l-29 0 0 -44 29 0zm5 102c29,0 50,-6 67,-21 14,-14 23,-31 23,-55 0,-23 -6,-40 -23,-54 -17,-15 -38,-21 -67,-21l-34 0 0 -20 104 0 0 -55 -174 0 0 226 104 0zm182 -171l26 0c15,0 24,9 24,20 0,15 -9,21 -24,21l-26 0 0 -41 0 0zm-69 171l69 0 0 -78 35 0c26,0 46,-9 64,-21 14,-14 23,-31 23,-55 0,-20 -9,-37 -23,-52 -18,-14 -38,-20 -64,-20l-104 0 0 226zm254 5c12,0 23,-3 38,-8 14,-9 32,-23 43,-47l78 -176 -72 0 -35 87 -37 -87 -75 0 78 153c-6,12 -15,18 -29,18 -12,0 -23,-3 -32,-9l0 58c12,6 26,11 43,11l0 0zm246 -104l75 99 84 0 -95 -122 80 -104 -80 0 -64 84 0 -84 -69 0 0 226 69 0 0 -99 0 0zm283 -23l-110 0 0 61 110 0 0 -61zm69 -43l0 165 70 0 0 -165 66 0 0 -61 -199 0 0 61 63 0zm339 104l-110 0 0 -32 84 0 0 -55 -84 0 0 -17 107 0 0 -61 -177 0 0 226 180 0 0 -61zm89 -61l-87 122 81 0 44 -70 46 70 81 0 -87 -122 72 -104 -78 0 -34 55 -32 -55 -81 0 75 104 0 0zm379 127c23,0 43,-5 57,-14l0 -67c-14,12 -31,18 -54,18 -18,0 -32,-6 -44,-15 -11,-11 -20,-23 -20,-40 0,-15 6,-29 17,-41 12,-8 26,-14 44,-14 17,0 37,6 55,14l0 -66c-15,-6 -35,-12 -58,-12 -35,0 -67,12 -93,35 -23,20 -34,49 -34,84 0,35 11,63 37,84 23,23 55,34 93,34l0 0 0 0zm268 -66l-109 0 0 -32 83 0 0 -55 -83 0 0 -17 106 0 0 -61 -176 0 0 226 179 0 0 -61zm96 -110l23 0c14,0 26,9 26,20 0,15 -12,21 -26,21l-23 0 0 -41 0 0zm-70 171l70 0 0 -78 34 0c23,0 47,-9 61,-21 15,-14 23,-31 23,-55 0,-20 -8,-37 -23,-52 -14,-14 -37,-20 -61,-20l-104 0 0 226zm312 -171c12,0 18,6 18,15 0,8 -6,14 -18,14l-34 0 0 -29 34 0zm3 78c12,0 21,6 21,17 0,12 -9,21 -21,21l-37 0 0 -38 37 0 0 0zm15 93c23,0 43,-6 58,-18 17,-11 23,-29 23,-49 0,-14 -3,-29 -15,-40 -8,-9 -17,-18 -29,-18 9,-3 15,-8 21,-17 5,-6 8,-14 8,-26 0,-20 -8,-35 -20,-43 -14,-9 -32,-15 -52,-15l-116 0 0 226 122 0zm176 -226l-69 0 0 226 69 0 0 -226zm159 231c23,0 43,-5 58,-14l0 -67c-15,12 -32,18 -55,18 -18,0 -32,-6 -44,-15 -11,-11 -17,-23 -17,-40 0,-15 6,-29 15,-41 11,-8 26,-14 43,-14 20,0 38,6 55,14l0 -66c-15,-6 -35,-12 -55,-12 -38,0 -69,12 -93,35 -26,20 -37,49 -37,84 0,35 11,63 37,84 24,23 55,34 93,34l0 0 0 0z"/>
   <path id="_1" fill="#2B2A29" fill-rule="nonzero" d="M117 148c17,0 26,9 26,24 0,11 -9,20 -26,20l-29 0 0 -44 29 0zm5 102c29,0 50,-6 67,-21 14,-14 23,-31 23,-55 0,-23 -6,-40 -23,-54 -17,-15 -38,-21 -67,-21l-34 0 0 -20 104 0 0 -55 -174 0 0 226 104 0zm182 -171l26 0c15,0 24,9 24,20 0,15 -9,21 -24,21l-26 0 0 -41 0 0zm-69 171l69 0 0 -78 35 0c26,0 46,-9 64,-21 14,-14 23,-31 23,-55 0,-20 -9,-37 -23,-52 -18,-14 -38,-20 -64,-20l-104 0 0 226zm254 5c12,0 23,-3 38,-8 14,-9 32,-23 43,-47l78 -176 -72 0 -35 87 -37 -87 -75 0 78 153c-6,12 -15,18 -29,18 -12,0 -23,-3 -32,-9l0 58c12,6 26,11 43,11l0 0zm246 -104l75 99 84 0 -95 -122 80 -104 -80 0 -64 84 0 -84 -69 0 0 226 69 0 0 -99 0 0zm283 -23l-110 0 0 61 110 0 0 -61zm69 -43l0 165 70 0 0 -165 66 0 0 -61 -199 0 0 61 63 0zm339 104l-110 0 0 -32 84 0 0 -55 -84 0 0 -17 107 0 0 -61 -177 0 0 226 180 0 0 -61zm89 -61l-87 122 81 0 44 -70 46 70 81 0 -87 -122 72 -104 -78 0 -34 55 -32 -55 -81 0 75 104 0 0zm379 127c23,0 43,-5 57,-14l0 -67c-14,12 -31,18 -54,18 -18,0 -32,-6 -44,-15 -11,-11 -20,-23 -20,-40 0,-15 6,-29 17,-41 12,-8 26,-14 44,-14 17,0 37,6 55,14l0 -66c-15,-6 -35,-12 -58,-12 -35,0 -67,12 -93,35 -23,20 -34,49 -34,84 0,35 11,63 37,84 23,23 55,34 93,34l0 0 0 0zm268 -66l-109 0 0 -32 83 0 0 -55 -83 0 0 -17 106 0 0 -61 -176 0 0 226 179 0 0 -61zm96 -110l23 0c14,0 26,9 26,20 0,15 -12,21 -26,21l-23 0 0 -41 0 0zm-70 171l70 0 0 -78 34 0c23,0 47,-9 61,-21 15,-14 23,-31 23,-55 0,-20 -8,-37 -23,-52 -14,-14 -37,-20 -61,-20l-104 0 0 226zm312 -171c12,0 18,6 18,15 0,8 -6,14 -18,14l-34 0 0 -29 34 0zm3 78c12,0 21,6 21,17 0,12 -9,21 -21,21l-37 0 0 -38 37 0 0 0zm15 93c23,0 43,-6 58,-18 17,-11 23,-29 23,-49 0,-14 -3,-29 -15,-40 -8,-9 -17,-18 -29,-18 9,-3 15,-8 21,-17 5,-6 8,-14 8,-26 0,-20 -8,-35 -20,-43 -14,-9 -32,-15 -52,-15l-116 0 0 226 122 0zm176 -226l-69 0 0 226 69 0 0 -226zm159 231c23,0 43,-5 58,-14l0 -67c-15,12 -32,18 -55,18 -18,0 -32,-6 -44,-15 -11,-11 -17,-23 -17,-40 0,-15 6,-29 15,-41 11,-8 26,-14 43,-14 20,0 38,6 55,14l0 -66c-15,-6 -35,-12 -55,-12 -38,0 -69,12 -93,35 -26,20 -37,49 -37,84 0,35 11,63 37,84 24,23 55,34 93,34l0 0 0 0z"/>
  </g>
 </g>
</svg>
