<?xml version="1.0" encoding="UTF-8"?>
<!DOCTYPE svg PUBLIC "-//W3C//DTD SVG 1.1//EN" "http://www.w3.org/Graphics/SVG/1.1/DTD/svg11.dtd">
<!-- Creator: CorelDRAW X7 -->
<svg xmlns="http://www.w3.org/2000/svg" xml:space="preserve" width="775.168mm" height="72.4339mm" version="1.1" style="shape-rendering:geometricPrecision; text-rendering:geometricPrecision; image-rendering:optimizeQuality; fill-rule:evenodd; clip-rule:evenodd"
viewBox="0 0 77517 7243"
 xmlns:xlink="http://www.w3.org/1999/xlink">
 <defs>
  <style type="text/css">
   <![CDATA[
    .str0 {stroke:#FEFEFE;stroke-width:972.761;stroke-linecap:round;stroke-linejoin:round}
    .fil0 {fill:#898989}
    .fil1 {fill:#898989;fill-rule:nonzero}
   ]]>
  </style>
 </defs>
 <g id="Слой_x0020_1">
  <metadata id="CorelCorpID_0Corel-Layer"/>
  <g id="_766308272">
   <path class="fil0 str0" d="M3106 3926c450,0 688,238 688,635 0,291 -238,529 -688,529l-768 0 0 -1164 768 0zm132 2699c767,0 1323,-159 1773,-556 370,-370 608,-820 608,-1455 0,-609 -158,-1058 -608,-1429 -450,-397 -1006,-555 -1773,-555l-900 0 0 -530 2752 0 0 -1455 -4604 0 0 5980 2752 0 0 0zm4815 -4525l688 0c397,0 635,238 635,530 0,396 -238,555 -635,555l-688 0 0 -1085 0 0 0 0zm-1825 4525l1825 0 0 -2064 927 0c687,0 1217,-238 1693,-556 370,-370 608,-820 608,-1455 0,-529 -238,-979 -608,-1376 -476,-370 -1006,-529 -1693,-529l-2752 0 0 5980 0 0zm6720 132c318,0 609,-79 1006,-212 370,-238 846,-608 1137,-1243l2064 -4657 -1905 0 -926 2302 -979 -2302 -1984 0 2064 4048c-159,318 -397,476 -768,476 -317,0 -608,-79 -846,-238l0 1535c317,159 687,291 1137,291l0 0 0 0zm6509 -2752l1984 2620 2223 0 -2514 -3228 2117 -2752 -2117 0 -1693 2223 0 -2223 -1826 0 0 5980 1826 0 0 -2620 0 0 0 0zm7488 -608l-2911 0 0 1614 2911 0 0 -1614zm1825 -1138l0 4366 1852 0 0 -4366 1747 0 0 -1614 -5266 0 0 1614 1667 0zm8970 2752l-2911 0 0 -847 2223 0 0 -1455 -2223 0 0 -450 2831 0 0 -1614 -4683 0 0 5980 4763 0 0 -1614 0 0zm2355 -1614l-2302 3228 2143 0 1164 -1852 1217 1852 2143 0 -2302 -3228 1905 -2752 -2063 0 -900 1455 -847 -1455 -2143 0 1985 2752 0 0zm10027 3360c609,0 1138,-132 1508,-370l0 -1773c-370,317 -820,476 -1428,476 -477,0 -847,-159 -1165,-397 -291,-291 -529,-608 -529,-1058 0,-397 159,-767 450,-1085 318,-212 688,-370 1164,-370 450,0 979,158 1455,370l0 -1746c-396,-159 -926,-318 -1534,-318 -926,0 -1773,318 -2461,926 -608,530 -899,1297 -899,2223 0,926 291,1667 979,2222 608,609 1455,900 2460,900l0 0 0 0 0 0zm7091 -1746l-2884 0 0 -847 2196 0 0 -1455 -2196 0 0 -450 2805 0 0 -1614 -4657 0 0 5980 4736 0 0 -1614 0 0zm2540 -2911l609 0c370,0 688,238 688,530 0,396 -318,555 -688,555l-609 0 0 -1085 0 0 0 0zm-1852 4525l1852 0 0 -2064 900 0c608,0 1243,-238 1614,-556 397,-370 608,-820 608,-1455 0,-529 -212,-979 -608,-1376 -371,-370 -979,-529 -1614,-529l-2752 0 0 5980 0 0zm8255 -4525c318,0 476,159 476,397 0,212 -158,371 -476,371l-900 0 0 -768 900 0 0 0zm79 2064c318,0 556,159 556,450 0,317 -238,556 -556,556l-979 0 0 -1006 979 0 0 0zm397 2461c609,0 1138,-159 1535,-477 450,-291 608,-767 608,-1296 0,-370 -79,-767 -396,-1058 -212,-238 -450,-477 -768,-477 238,-79 397,-211 556,-449 132,-159 212,-371 212,-688 0,-529 -212,-926 -530,-1138 -370,-238 -846,-397 -1375,-397l-3070 0 0 5980 3228 0 0 0zm4657 -5980l-1826 0 0 5980 1826 0 0 -5980zm4207 6112c608,0 1138,-132 1534,-370l0 -1773c-396,317 -846,476 -1455,476 -476,0 -846,-159 -1164,-397 -291,-291 -450,-608 -450,-1058 0,-397 159,-767 397,-1085 291,-212 688,-370 1138,-370 529,0 1005,158 1455,370l0 -1746c-397,-159 -926,-318 -1455,-318 -1006,0 -1826,318 -2461,926 -688,530 -979,1297 -979,2223 0,926 291,1667 979,2222 635,609 1455,900 2461,900l0 0 0 0 0 0z"/>
   <path id="_1" class="fil1" d="M3106 3926c450,0 688,238 688,635 0,291 -238,529 -688,529l-768 0 0 -1164 768 0zm132 2699c767,0 1323,-159 1773,-556 370,-370 608,-820 608,-1455 0,-609 -158,-1058 -608,-1429 -450,-397 -1006,-555 -1773,-555l-900 0 0 -530 2752 0 0 -1455 -4604 0 0 5980 2752 0 0 0zm4815 -4525l688 0c397,0 635,238 635,530 0,396 -238,555 -635,555l-688 0 0 -1085 0 0 0 0zm-1825 4525l1825 0 0 -2064 927 0c687,0 1217,-238 1693,-556 370,-370 608,-820 608,-1455 0,-529 -238,-979 -608,-1376 -476,-370 -1006,-529 -1693,-529l-2752 0 0 5980 0 0zm6720 132c318,0 609,-79 1006,-212 370,-238 846,-608 1137,-1243l2064 -4657 -1905 0 -926 2302 -979 -2302 -1984 0 2064 4048c-159,318 -397,476 -768,476 -317,0 -608,-79 -846,-238l0 1535c317,159 687,291 1137,291l0 0 0 0zm6509 -2752l1984 2620 2223 0 -2514 -3228 2117 -2752 -2117 0 -1693 2223 0 -2223 -1826 0 0 5980 1826 0 0 -2620 0 0 0 0zm7488 -608l-2911 0 0 1614 2911 0 0 -1614zm1825 -1138l0 4366 1852 0 0 -4366 1747 0 0 -1614 -5266 0 0 1614 1667 0zm8970 2752l-2911 0 0 -847 2223 0 0 -1455 -2223 0 0 -450 2831 0 0 -1614 -4683 0 0 5980 4763 0 0 -1614 0 0zm2355 -1614l-2302 3228 2143 0 1164 -1852 1217 1852 2143 0 -2302 -3228 1905 -2752 -2063 0 -900 1455 -847 -1455 -2143 0 1985 2752 0 0zm10027 3360c609,0 1138,-132 1508,-370l0 -1773c-370,317 -820,476 -1428,476 -477,0 -847,-159 -1165,-397 -291,-291 -529,-608 -529,-1058 0,-397 159,-767 450,-1085 318,-212 688,-370 1164,-370 450,0 979,158 1455,370l0 -1746c-396,-159 -926,-318 -1534,-318 -926,0 -1773,318 -2461,926 -608,530 -899,1297 -899,2223 0,926 291,1667 979,2222 608,609 1455,900 2460,900l0 0 0 0 0 0zm7091 -1746l-2884 0 0 -847 2196 0 0 -1455 -2196 0 0 -450 2805 0 0 -1614 -4657 0 0 5980 4736 0 0 -1614 0 0zm2540 -2911l609 0c370,0 688,238 688,530 0,396 -318,555 -688,555l-609 0 0 -1085 0 0 0 0zm-1852 4525l1852 0 0 -2064 900 0c608,0 1243,-238 1614,-556 397,-370 608,-820 608,-1455 0,-529 -212,-979 -608,-1376 -371,-370 -979,-529 -1614,-529l-2752 0 0 5980 0 0zm8255 -4525c318,0 476,159 476,397 0,212 -158,371 -476,371l-900 0 0 -768 900 0 0 0zm79 2064c318,0 556,159 556,450 0,317 -238,556 -556,556l-979 0 0 -1006 979 0 0 0zm397 2461c609,0 1138,-159 1535,-477 450,-291 608,-767 608,-1296 0,-370 -79,-767 -396,-1058 -212,-238 -450,-477 -768,-477 238,-79 397,-211 556,-449 132,-159 212,-371 212,-688 0,-529 -212,-926 -530,-1138 -370,-238 -846,-397 -1375,-397l-3070 0 0 5980 3228 0 0 0zm4657 -5980l-1826 0 0 5980 1826 0 0 -5980zm4207 6112c608,0 1138,-132 1534,-370l0 -1773c-396,317 -846,476 -1455,476 -476,0 -846,-159 -1164,-397 -291,-291 -450,-608 -450,-1058 0,-397 159,-767 397,-1085 291,-212 688,-370 1138,-370 529,0 1005,158 1455,370l0 -1746c-397,-159 -926,-318 -1455,-318 -1006,0 -1826,318 -2461,926 -688,530 -979,1297 -979,2223 0,926 291,1667 979,2222 635,609 1455,900 2461,900l0 0 0 0 0 0z"/>
  </g>
 </g>
</svg>
