<?xml version="1.0" encoding="UTF-8"?>
<!DOCTYPE svg PUBLIC "-//W3C//DTD SVG 1.1//EN" "http://www.w3.org/Graphics/SVG/1.1/DTD/svg11.dtd">
<!-- Creator: CorelDRAW X7 -->
<svg xmlns="http://www.w3.org/2000/svg" xml:space="preserve" width="174.932mm" height="60.1199mm" version="1.1" style="shape-rendering:geometricPrecision; text-rendering:geometricPrecision; image-rendering:optimizeQuality; fill-rule:evenodd; clip-rule:evenodd"
viewBox="0 0 16362 5623"
 xmlns:xlink="http://www.w3.org/1999/xlink">
 <defs>
  <style type="text/css">
   <![CDATA[
    .str0 {stroke:#1B4E9B;stroke-width:292.227;stroke-linecap:round;stroke-linejoin:round}
    .fil0 {fill:none}
    .fil1 {fill:#FEFEFE;fill-rule:nonzero}
   ]]>
  </style>
 </defs>
 <g id="Слой_x0020_1">
  <metadata id="CorelCorpID_0Corel-Layer"/>
  <path class="fil0 str0" d="M829 747l832 0 0 -462 -1386 0 0 1802 554 0 0 -1340 0 0zm1156 531c23,-138 92,-208 184,-208 93,0 162,93 162,208l-346 0 0 0zm231 832c254,0 439,-46 554,-139l0 -392c-115,69 -277,115 -416,115 -161,0 -300,-69 -346,-162l831 0 0 -115c0,-231 -69,-393 -184,-508 -116,-116 -278,-185 -462,-185 -208,0 -370,69 -509,185 -138,138 -208,300 -208,508 0,208 93,393 231,508 139,116 324,185 509,185zm1340 -855c46,-46 115,-92 208,-92 138,0 208,115 208,254 0,138 -70,254 -208,254 -93,0 -162,-46 -208,-116l0 -300zm23 670c69,116 185,185 346,185 162,0 324,-69 416,-208 116,-116 162,-277 162,-485 0,-208 -46,-370 -162,-508 -92,-116 -254,-185 -416,-185 -161,0 -277,69 -346,185l0 -162 -555 0 0 1848 555 0 0 -670 0 0zm2680 -277l-185 0 0 -901 -555 0 0 901 -300 0 0 -901 -531 0 0 1340 1039 0 0 277 532 0 0 -716 0 0zm901 46c-23,46 -70,69 -139,69 -69,0 -138,-46 -138,-115 0,-93 69,-139 161,-139 46,0 93,23 116,46l0 139zm600 -23c-46,0 -69,0 -69,-46l0 -370c0,-162 -69,-277 -185,-393 -115,-92 -277,-138 -485,-138 -185,0 -369,23 -508,92l0 393c115,-46 254,-93 393,-93 161,0 254,70 254,208 -93,-46 -185,-69 -301,-69 -115,0 -254,23 -346,92 -116,70 -162,185 -162,324 0,115 46,231 139,323 69,70 185,116 346,116 162,0 324,-69 393,-185 46,116 185,185 347,185 115,0 184,-23 254,-69l0 -393c-23,23 -46,23 -70,23zm809 -924l-531 0 0 1340 531 0 0 -1340zm-554 -93c138,0 254,-115 254,-254 0,-138 -116,-254 -254,-254 -70,0 -139,23 -185,69 -46,47 -70,116 -70,185 0,139 116,254 255,254zm346 -254c0,139 116,254 254,254 139,0 254,-115 254,-254 0,-69 -23,-138 -92,-185 -46,-46 -92,-69 -162,-69 -138,0 -254,116 -254,254zm994 1132l184 0c70,0 116,23 116,93 0,69 -46,115 -116,115l-184 0 0 -208zm138 -462c70,0 116,46 116,116 0,46 -46,92 -116,92l-138 0 0 -208 138 0zm439 301c93,-24 185,-139 185,-278 0,-184 -162,-346 -439,-346l-832 0 0 1340 832 0c347,0 531,-162 531,-393 0,-162 -138,-277 -277,-323l0 0zm1109 739c139,0 277,-23 416,-93l0 -438c-92,46 -208,69 -300,69 -185,0 -324,-69 -324,-231 0,-162 139,-231 301,-231 92,0 208,23 300,46l0 -439c-116,-46 -231,-69 -393,-69 -231,0 -462,92 -624,300 -69,116 -115,231 -115,393 0,138 46,277 115,393 70,92 162,184 278,231 115,46 231,69 346,69l0 0zm1155 -670l116 0c92,0 162,46 162,139 0,69 -70,115 -162,115l-116 0 0 -254zm0 -693l-508 0 0 1340 739 0c185,0 324,-70 416,-162 93,-92 139,-208 139,-346 0,-139 -46,-255 -162,-347 -92,-92 -254,-139 -416,-139l-208 0 0 -346 0 0zm1502 785l393 555 647 0 -555 -740 485 -600 -623 0 -347 462 0 -462 -531 0 0 1340 531 0 0 -555 0 0zm1848 162c-23,46 -69,69 -138,69 -93,0 -162,-46 -162,-115 0,-93 69,-139 162,-139 69,0 92,23 138,46l0 139zm601 -23c-46,0 -69,0 -69,-46l0 -370c0,-162 -70,-277 -185,-393 -139,-92 -300,-138 -485,-138 -208,0 -370,23 -509,92l0 393c116,-46 232,-93 370,-93 185,0 277,70 277,208 -92,-46 -184,-69 -300,-69 -139,0 -254,23 -370,92 -92,70 -138,185 -138,324 0,115 46,231 115,323 93,70 208,116 347,116 185,0 323,-69 393,-185 46,116 184,185 346,185 116,0 208,-23 277,-69l0 -393c-23,23 -46,23 -69,23z"/>
  <path id="_1" class="fil1" d="M829 747l832 0 0 -462 -1386 0 0 1802 554 0 0 -1340 0 0zm1156 531c23,-138 92,-208 184,-208 93,0 162,93 162,208l-346 0 0 0zm231 832c254,0 439,-46 554,-139l0 -392c-115,69 -277,115 -416,115 -161,0 -300,-69 -346,-162l831 0 0 -115c0,-231 -69,-393 -184,-508 -116,-116 -278,-185 -462,-185 -208,0 -370,69 -509,185 -138,138 -208,300 -208,508 0,208 93,393 231,508 139,116 324,185 509,185zm1340 -855c46,-46 115,-92 208,-92 138,0 208,115 208,254 0,138 -70,254 -208,254 -93,0 -162,-46 -208,-116l0 -300zm23 670c69,116 185,185 346,185 162,0 324,-69 416,-208 116,-116 162,-277 162,-485 0,-208 -46,-370 -162,-508 -92,-116 -254,-185 -416,-185 -161,0 -277,69 -346,185l0 -162 -555 0 0 1848 555 0 0 -670 0 0zm2680 -277l-185 0 0 -901 -555 0 0 901 -300 0 0 -901 -531 0 0 1340 1039 0 0 277 532 0 0 -716 0 0zm901 46c-23,46 -70,69 -139,69 -69,0 -138,-46 -138,-115 0,-93 69,-139 161,-139 46,0 93,23 116,46l0 139zm600 -23c-46,0 -69,0 -69,-46l0 -370c0,-162 -69,-277 -185,-393 -115,-92 -277,-138 -485,-138 -185,0 -369,23 -508,92l0 393c115,-46 254,-93 393,-93 161,0 254,70 254,208 -93,-46 -185,-69 -301,-69 -115,0 -254,23 -346,92 -116,70 -162,185 -162,324 0,115 46,231 139,323 69,70 185,116 346,116 162,0 324,-69 393,-185 46,116 185,185 347,185 115,0 184,-23 254,-69l0 -393c-23,23 -46,23 -70,23zm809 -924l-531 0 0 1340 531 0 0 -1340zm-554 -93c138,0 254,-115 254,-254 0,-138 -116,-254 -254,-254 -70,0 -139,23 -185,69 -46,47 -70,116 -70,185 0,139 116,254 255,254zm346 -254c0,139 116,254 254,254 139,0 254,-115 254,-254 0,-69 -23,-138 -92,-185 -46,-46 -92,-69 -162,-69 -138,0 -254,116 -254,254zm994 1132l184 0c70,0 116,23 116,93 0,69 -46,115 -116,115l-184 0 0 -208zm138 -462c70,0 116,46 116,116 0,46 -46,92 -116,92l-138 0 0 -208 138 0zm439 301c93,-24 185,-139 185,-278 0,-184 -162,-346 -439,-346l-832 0 0 1340 832 0c347,0 531,-162 531,-393 0,-162 -138,-277 -277,-323l0 0zm1109 739c139,0 277,-23 416,-93l0 -438c-92,46 -208,69 -300,69 -185,0 -324,-69 -324,-231 0,-162 139,-231 301,-231 92,0 208,23 300,46l0 -439c-116,-46 -231,-69 -393,-69 -231,0 -462,92 -624,300 -69,116 -115,231 -115,393 0,138 46,277 115,393 70,92 162,184 278,231 115,46 231,69 346,69l0 0zm1155 -670l116 0c92,0 162,46 162,139 0,69 -70,115 -162,115l-116 0 0 -254zm0 -693l-508 0 0 1340 739 0c185,0 324,-70 416,-162 93,-92 139,-208 139,-346 0,-139 -46,-255 -162,-347 -92,-92 -254,-139 -416,-139l-208 0 0 -346 0 0zm1502 785l393 555 647 0 -555 -740 485 -600 -623 0 -347 462 0 -462 -531 0 0 1340 531 0 0 -555 0 0zm1848 162c-23,46 -69,69 -138,69 -93,0 -162,-46 -162,-115 0,-93 69,-139 162,-139 69,0 92,23 138,46l0 139zm601 -23c-46,0 -69,0 -69,-46l0 -370c0,-162 -70,-277 -185,-393 -139,-92 -300,-138 -485,-138 -208,0 -370,23 -509,92l0 393c116,-46 232,-93 370,-93 185,0 277,70 277,208 -92,-46 -184,-69 -300,-69 -139,0 -254,23 -370,92 -92,70 -138,185 -138,324 0,115 46,231 115,323 93,70 208,116 347,116 185,0 323,-69 393,-185 46,116 184,185 346,185 116,0 208,-23 277,-69l0 -393c-23,23 -46,23 -69,23z"/>
  <path class="fil0 str0" d="M885 4576c-161,0 -231,-115 -231,-323 70,-70 139,-93 231,-93 116,0 208,70 208,185 0,139 -92,231 -208,231zm139 -808c-139,0 -323,46 -416,138 23,-92 69,-138 162,-208 46,-23 139,-46 208,-69 69,0 185,-23 231,-23 69,-23 185,-23 231,-23l0 -462c-231,23 -393,69 -485,92 -301,69 -509,162 -624,324 -116,138 -185,346 -185,600 0,254 69,462 185,624 115,162 300,231 554,231 208,0 370,-69 509,-185 138,-138 208,-300 208,-485 0,-370 -231,-554 -578,-554zm1271 369c46,-46 115,-92 208,-92 138,0 231,115 231,254 0,139 -93,254 -231,254 -93,0 -162,-46 -208,-115l0 -301zm23 670c69,116 185,185 346,185 185,0 324,-69 416,-208 116,-115 185,-277 185,-485 0,-208 -69,-370 -185,-508 -92,-116 -231,-185 -416,-185 -161,0 -277,69 -346,185l0 -162 -555 0 0 1848 555 0 0 -670 0 0zm1363 670c277,0 462,-115 578,-392l554 -1456 -554 0 -208 762 -231 -762 -578 0 554 1294c-46,69 -92,115 -207,115 -93,0 -162,-23 -231,-69l0 462c92,23 184,46 323,46zm1802 -1062l370 554 670 0 -555 -739 462 -601 -600 0 -347 462 0 -462 -531 0 0 1340 531 0 0 -554 0 0zm1409 -832c185,0 301,-139 301,-324 0,-69 -23,-138 -70,-208 -69,-46 -138,-92 -231,-92 -69,0 -138,46 -208,92 -69,70 -92,139 -92,208 0,93 23,162 92,231 70,47 139,93 208,93zm278 46l-532 0 0 1340 532 0 0 -1340zm785 786l185 0c69,0 115,23 115,92 0,69 -46,115 -115,115l-185 0 0 -207zm139 -463c69,0 115,47 115,116 0,46 -46,92 -115,92l-139 0 0 -208 139 0zm439 301c92,-23 185,-139 185,-277 0,-185 -162,-347 -439,-347l-832 0 0 1340 832 0c323,0 531,-162 531,-393 0,-161 -139,-277 -277,-323l0 0zm993 162l370 554 670 0 -555 -739 462 -601 -600 0 -347 462 0 -462 -554 0 0 1340 554 0 0 -554 0 0zm1848 161c-23,46 -92,70 -161,70 -70,0 -139,-47 -139,-116 0,-92 69,-139 162,-139 46,0 92,24 138,47l0 138zm578 -23c-46,0 -69,0 -69,-46l0 -370c0,-161 -46,-277 -185,-392 -116,-93 -277,-139 -485,-139 -185,0 -347,23 -485,92l0 393c92,-46 231,-92 369,-92 185,0 254,69 254,208 -69,-47 -161,-70 -277,-70 -139,0 -254,23 -370,93 -92,69 -138,185 -138,323 0,116 23,231 115,324 93,69 208,115 347,115 185,0 323,-69 393,-185 46,116 184,185 346,185 116,0 208,-23 254,-69l0 -393c-23,23 -46,23 -69,23z"/>
  <path id="_1_0" class="fil1" d="M885 4576c-161,0 -231,-115 -231,-323 70,-70 139,-93 231,-93 116,0 208,70 208,185 0,139 -92,231 -208,231zm139 -808c-139,0 -323,46 -416,138 23,-92 69,-138 162,-208 46,-23 139,-46 208,-69 69,0 185,-23 231,-23 69,-23 185,-23 231,-23l0 -462c-231,23 -393,69 -485,92 -301,69 -509,162 -624,324 -116,138 -185,346 -185,600 0,254 69,462 185,624 115,162 300,231 554,231 208,0 370,-69 509,-185 138,-138 208,-300 208,-485 0,-370 -231,-554 -578,-554zm1271 369c46,-46 115,-92 208,-92 138,0 231,115 231,254 0,139 -93,254 -231,254 -93,0 -162,-46 -208,-115l0 -301zm23 670c69,116 185,185 346,185 185,0 324,-69 416,-208 116,-115 185,-277 185,-485 0,-208 -69,-370 -185,-508 -92,-116 -231,-185 -416,-185 -161,0 -277,69 -346,185l0 -162 -555 0 0 1848 555 0 0 -670 0 0zm1363 670c277,0 462,-115 578,-392l554 -1456 -554 0 -208 762 -231 -762 -578 0 554 1294c-46,69 -92,115 -207,115 -93,0 -162,-23 -231,-69l0 462c92,23 184,46 323,46zm1802 -1062l370 554 670 0 -555 -739 462 -601 -600 0 -347 462 0 -462 -531 0 0 1340 531 0 0 -554 0 0zm1409 -832c185,0 301,-139 301,-324 0,-69 -23,-138 -70,-208 -69,-46 -138,-92 -231,-92 -69,0 -138,46 -208,92 -69,70 -92,139 -92,208 0,93 23,162 92,231 70,47 139,93 208,93zm278 46l-532 0 0 1340 532 0 0 -1340zm785 786l185 0c69,0 115,23 115,92 0,69 -46,115 -115,115l-185 0 0 -207zm139 -463c69,0 115,47 115,116 0,46 -46,92 -115,92l-139 0 0 -208 139 0zm439 301c92,-23 185,-139 185,-277 0,-185 -162,-347 -439,-347l-832 0 0 1340 832 0c323,0 531,-162 531,-393 0,-161 -139,-277 -277,-323l0 0zm993 162l370 554 670 0 -555 -739 462 -601 -600 0 -347 462 0 -462 -554 0 0 1340 554 0 0 -554 0 0zm1848 161c-23,46 -92,70 -161,70 -70,0 -139,-47 -139,-116 0,-92 69,-139 162,-139 46,0 92,24 138,47l0 138zm578 -23c-46,0 -69,0 -69,-46l0 -370c0,-161 -46,-277 -185,-392 -116,-93 -277,-139 -485,-139 -185,0 -347,23 -485,92l0 393c92,-46 231,-92 369,-92 185,0 254,69 254,208 -69,-47 -161,-70 -277,-70 -139,0 -254,23 -370,93 -92,69 -138,185 -138,323 0,116 23,231 115,324 93,69 208,115 347,115 185,0 323,-69 393,-185 46,116 184,185 346,185 116,0 208,-23 254,-69l0 -393c-23,23 -46,23 -69,23z"/>
 </g>
</svg>
