<?xml version="1.0" encoding="UTF-8"?>
<!DOCTYPE svg PUBLIC "-//W3C//DTD SVG 1.1//EN" "http://www.w3.org/Graphics/SVG/1.1/DTD/svg11.dtd">
<!-- Creator: CorelDRAW X7 -->
<svg xmlns="http://www.w3.org/2000/svg" xml:space="preserve" width="210mm" height="297mm" version="1.1" style="shape-rendering:geometricPrecision; text-rendering:geometricPrecision; image-rendering:optimizeQuality; fill-rule:evenodd; clip-rule:evenodd"
viewBox="0 0 21000 29700"
 xmlns:xlink="http://www.w3.org/1999/xlink">
 <defs>
  <style type="text/css">
   <![CDATA[
    .str1 {stroke:#FEFEFE;stroke-width:23.81}
    .str0 {stroke:#FEFEFE;stroke-width:976.28;stroke-linecap:round;stroke-linejoin:round}
    .fil0 {fill:#5B5B5B}
    .fil1 {fill:#5B5B5B;fill-rule:nonzero}
   ]]>
  </style>
 </defs>
 <g id="Слой_x0020_1">
  <metadata id="CorelCorpID_0Corel-Layer"/>
  <path class="fil0 str0" d="M-14053 7944l2778 0 0 -1534 -4630 0 0 6032 1852 0 0 -4498 0 0zm3863 1773c79,-450 291,-688 608,-688 318,0 529,318 529,688l-1137 0 0 0 0 0zm767 2778c847,0 1455,-132 1852,-450l0 -1322c-397,238 -926,396 -1402,396 -530,0 -1006,-238 -1138,-555l2752 0 0 -371c0,-767 -212,-1323 -609,-1693 -370,-397 -926,-635 -1534,-635 -688,0 -1244,238 -1694,635 -476,450 -714,1005 -714,1693 0,688 317,1323 794,1694 449,397 1058,608 1693,608l0 0 0 0zm4471 -2857c159,-133 397,-291 688,-291 476,0 715,370 715,846 0,450 -239,847 -715,847 -291,0 -529,-159 -688,-397l0 -1005 0 0zm80 2249c238,397 608,608 1164,608 529,0 1085,-211 1376,-688 397,-370 555,-926 555,-1614 0,-688 -158,-1243 -555,-1693 -291,-397 -847,-635 -1376,-635 -556,0 -926,238 -1164,635l0 -556 -1852 0 0 6192 1852 0 0 -2249 0 0 0 0zm8943 -926l-609 0 0 -3017 -1852 0 0 3017 -1005 0 0 -3017 -1773 0 0 4498 3466 0 0 926 1773 0 0 -2407 0 0zm3016 158c-80,159 -238,239 -450,239 -238,0 -476,-159 -476,-397 0,-318 238,-450 529,-450 159,0 318,53 397,132l0 476 0 0zm2011 -79c-159,0 -238,0 -238,-159l0 -1243c0,-529 -239,-900 -609,-1297 -397,-317 -926,-476 -1614,-476 -635,0 -1243,79 -1720,318l0 1322c397,-158 847,-317 1323,-317 529,0 847,238 847,688 -318,-159 -609,-238 -1006,-238 -370,0 -846,79 -1164,317 -370,238 -529,609 -529,1085 0,397 159,767 450,1085 238,238 635,370 1164,370 556,0 1085,-211 1323,-608 159,397 609,608 1164,608 371,0 609,-53 847,-211l0 -1323c-80,79 -159,79 -238,79zm2698 -3096l-1772 0 0 4498 1772 0 0 -4498zm-1852 -291c450,0 847,-397 847,-846 0,-477 -397,-873 -847,-873 -238,0 -476,79 -608,238 -159,158 -238,397 -238,635 0,449 370,846 846,846zm1165 -846c0,449 370,846 846,846 450,0 847,-397 847,-846 0,-238 -79,-477 -318,-635 -158,-159 -291,-238 -529,-238 -476,0 -846,396 -846,873zm3307 3757l608 0c239,0 397,79 397,317 0,238 -158,397 -397,397l-608 0 0 -714zm476 -1535c238,0 371,159 371,397 0,159 -133,291 -371,291l-476 0 0 -688 476 0zm1455 1006c318,-80 609,-450 609,-926 0,-609 -529,-1165 -1455,-1165l-2779 0 0 4498 2779 0c1164,0 1772,-555 1772,-1323 0,-555 -449,-926 -926,-1084l0 0 0 0zm3704 2460c477,0 927,-53 1403,-291l0 -1481c-318,158 -715,238 -1006,238 -635,0 -1084,-238 -1084,-768 0,-555 449,-767 1005,-767 291,0 688,79 1005,159l0 -1482c-396,-159 -767,-238 -1323,-238 -767,0 -1534,318 -2090,1005 -211,397 -370,768 -370,1323 0,450 159,926 370,1323 238,291 556,609 926,768 397,158 794,211 1164,211l0 0 0 0 0 0zm3863 -2222l397 0c291,0 529,158 529,450 0,238 -238,396 -529,396l-397 0 0 -846zm0 -2329l-1693 0 0 4498 2461 0c608,0 1084,-238 1402,-555 291,-318 450,-688 450,-1165 0,-449 -159,-846 -529,-1137 -318,-318 -847,-476 -1403,-476l-688 0 0 -1165 0 0 0 0 0 0zm5027 2620l1297 1878 2170 0 -1853 -2487 1614 -2011 -2090 0 -1138 1561 0 -1561 -1772 0 0 4498 1772 0 0 -1878 0 0 0 0zm6165 555c-79,159 -238,239 -450,239 -317,0 -555,-159 -555,-397 0,-318 238,-450 555,-450 212,0 292,53 450,132l0 476zm2011 -79c-159,0 -238,0 -238,-159l0 -1243c0,-529 -238,-900 -609,-1297 -476,-317 -1005,-476 -1614,-476 -714,0 -1243,79 -1719,318l0 1322c397,-158 793,-317 1243,-317 609,0 926,238 926,688 -317,-159 -608,-238 -1005,-238 -450,0 -847,79 -1244,317 -291,238 -450,609 -450,1085 0,397 159,767 371,1085 317,238 714,370 1164,370 635,0 1085,-211 1323,-608 159,397 609,608 1164,608 371,0 688,-53 926,-211l0 -1323c-79,79 -159,79 -238,79l0 0z"/>
  <path id="_1" class="fil1 str1" d="M-14053 7944l2778 0 0 -1534 -4630 0 0 6032 1852 0 0 -4498 0 0zm3863 1773c79,-450 291,-688 608,-688 318,0 529,318 529,688l-1137 0 0 0 0 0zm767 2778c847,0 1455,-132 1852,-450l0 -1322c-397,238 -926,396 -1402,396 -530,0 -1006,-238 -1138,-555l2752 0 0 -371c0,-767 -212,-1323 -609,-1693 -370,-397 -926,-635 -1534,-635 -688,0 -1244,238 -1694,635 -476,450 -714,1005 -714,1693 0,688 317,1323 794,1694 449,397 1058,608 1693,608l0 0 0 0zm4471 -2857c159,-133 397,-291 688,-291 476,0 715,370 715,846 0,450 -239,847 -715,847 -291,0 -529,-159 -688,-397l0 -1005 0 0zm80 2249c238,397 608,608 1164,608 529,0 1085,-211 1376,-688 397,-370 555,-926 555,-1614 0,-688 -158,-1243 -555,-1693 -291,-397 -847,-635 -1376,-635 -556,0 -926,238 -1164,635l0 -556 -1852 0 0 6192 1852 0 0 -2249 0 0 0 0zm8943 -926l-609 0 0 -3017 -1852 0 0 3017 -1005 0 0 -3017 -1773 0 0 4498 3466 0 0 926 1773 0 0 -2407 0 0zm3016 158c-80,159 -238,239 -450,239 -238,0 -476,-159 -476,-397 0,-318 238,-450 529,-450 159,0 318,53 397,132l0 476 0 0zm2011 -79c-159,0 -238,0 -238,-159l0 -1243c0,-529 -239,-900 -609,-1297 -397,-317 -926,-476 -1614,-476 -635,0 -1243,79 -1720,318l0 1322c397,-158 847,-317 1323,-317 529,0 847,238 847,688 -318,-159 -609,-238 -1006,-238 -370,0 -846,79 -1164,317 -370,238 -529,609 -529,1085 0,397 159,767 450,1085 238,238 635,370 1164,370 556,0 1085,-211 1323,-608 159,397 609,608 1164,608 371,0 609,-53 847,-211l0 -1323c-80,79 -159,79 -238,79zm2698 -3096l-1772 0 0 4498 1772 0 0 -4498zm-1852 -291c450,0 847,-397 847,-846 0,-477 -397,-873 -847,-873 -238,0 -476,79 -608,238 -159,158 -238,397 -238,635 0,449 370,846 846,846zm1165 -846c0,449 370,846 846,846 450,0 847,-397 847,-846 0,-238 -79,-477 -318,-635 -158,-159 -291,-238 -529,-238 -476,0 -846,396 -846,873zm3307 3757l608 0c239,0 397,79 397,317 0,238 -158,397 -397,397l-608 0 0 -714zm476 -1535c238,0 371,159 371,397 0,159 -133,291 -371,291l-476 0 0 -688 476 0zm1455 1006c318,-80 609,-450 609,-926 0,-609 -529,-1165 -1455,-1165l-2779 0 0 4498 2779 0c1164,0 1772,-555 1772,-1323 0,-555 -449,-926 -926,-1084l0 0 0 0zm3704 2460c477,0 927,-53 1403,-291l0 -1481c-318,158 -715,238 -1006,238 -635,0 -1084,-238 -1084,-768 0,-555 449,-767 1005,-767 291,0 688,79 1005,159l0 -1482c-396,-159 -767,-238 -1323,-238 -767,0 -1534,318 -2090,1005 -211,397 -370,768 -370,1323 0,450 159,926 370,1323 238,291 556,609 926,768 397,158 794,211 1164,211l0 0 0 0 0 0zm3863 -2222l397 0c291,0 529,158 529,450 0,238 -238,396 -529,396l-397 0 0 -846zm0 -2329l-1693 0 0 4498 2461 0c608,0 1084,-238 1402,-555 291,-318 450,-688 450,-1165 0,-449 -159,-846 -529,-1137 -318,-318 -847,-476 -1403,-476l-688 0 0 -1165 0 0 0 0 0 0zm5027 2620l1297 1878 2170 0 -1853 -2487 1614 -2011 -2090 0 -1138 1561 0 -1561 -1772 0 0 4498 1772 0 0 -1878 0 0 0 0zm6165 555c-79,159 -238,239 -450,239 -317,0 -555,-159 -555,-397 0,-318 238,-450 555,-450 212,0 292,53 450,132l0 476zm2011 -79c-159,0 -238,0 -238,-159l0 -1243c0,-529 -238,-900 -609,-1297 -476,-317 -1005,-476 -1614,-476 -714,0 -1243,79 -1719,318l0 1322c397,-158 793,-317 1243,-317 609,0 926,238 926,688 -317,-159 -608,-238 -1005,-238 -450,0 -847,79 -1244,317 -291,238 -450,609 -450,1085 0,397 159,767 371,1085 317,238 714,370 1164,370 635,0 1085,-211 1323,-608 159,397 609,608 1164,608 371,0 688,-53 926,-211l0 -1323c-79,79 -159,79 -238,79l0 0z"/>
  <path class="fil1 str0" d="M-13868 20750c-556,0 -767,-397 -767,-1085 211,-238 449,-317 767,-317 370,0 688,238 688,635 0,450 -318,767 -688,767l0 0zm450 -2699c-450,0 -1059,159 -1376,450 79,-291 212,-450 529,-688 159,-79 476,-158 714,-238 212,0 609,-79 768,-79 211,-80 608,-80 767,-80l0 -1534c-767,79 -1323,238 -1614,317 -1005,212 -1720,530 -2090,1085 -397,450 -635,1138 -635,1985 0,846 238,1561 635,2090 370,555 1005,767 1852,767 688,0 1217,-212 1693,-609 450,-449 688,-1005 688,-1613 0,-1244 -767,-1853 -1931,-1853l0 0 0 0zm4259 1218c159,-133 371,-291 688,-291 450,0 768,370 768,846 0,450 -318,847 -768,847 -317,0 -529,-159 -688,-397l0 -1005 0 0zm80 2249c211,396 608,608 1138,608 635,0 1084,-212 1402,-688 397,-370 608,-926 608,-1614 0,-688 -211,-1243 -608,-1693 -318,-397 -767,-635 -1402,-635 -530,0 -927,238 -1138,635l0 -556 -1852 0 0 6191 1852 0 0 -2249 0 0 0 1zm4551 2248c926,0 1534,-396 1931,-1322l1852 -4869 -1852 0 -688 2540 -794 -2540 -1931 0 1852 4339c-132,212 -291,371 -688,371 -317,0 -529,-80 -767,-238l0 1561c317,79 608,158 1085,158l0 0 0 0zm6006 -3571l1243 1852 2249 0 -1852 -2461 1535 -2011 -2011 0 -1164 1561 0 -1561 -1773 0 0 4472 1773 0 0 -1852 0 0zm4709 -2779c635,0 1006,-449 1006,-1058 0,-238 -80,-476 -238,-714 -212,-159 -450,-291 -768,-291 -211,0 -449,132 -688,291 -238,238 -317,476 -317,714 0,291 79,529 317,767 239,159 477,291 688,291l0 0zm926 159l-1772 0 0 4472 1772 0 0 -4472zm2620 2620l635 0c238,0 370,79 370,317 0,238 -132,397 -370,397l-635 0 0 -714zm476 -1535c238,0 397,159 397,397 0,132 -159,291 -397,291l-476 0 0 -688 476 0zm1455 1005c318,-79 635,-476 635,-926 0,-608 -555,-1164 -1481,-1164l-2779 0 0 4472 2779 0c1084,0 1772,-529 1772,-1297 0,-555 -450,-926 -926,-1085l0 0 0 0zm3334 530l1243 1852 2223 0 -1852 -2461 1534 -2011 -1984 0 -1164 1561 0 -1561 -1852 0 0 4472 1852 0 0 -1852 0 0 0 0zm6165 555c-80,159 -291,238 -529,238 -239,0 -477,-158 -477,-397 0,-317 238,-476 556,-476 159,0 291,80 450,159l0 476zm1931 -79c-159,0 -238,0 -238,-159l0 -1243c0,-530 -132,-926 -608,-1297 -397,-317 -927,-476 -1614,-476 -635,0 -1165,79 -1614,317l0 1323c291,-158 767,-317 1217,-317 635,0 846,238 846,688 -211,-159 -529,-238 -926,-238 -449,0 -846,79 -1217,317 -317,238 -476,609 -476,1085 0,397 79,767 397,1085 291,238 688,370 1138,370 635,0 1084,-212 1322,-608 159,396 609,608 1165,608 370,0 688,-79 846,-212l0 -1323c-79,80 -158,80 -238,80l0 0z"/>
  <path id="_1_0" class="fil1 str1" d="M-13868 20750c-556,0 -767,-397 -767,-1085 211,-238 449,-317 767,-317 370,0 688,238 688,635 0,450 -318,767 -688,767l0 0zm450 -2699c-450,0 -1059,159 -1376,450 79,-291 212,-450 529,-688 159,-79 476,-158 714,-238 212,0 609,-79 768,-79 211,-80 608,-80 767,-80l0 -1534c-767,79 -1323,238 -1614,317 -1005,212 -1720,530 -2090,1085 -397,450 -635,1138 -635,1985 0,846 238,1561 635,2090 370,555 1005,767 1852,767 688,0 1217,-212 1693,-609 450,-449 688,-1005 688,-1613 0,-1244 -767,-1853 -1931,-1853l0 0 0 0zm4259 1218c159,-133 371,-291 688,-291 450,0 768,370 768,846 0,450 -318,847 -768,847 -317,0 -529,-159 -688,-397l0 -1005 0 0zm80 2249c211,396 608,608 1138,608 635,0 1084,-212 1402,-688 397,-370 608,-926 608,-1614 0,-688 -211,-1243 -608,-1693 -318,-397 -767,-635 -1402,-635 -530,0 -927,238 -1138,635l0 -556 -1852 0 0 6191 1852 0 0 -2249 0 0 0 1zm4551 2248c926,0 1534,-396 1931,-1322l1852 -4869 -1852 0 -688 2540 -794 -2540 -1931 0 1852 4339c-132,212 -291,371 -688,371 -317,0 -529,-80 -767,-238l0 1561c317,79 608,158 1085,158l0 0 0 0zm6006 -3571l1243 1852 2249 0 -1852 -2461 1535 -2011 -2011 0 -1164 1561 0 -1561 -1773 0 0 4472 1773 0 0 -1852 0 0zm4709 -2779c635,0 1006,-449 1006,-1058 0,-238 -80,-476 -238,-714 -212,-159 -450,-291 -768,-291 -211,0 -449,132 -688,291 -238,238 -317,476 -317,714 0,291 79,529 317,767 239,159 477,291 688,291l0 0zm926 159l-1772 0 0 4472 1772 0 0 -4472zm2620 2620l635 0c238,0 370,79 370,317 0,238 -132,397 -370,397l-635 0 0 -714zm476 -1535c238,0 397,159 397,397 0,132 -159,291 -397,291l-476 0 0 -688 476 0zm1455 1005c318,-79 635,-476 635,-926 0,-608 -555,-1164 -1481,-1164l-2779 0 0 4472 2779 0c1084,0 1772,-529 1772,-1297 0,-555 -450,-926 -926,-1085l0 0 0 0zm3334 530l1243 1852 2223 0 -1852 -2461 1534 -2011 -1984 0 -1164 1561 0 -1561 -1852 0 0 4472 1852 0 0 -1852 0 0 0 0zm6165 555c-80,159 -291,238 -529,238 -239,0 -477,-158 -477,-397 0,-317 238,-476 556,-476 159,0 291,80 450,159l0 476zm1931 -79c-159,0 -238,0 -238,-159l0 -1243c0,-530 -132,-926 -608,-1297 -397,-317 -927,-476 -1614,-476 -635,0 -1165,79 -1614,317l0 1323c291,-158 767,-317 1217,-317 635,0 846,238 846,688 -211,-159 -529,-238 -926,-238 -449,0 -846,79 -1217,317 -317,238 -476,609 -476,1085 0,397 79,767 397,1085 291,238 688,370 1138,370 635,0 1084,-212 1322,-608 159,396 609,608 1165,608 370,0 688,-79 846,-212l0 -1323c-79,80 -158,80 -238,80l0 0z"/>
 </g>
</svg>
