<?xml version="1.0" encoding="UTF-8"?>
<!DOCTYPE svg PUBLIC "-//W3C//DTD SVG 1.1//EN" "http://www.w3.org/Graphics/SVG/1.1/DTD/svg11.dtd">
<!-- Creator: CorelDRAW X7 -->
<svg xmlns="http://www.w3.org/2000/svg" xml:space="preserve" width="2066px" height="710px" version="1.1" shape-rendering="geometricPrecision" text-rendering="geometricPrecision" image-rendering="optimizeQuality" fill-rule="evenodd" clip-rule="evenodd"
viewBox="0 0 2066 710"
 xmlns:xlink="http://www.w3.org/1999/xlink">
 <g id="Слой_x0020_1">
  <metadata id="CorelCorpID_0Corel-Layer"/>
  <path fill="#2B2A29" stroke="#FEFEFE" stroke-width="36.8984" stroke-linecap="round" stroke-linejoin="round" d="M105 94l105 0 0 -58 -175 0 0 228 70 0 0 -170 0 0zm146 67c3,-17 11,-26 23,-26 12,0 20,12 20,26l-43 0 0 0zm29 105c32,0 55,-5 70,-17l0 -50c-15,9 -35,15 -53,15 -20,0 -38,-9 -43,-21l104 0 0 -14c0,-29 -8,-50 -23,-64 -14,-15 -35,-24 -58,-24 -26,0 -47,9 -64,24 -18,17 -27,38 -27,64 0,26 12,50 30,64 17,15 40,23 64,23zm169 -108c6,-5 15,-11 26,-11 18,0 27,14 27,32 0,17 -9,32 -27,32 -11,0 -20,-6 -26,-15l0 -38zm3 85c9,15 23,23 44,23 20,0 41,-8 52,-26 15,-14 21,-35 21,-61 0,-26 -6,-47 -21,-64 -11,-15 -32,-24 -52,-24 -21,0 -35,9 -44,24l0 -21 -70 0 0 234 70 0 0 -85 0 0zm338 -35l-23 0 0 -114 -70 0 0 114 -38 0 0 -114 -67 0 0 170 131 0 0 35 67 0 0 -91 0 0zm114 6c-3,6 -9,9 -17,9 -9,0 -18,-6 -18,-15 0,-12 9,-17 20,-17 6,0 12,2 15,5l0 18zm76 -3c-6,0 -9,0 -9,-6l0 -47c0,-20 -9,-34 -23,-49 -15,-12 -35,-18 -61,-18 -24,0 -47,3 -65,12l0 50c15,-6 32,-12 50,-12 20,0 32,9 32,26 -12,-6 -23,-9 -38,-9 -14,0 -32,3 -44,12 -14,9 -20,23 -20,41 0,15 6,29 17,41 9,9 24,14 44,14 21,0 41,-8 50,-23 6,15 23,23 44,23 14,0 23,-2 32,-8l0 -50c-3,3 -6,3 -9,3zm102 -117l-67 0 0 170 67 0 0 -170zm-70 -11c17,0 32,-15 32,-32 0,-18 -15,-33 -32,-33 -9,0 -18,3 -23,9 -6,6 -9,15 -9,24 0,17 14,32 32,32zm44 -32c0,17 14,32 32,32 17,0 32,-15 32,-32 0,-9 -3,-18 -12,-24 -6,-6 -11,-9 -20,-9 -18,0 -32,15 -32,33zm125 142l23 0c9,0 15,3 15,12 0,9 -6,15 -15,15l-23 0 0 -27zm18 -58c9,0 14,6 14,15 0,6 -5,11 -14,11l-18 0 0 -26 18 0zm55 38c12,-3 23,-17 23,-35 0,-23 -20,-44 -55,-44l-105 0 0 170 105 0c44,0 67,-21 67,-50 0,-21 -17,-35 -35,-41l0 0zm140 93c18,0 35,-2 53,-11l0 -56c-12,6 -27,9 -38,9 -24,0 -41,-9 -41,-29 0,-21 17,-29 38,-29 11,0 26,3 38,6l0 -56c-15,-6 -29,-9 -50,-9 -29,0 -58,12 -79,38 -8,15 -14,29 -14,50 0,17 6,35 14,50 9,11 21,23 35,29 15,6 30,8 44,8l0 0zm146 -84l15 0c11,0 20,6 20,17 0,9 -9,15 -20,15l-15 0 0 -32zm0 -88l-64 0 0 170 93 0c23,0 41,-9 53,-21 11,-12 17,-26 17,-44 0,-17 -6,-32 -20,-43 -12,-12 -32,-18 -53,-18l-26 0 0 -44 0 0zm190 99l49 71 82 0 -70 -94 61 -76 -79 0 -43 59 0 -59 -67 0 0 170 67 0 0 -71 0 0zm233 21c-3,6 -9,9 -17,9 -12,0 -21,-6 -21,-15 0,-12 9,-17 21,-17 8,0 11,2 17,5l0 18zm76 -3c-6,0 -9,0 -9,-6l0 -47c0,-20 -9,-34 -23,-49 -18,-12 -38,-18 -61,-18 -27,0 -47,3 -65,12l0 50c15,-6 30,-12 47,-12 23,0 35,9 35,26 -12,-6 -23,-9 -38,-9 -17,0 -32,3 -47,12 -11,9 -17,23 -17,41 0,15 6,29 14,41 12,9 27,14 44,14 24,0 41,-8 50,-23 6,15 23,23 44,23 14,0 26,-2 35,-8l0 -50c-3,3 -6,3 -9,3z"/>
  <path id="_1" fill="#2B2A29" fill-rule="nonzero" stroke="#FEFEFE" stroke-width="0.899932" d="M105 94l105 0 0 -58 -175 0 0 228 70 0 0 -170 0 0zm146 67c3,-17 11,-26 23,-26 12,0 20,12 20,26l-43 0 0 0zm29 105c32,0 55,-5 70,-17l0 -50c-15,9 -35,15 -53,15 -20,0 -38,-9 -43,-21l104 0 0 -14c0,-29 -8,-50 -23,-64 -14,-15 -35,-24 -58,-24 -26,0 -47,9 -64,24 -18,17 -27,38 -27,64 0,26 12,50 30,64 17,15 40,23 64,23zm169 -108c6,-5 15,-11 26,-11 18,0 27,14 27,32 0,17 -9,32 -27,32 -11,0 -20,-6 -26,-15l0 -38zm3 85c9,15 23,23 44,23 20,0 41,-8 52,-26 15,-14 21,-35 21,-61 0,-26 -6,-47 -21,-64 -11,-15 -32,-24 -52,-24 -21,0 -35,9 -44,24l0 -21 -70 0 0 234 70 0 0 -85 0 0zm338 -35l-23 0 0 -114 -70 0 0 114 -38 0 0 -114 -67 0 0 170 131 0 0 35 67 0 0 -91 0 0zm114 6c-3,6 -9,9 -17,9 -9,0 -18,-6 -18,-15 0,-12 9,-17 20,-17 6,0 12,2 15,5l0 18zm76 -3c-6,0 -9,0 -9,-6l0 -47c0,-20 -9,-34 -23,-49 -15,-12 -35,-18 -61,-18 -24,0 -47,3 -65,12l0 50c15,-6 32,-12 50,-12 20,0 32,9 32,26 -12,-6 -23,-9 -38,-9 -14,0 -32,3 -44,12 -14,9 -20,23 -20,41 0,15 6,29 17,41 9,9 24,14 44,14 21,0 41,-8 50,-23 6,15 23,23 44,23 14,0 23,-2 32,-8l0 -50c-3,3 -6,3 -9,3zm102 -117l-67 0 0 170 67 0 0 -170zm-70 -11c17,0 32,-15 32,-32 0,-18 -15,-33 -32,-33 -9,0 -18,3 -23,9 -6,6 -9,15 -9,24 0,17 14,32 32,32zm44 -32c0,17 14,32 32,32 17,0 32,-15 32,-32 0,-9 -3,-18 -12,-24 -6,-6 -11,-9 -20,-9 -18,0 -32,15 -32,33zm125 142l23 0c9,0 15,3 15,12 0,9 -6,15 -15,15l-23 0 0 -27zm18 -58c9,0 14,6 14,15 0,6 -5,11 -14,11l-18 0 0 -26 18 0zm55 38c12,-3 23,-17 23,-35 0,-23 -20,-44 -55,-44l-105 0 0 170 105 0c44,0 67,-21 67,-50 0,-21 -17,-35 -35,-41l0 0zm140 93c18,0 35,-2 53,-11l0 -56c-12,6 -27,9 -38,9 -24,0 -41,-9 -41,-29 0,-21 17,-29 38,-29 11,0 26,3 38,6l0 -56c-15,-6 -29,-9 -50,-9 -29,0 -58,12 -79,38 -8,15 -14,29 -14,50 0,17 6,35 14,50 9,11 21,23 35,29 15,6 30,8 44,8l0 0zm146 -84l15 0c11,0 20,6 20,17 0,9 -9,15 -20,15l-15 0 0 -32zm0 -88l-64 0 0 170 93 0c23,0 41,-9 53,-21 11,-12 17,-26 17,-44 0,-17 -6,-32 -20,-43 -12,-12 -32,-18 -53,-18l-26 0 0 -44 0 0zm190 99l49 71 82 0 -70 -94 61 -76 -79 0 -43 59 0 -59 -67 0 0 170 67 0 0 -71 0 0zm233 21c-3,6 -9,9 -17,9 -12,0 -21,-6 -21,-15 0,-12 9,-17 21,-17 8,0 11,2 17,5l0 18zm76 -3c-6,0 -9,0 -9,-6l0 -47c0,-20 -9,-34 -23,-49 -18,-12 -38,-18 -61,-18 -27,0 -47,3 -65,12l0 50c15,-6 30,-12 47,-12 23,0 35,9 35,26 -12,-6 -23,-9 -38,-9 -17,0 -32,3 -47,12 -11,9 -17,23 -17,41 0,15 6,29 14,41 12,9 27,14 44,14 24,0 41,-8 50,-23 6,15 23,23 44,23 14,0 26,-2 35,-8l0 -50c-3,3 -6,3 -9,3z"/>
  <path fill="#2B2A29" fill-rule="nonzero" stroke="#FEFEFE" stroke-width="36.8984" stroke-linecap="round" stroke-linejoin="round" d="M112 578c-21,0 -29,-15 -29,-41 8,-9 17,-12 29,-12 14,0 26,9 26,24 0,17 -12,29 -26,29zm17 -102c-17,0 -40,6 -52,17 3,-11 8,-17 20,-26 6,-3 18,-6 27,-9 8,0 23,-3 29,-3 8,-3 23,-3 29,-3l0 -58c-29,3 -50,9 -61,12 -38,8 -65,20 -79,41 -15,17 -24,43 -24,75 0,32 9,59 24,79 14,21 38,29 70,29 26,0 46,-8 64,-23 17,-17 26,-38 26,-61 0,-47 -29,-70 -73,-70zm161 46c6,-5 14,-11 26,-11 17,0 29,14 29,32 0,17 -12,32 -29,32 -12,0 -20,-6 -26,-15l0 -38zm3 85c8,15 23,23 43,23 24,0 41,-8 53,-26 15,-14 23,-35 23,-61 0,-26 -8,-47 -23,-64 -12,-15 -29,-24 -53,-24 -20,0 -35,9 -43,24l0 -21 -70 0 0 234 70 0 0 -85 0 0zm172 85c35,0 58,-15 73,-50l70 -184 -70 0 -26 96 -30 -96 -73 0 70 164c-5,8 -11,14 -26,14 -12,0 -20,-3 -29,-9l0 59c12,3 23,6 41,6zm227 -135l47 70 85 0 -70 -93 58 -76 -76 0 -44 59 0 -59 -67 0 0 169 67 0 0 -70 0 0zm178 -105c24,0 38,-17 38,-40 0,-9 -3,-18 -9,-27 -8,-6 -17,-11 -29,-11 -8,0 -17,5 -26,11 -9,9 -12,18 -12,27 0,11 3,20 12,29 9,6 18,11 26,11zm35 6l-67 0 0 169 67 0 0 -169zm99 99l24 0c9,0 14,3 14,12 0,9 -5,15 -14,15l-24 0 0 -27zm18 -58c9,0 15,6 15,15 0,5 -6,11 -15,11l-18 0 0 -26 18 0zm55 38c12,-3 24,-18 24,-35 0,-23 -21,-44 -56,-44l-105 0 0 169 105 0c41,0 67,-20 67,-49 0,-21 -17,-35 -35,-41l0 0zm126 20l47 70 84 0 -70 -93 58 -76 -75 0 -44 59 0 -59 -70 0 0 169 70 0 0 -70 0 0zm233 21c-3,6 -11,9 -20,9 -9,0 -18,-6 -18,-15 0,-12 9,-18 21,-18 6,0 11,3 17,6l0 18zm73 -3c-6,0 -9,0 -9,-6l0 -47c0,-20 -5,-35 -23,-49 -15,-12 -35,-18 -61,-18 -24,0 -44,3 -61,12l0 50c11,-6 29,-12 46,-12 24,0 32,9 32,26 -8,-6 -20,-9 -35,-9 -17,0 -32,3 -46,12 -12,9 -18,23 -18,41 0,15 3,29 15,41 11,9 26,14 43,14 24,0 41,-8 50,-23 6,15 23,23 44,23 14,0 26,-3 32,-8l0 -50c-3,3 -6,3 -9,3z"/>
  <path id="_1_0" fill="#2B2A29" fill-rule="nonzero" stroke="#FEFEFE" stroke-width="0.899932" d="M112 578c-21,0 -29,-15 -29,-41 8,-9 17,-12 29,-12 14,0 26,9 26,24 0,17 -12,29 -26,29zm17 -102c-17,0 -40,6 -52,17 3,-11 8,-17 20,-26 6,-3 18,-6 27,-9 8,0 23,-3 29,-3 8,-3 23,-3 29,-3l0 -58c-29,3 -50,9 -61,12 -38,8 -65,20 -79,41 -15,17 -24,43 -24,75 0,32 9,59 24,79 14,21 38,29 70,29 26,0 46,-8 64,-23 17,-17 26,-38 26,-61 0,-47 -29,-70 -73,-70zm161 46c6,-5 14,-11 26,-11 17,0 29,14 29,32 0,17 -12,32 -29,32 -12,0 -20,-6 -26,-15l0 -38zm3 85c8,15 23,23 43,23 24,0 41,-8 53,-26 15,-14 23,-35 23,-61 0,-26 -8,-47 -23,-64 -12,-15 -29,-24 -53,-24 -20,0 -35,9 -43,24l0 -21 -70 0 0 234 70 0 0 -85 0 0zm172 85c35,0 58,-15 73,-50l70 -184 -70 0 -26 96 -30 -96 -73 0 70 164c-5,8 -11,14 -26,14 -12,0 -20,-3 -29,-9l0 59c12,3 23,6 41,6zm227 -135l47 70 85 0 -70 -93 58 -76 -76 0 -44 59 0 -59 -67 0 0 169 67 0 0 -70 0 0zm178 -105c24,0 38,-17 38,-40 0,-9 -3,-18 -9,-27 -8,-6 -17,-11 -29,-11 -8,0 -17,5 -26,11 -9,9 -12,18 -12,27 0,11 3,20 12,29 9,6 18,11 26,11zm35 6l-67 0 0 169 67 0 0 -169zm99 99l24 0c9,0 14,3 14,12 0,9 -5,15 -14,15l-24 0 0 -27zm18 -58c9,0 15,6 15,15 0,5 -6,11 -15,11l-18 0 0 -26 18 0zm55 38c12,-3 24,-18 24,-35 0,-23 -21,-44 -56,-44l-105 0 0 169 105 0c41,0 67,-20 67,-49 0,-21 -17,-35 -35,-41l0 0zm126 20l47 70 84 0 -70 -93 58 -76 -75 0 -44 59 0 -59 -70 0 0 169 70 0 0 -70 0 0zm233 21c-3,6 -11,9 -20,9 -9,0 -18,-6 -18,-15 0,-12 9,-18 21,-18 6,0 11,3 17,6l0 18zm73 -3c-6,0 -9,0 -9,-6l0 -47c0,-20 -5,-35 -23,-49 -15,-12 -35,-18 -61,-18 -24,0 -44,3 -61,12l0 50c11,-6 29,-12 46,-12 24,0 32,9 32,26 -8,-6 -20,-9 -35,-9 -17,0 -32,3 -46,12 -12,9 -18,23 -18,41 0,15 3,29 15,41 11,9 26,14 43,14 24,0 41,-8 50,-23 6,15 23,23 44,23 14,0 26,-3 32,-8l0 -50c-3,3 -6,3 -9,3z"/>
 </g>
</svg>
