<?xml version="1.0" encoding="UTF-8"?>
<!DOCTYPE svg PUBLIC "-//W3C//DTD SVG 1.1//EN" "http://www.w3.org/Graphics/SVG/1.1/DTD/svg11.dtd">
<!-- Creator: CorelDRAW X7 -->
<svg xmlns="http://www.w3.org/2000/svg" xml:space="preserve" width="895px" height="200px" version="1.1" shape-rendering="geometricPrecision" text-rendering="geometricPrecision" image-rendering="optimizeQuality" fill-rule="evenodd" clip-rule="evenodd"
viewBox="0 0 950 212"
 xmlns:xlink="http://www.w3.org/1999/xlink">
 <g id="Слой_x0020_1">
  <metadata id="CorelCorpID_0Corel-Layer"/>
  <g>
   <path fill="none" fill-rule="nonzero" stroke="#FEFEFE" stroke-width="12.5418" stroke-linecap="round" stroke-linejoin="round" d="M115 25c3,0 6,2 6,5 0,3 -3,5 -6,5l-12 0 0 -10 12 0zm0 26c4,0 7,3 7,7 0,4 -2,6 -7,6l-12 0 0 -13 12 0zm5 32c8,0 15,-2 20,-6 6,-4 8,-9 8,-16 0,-6 -1,-10 -5,-14 -3,-4 -6,-6 -9,-6 2,-1 4,-3 6,-6 2,-2 3,-5 3,-9 0,-7 -2,-11 -7,-15 -5,-3 -11,-5 -18,-5l-39 0 0 77 41 0zm75 -24l0 24 21 0 0 -56 -21 0 -17 24 0 -24 -22 0 0 56 22 0 17 -24zm55 -14l25 0 0 -18 -48 0 0 56 23 0 0 -38zm62 40c9,0 17,-3 23,-9 6,-5 9,-13 9,-21 0,-9 -3,-16 -9,-21 -6,-6 -14,-9 -23,-9 -10,0 -17,3 -24,9 -6,5 -9,12 -9,21 0,8 3,16 9,21 7,6 14,9 24,9zm-7 -23c-2,-2 -3,-4 -3,-7 0,-3 1,-5 3,-7 3,-4 10,-4 14,0 1,2 2,4 2,7 0,3 0,5 -2,7 -4,4 -11,4 -14,0l0 0zm81 -17l16 0 0 -18 -54 0 0 18 15 0 0 38 23 0 0 -38zm52 40c9,0 17,-3 23,-9 6,-5 9,-13 9,-21 0,-9 -3,-16 -9,-21 -6,-6 -14,-9 -23,-9 -9,0 -17,3 -23,9 -6,5 -9,12 -9,21 0,8 3,16 9,21 6,6 14,9 23,9zm-7 -23c-2,-2 -3,-4 -3,-7 0,-3 1,-5 3,-7 4,-4 10,-4 14,0 2,2 3,4 3,7 0,3 -1,5 -3,7 -4,4 -10,4 -14,0l0 0zm69 -2l8 0c3,0 5,1 5,4 0,3 -2,5 -5,5l-8 0 0 -9zm6 -20c3,0 5,2 5,5 0,3 -2,4 -5,4l-6 0 0 -9 6 0zm19 13c4,-1 8,-6 8,-12 0,-8 -7,-14 -19,-14l-36 0 0 56 36 0c14,0 23,-6 23,-16 0,-7 -6,-12 -12,-14zm58 30l23 0 0 -56 -54 0 -1 13c0,10 0,16 -1,20 -1,3 -3,5 -6,5 -1,0 -2,0 -3,-1l0 19c2,1 5,1 10,1 11,0 16,-6 19,-14 2,-6 2,-11 2,-18l1 -7 10 0 0 38zm52 -34c1,-5 4,-8 8,-8 4,0 7,3 7,8l-15 0 0 0zm10 36c11,0 19,-2 24,-6l0 -17c-6,3 -12,5 -19,5 -6,0 -13,-3 -15,-7l37 0 0 -5c0,-9 -3,-17 -8,-22 -6,-5 -12,-8 -20,-8 -9,0 -17,3 -22,9 -6,5 -9,12 -9,21 0,9 4,16 10,22 6,5 13,8 22,8zm58 -22l12 0 0 20 23 0 0 -56 -23 0 0 18 -12 0 0 -18 -23 0 0 56 23 0 0 -20zm70 0l12 0 0 20 23 0 0 -56 -23 0 0 18 -12 0 0 -18 -24 0 0 56 24 0 0 -20zm73 -11c-3,0 -5,-2 -5,-4 0,-3 2,-5 5,-5l6 0 0 9 -6 0zm4 15l2 0 0 16 23 0 0 -56 -32 0c-8,0 -14,1 -18,5 -4,4 -6,9 -6,14 0,8 3,13 9,16l-14 21 25 0 11 -16zm-805 99l15 0 0 -19 -54 0 0 19 15 0 0 38 24 0 0 -38zm53 22c-2,2 -4,3 -7,3 -3,0 -6,-2 -6,-6 0,-3 3,-5 7,-5 2,0 4,1 6,2l0 6zm25 -1c-2,0 -3,-1 -3,-2l0 -16c0,-7 -3,-12 -8,-16 -5,-5 -12,-7 -21,-7 -8,0 -15,1 -21,4l0 17c4,-2 10,-4 16,-4 8,0 11,3 11,9 -3,-2 -7,-3 -12,-3 -6,0 -11,1 -16,4 -4,3 -6,8 -6,14 0,5 2,10 5,13 4,4 9,6 15,6 8,0 14,-3 17,-8 2,4 8,8 15,8 5,0 8,-2 11,-4l0 -16c-1,1 -2,1 -3,1zm61 -6l8 0c3,0 5,1 5,4 0,3 -2,5 -5,5l-8 0 0 -9zm6 -20c3,0 5,2 5,5 0,3 -2,4 -5,4l-6 0 0 -9 6 0zm19 13c4,-1 8,-6 8,-12 0,-8 -7,-15 -19,-15l-36 0 0 57 36 0c14,0 22,-6 22,-16 0,-7 -5,-12 -11,-14zm47 32c6,0 12,-2 18,-4l0 -19c-4,2 -9,3 -13,3 -8,0 -14,-4 -14,-10 0,-7 6,-10 13,-10 4,0 9,1 13,2l0 -19c-5,-2 -10,-3 -17,-3 -10,0 -20,4 -26,13 -4,5 -5,10 -5,17 0,6 1,12 5,16 3,5 7,9 11,11 5,2 10,3 15,3l0 0zm62 -40l16 0 0 -19 -54 0 0 19 15 0 0 38 23 0 0 -38zm53 22c-1,2 -3,3 -6,3 -4,0 -6,-2 -6,-6 0,-3 3,-5 7,-5 2,0 4,1 5,2l0 6zm26 -1c-2,0 -3,-1 -3,-2l0 -16c0,-7 -3,-12 -8,-16 -5,-5 -12,-7 -21,-7 -8,0 -16,1 -22,4l0 17c5,-2 11,-4 17,-4 7,0 11,3 11,9 -4,-2 -8,-3 -13,-3 -5,0 -10,1 -15,4 -4,3 -7,8 -7,14 0,5 2,10 6,13 4,4 8,6 15,6 7,0 14,-3 17,-8 1,4 8,8 14,8 5,0 9,-2 12,-4l0 -16c-1,1 -2,1 -3,1zm34 -3l13 0 0 20 23 0 0 -57 -23 0 0 19 -13 0 0 -19 -23 0 0 57 23 0 0 -20zm76 22c9,0 17,-3 23,-9 6,-5 9,-13 9,-21 0,-9 -3,-16 -9,-21 -6,-6 -14,-9 -23,-9 -9,0 -17,3 -23,9 -6,5 -9,12 -9,21 0,8 3,16 9,21 6,6 14,9 23,9zm-7 -23c-2,-2 -3,-4 -3,-7 0,-3 1,-6 3,-7 4,-4 10,-4 14,0 2,1 3,4 3,7 0,3 -1,5 -3,7 -4,4 -10,4 -14,0l0 0zm69 -2l8 0c3,0 5,1 5,4 0,3 -2,5 -5,5l-8 0 0 -9zm6 -20c3,0 5,2 5,5 0,3 -2,4 -5,4l-6 0 0 -9 6 0zm19 13c4,-1 8,-6 8,-12 0,-8 -7,-15 -19,-15l-36 0 0 57 36 0c14,0 22,-6 22,-16 0,-7 -5,-12 -11,-14zm58 30l23 0 0 -57 -55 0 0 14c0,9 0,16 -1,20 -1,3 -3,5 -6,5 -1,0 -2,0 -4,-1l0 18c3,2 6,2 11,2 11,0 16,-6 19,-14 2,-6 2,-11 2,-18l1 -7 10 0 0 38zm52 -34c1,-5 3,-8 8,-8 4,0 7,3 7,8l-15 0 0 0zm10 36c11,0 18,-2 24,-6l0 -17c-6,3 -12,5 -19,5 -6,0 -13,-3 -15,-7l36 0 0 -5c0,-9 -2,-17 -7,-22 -6,-5 -12,-8 -20,-8 -9,0 -17,3 -22,9 -6,5 -9,12 -9,21 0,9 3,16 10,22 6,5 13,8 22,8zm58 -22l12 0 0 20 23 0 0 -57 -23 0 0 19 -12 0 0 -19 -23 0 0 57 23 0 0 -20zm69 0l13 0 0 20 23 0 0 -57 -23 0 0 19 -13 0 0 -19 -23 0 0 57 23 0 0 -20zm74 -11c-3,0 -5,-2 -5,-4 0,-3 2,-5 5,-5l6 0 0 9 -6 0zm3 15l3 0 0 16 23 0 0 -57 -32 0c-8,0 -14,2 -18,6 -4,4 -6,9 -6,14 0,8 3,13 9,16l-14 21 25 0 10 -16z"/>
   <path id="1" fill="#1B4E9B" fill-rule="nonzero" d="M115 25c3,0 6,2 6,5 0,3 -3,5 -6,5l-12 0 0 -10 12 0zm0 26c4,0 7,3 7,7 0,4 -2,6 -7,6l-12 0 0 -13 12 0zm5 32c8,0 15,-2 20,-6 6,-4 8,-9 8,-16 0,-6 -1,-10 -5,-14 -3,-4 -6,-6 -9,-6 2,-1 4,-3 6,-6 2,-2 3,-5 3,-9 0,-7 -2,-11 -7,-15 -5,-3 -11,-5 -18,-5l-39 0 0 77 41 0zm75 -24l0 24 21 0 0 -56 -21 0 -17 24 0 -24 -22 0 0 56 22 0 17 -24zm55 -14l25 0 0 -18 -48 0 0 56 23 0 0 -38zm62 40c9,0 17,-3 23,-9 6,-5 9,-13 9,-21 0,-9 -3,-16 -9,-21 -6,-6 -14,-9 -23,-9 -10,0 -17,3 -24,9 -6,5 -9,12 -9,21 0,8 3,16 9,21 7,6 14,9 24,9zm-7 -23c-2,-2 -3,-4 -3,-7 0,-3 1,-5 3,-7 3,-4 10,-4 14,0 1,2 2,4 2,7 0,3 0,5 -2,7 -4,4 -11,4 -14,0l0 0zm81 -17l16 0 0 -18 -54 0 0 18 15 0 0 38 23 0 0 -38zm52 40c9,0 17,-3 23,-9 6,-5 9,-13 9,-21 0,-9 -3,-16 -9,-21 -6,-6 -14,-9 -23,-9 -9,0 -17,3 -23,9 -6,5 -9,12 -9,21 0,8 3,16 9,21 6,6 14,9 23,9zm-7 -23c-2,-2 -3,-4 -3,-7 0,-3 1,-5 3,-7 4,-4 10,-4 14,0 2,2 3,4 3,7 0,3 -1,5 -3,7 -4,4 -10,4 -14,0l0 0zm69 -2l8 0c3,0 5,1 5,4 0,3 -2,5 -5,5l-8 0 0 -9zm6 -20c3,0 5,2 5,5 0,3 -2,4 -5,4l-6 0 0 -9 6 0zm19 13c4,-1 8,-6 8,-12 0,-8 -7,-14 -19,-14l-36 0 0 56 36 0c14,0 23,-6 23,-16 0,-7 -6,-12 -12,-14zm58 30l23 0 0 -56 -54 0 -1 13c0,10 0,16 -1,20 -1,3 -3,5 -6,5 -1,0 -2,0 -3,-1l0 19c2,1 5,1 10,1 11,0 16,-6 19,-14 2,-6 2,-11 2,-18l1 -7 10 0 0 38zm52 -34c1,-5 4,-8 8,-8 4,0 7,3 7,8l-15 0 0 0zm10 36c11,0 19,-2 24,-6l0 -17c-6,3 -12,5 -19,5 -6,0 -13,-3 -15,-7l37 0 0 -5c0,-9 -3,-17 -8,-22 -6,-5 -12,-8 -20,-8 -9,0 -17,3 -22,9 -6,5 -9,12 -9,21 0,9 4,16 10,22 6,5 13,8 22,8zm58 -22l12 0 0 20 23 0 0 -56 -23 0 0 18 -12 0 0 -18 -23 0 0 56 23 0 0 -20zm70 0l12 0 0 20 23 0 0 -56 -23 0 0 18 -12 0 0 -18 -24 0 0 56 24 0 0 -20zm73 -11c-3,0 -5,-2 -5,-4 0,-3 2,-5 5,-5l6 0 0 9 -6 0zm4 15l2 0 0 16 23 0 0 -56 -32 0c-8,0 -14,1 -18,5 -4,4 -6,9 -6,14 0,8 3,13 9,16l-14 21 25 0 11 -16zm-805 99l15 0 0 -19 -54 0 0 19 15 0 0 38 24 0 0 -38zm53 22c-2,2 -4,3 -7,3 -3,0 -6,-2 -6,-6 0,-3 3,-5 7,-5 2,0 4,1 6,2l0 6zm25 -1c-2,0 -3,-1 -3,-2l0 -16c0,-7 -3,-12 -8,-16 -5,-5 -12,-7 -21,-7 -8,0 -15,1 -21,4l0 17c4,-2 10,-4 16,-4 8,0 11,3 11,9 -3,-2 -7,-3 -12,-3 -6,0 -11,1 -16,4 -4,3 -6,8 -6,14 0,5 2,10 5,13 4,4 9,6 15,6 8,0 14,-3 17,-8 2,4 8,8 15,8 5,0 8,-2 11,-4l0 -16c-1,1 -2,1 -3,1zm61 -6l8 0c3,0 5,1 5,4 0,3 -2,5 -5,5l-8 0 0 -9zm6 -20c3,0 5,2 5,5 0,3 -2,4 -5,4l-6 0 0 -9 6 0zm19 13c4,-1 8,-6 8,-12 0,-8 -7,-15 -19,-15l-36 0 0 57 36 0c14,0 22,-6 22,-16 0,-7 -5,-12 -11,-14zm47 32c6,0 12,-2 18,-4l0 -19c-4,2 -9,3 -13,3 -8,0 -14,-4 -14,-10 0,-7 6,-10 13,-10 4,0 9,1 13,2l0 -19c-5,-2 -10,-3 -17,-3 -10,0 -20,4 -26,13 -4,5 -5,10 -5,17 0,6 1,12 5,16 3,5 7,9 11,11 5,2 10,3 15,3l0 0zm62 -40l16 0 0 -19 -54 0 0 19 15 0 0 38 23 0 0 -38zm53 22c-1,2 -3,3 -6,3 -4,0 -6,-2 -6,-6 0,-3 3,-5 7,-5 2,0 4,1 5,2l0 6zm26 -1c-2,0 -3,-1 -3,-2l0 -16c0,-7 -3,-12 -8,-16 -5,-5 -12,-7 -21,-7 -8,0 -16,1 -22,4l0 17c5,-2 11,-4 17,-4 7,0 11,3 11,9 -4,-2 -8,-3 -13,-3 -5,0 -10,1 -15,4 -4,3 -7,8 -7,14 0,5 2,10 6,13 4,4 8,6 15,6 7,0 14,-3 17,-8 1,4 8,8 14,8 5,0 9,-2 12,-4l0 -16c-1,1 -2,1 -3,1zm34 -3l13 0 0 20 23 0 0 -57 -23 0 0 19 -13 0 0 -19 -23 0 0 57 23 0 0 -20zm76 22c9,0 17,-3 23,-9 6,-5 9,-13 9,-21 0,-9 -3,-16 -9,-21 -6,-6 -14,-9 -23,-9 -9,0 -17,3 -23,9 -6,5 -9,12 -9,21 0,8 3,16 9,21 6,6 14,9 23,9zm-7 -23c-2,-2 -3,-4 -3,-7 0,-3 1,-6 3,-7 4,-4 10,-4 14,0 2,1 3,4 3,7 0,3 -1,5 -3,7 -4,4 -10,4 -14,0l0 0zm69 -2l8 0c3,0 5,1 5,4 0,3 -2,5 -5,5l-8 0 0 -9zm6 -20c3,0 5,2 5,5 0,3 -2,4 -5,4l-6 0 0 -9 6 0zm19 13c4,-1 8,-6 8,-12 0,-8 -7,-15 -19,-15l-36 0 0 57 36 0c14,0 22,-6 22,-16 0,-7 -5,-12 -11,-14zm58 30l23 0 0 -57 -55 0 0 14c0,9 0,16 -1,20 -1,3 -3,5 -6,5 -1,0 -2,0 -4,-1l0 18c3,2 6,2 11,2 11,0 16,-6 19,-14 2,-6 2,-11 2,-18l1 -7 10 0 0 38zm52 -34c1,-5 3,-8 8,-8 4,0 7,3 7,8l-15 0 0 0zm10 36c11,0 18,-2 24,-6l0 -17c-6,3 -12,5 -19,5 -6,0 -13,-3 -15,-7l36 0 0 -5c0,-9 -2,-17 -7,-22 -6,-5 -12,-8 -20,-8 -9,0 -17,3 -22,9 -6,5 -9,12 -9,21 0,9 3,16 10,22 6,5 13,8 22,8zm58 -22l12 0 0 20 23 0 0 -57 -23 0 0 19 -12 0 0 -19 -23 0 0 57 23 0 0 -20zm69 0l13 0 0 20 23 0 0 -57 -23 0 0 19 -13 0 0 -19 -23 0 0 57 23 0 0 -20zm74 -11c-3,0 -5,-2 -5,-4 0,-3 2,-5 5,-5l6 0 0 9 -6 0zm3 15l3 0 0 16 23 0 0 -57 -32 0c-8,0 -14,2 -18,6 -4,4 -6,9 -6,14 0,8 3,13 9,16l-14 21 25 0 10 -16z"/>
  </g>
 </g>
</svg>
