<?xml version="1.0" encoding="UTF-8"?>
<!DOCTYPE svg PUBLIC "-//W3C//DTD SVG 1.1//EN" "http://www.w3.org/Graphics/SVG/1.1/DTD/svg11.dtd">
<!-- Creator: CorelDRAW X7 -->
<svg xmlns="http://www.w3.org/2000/svg" xml:space="preserve" width="1166px" height="114px" version="1.1" shape-rendering="geometricPrecision" text-rendering="geometricPrecision" image-rendering="optimizeQuality" fill-rule="evenodd" clip-rule="evenodd"
viewBox="0 0 1249 122"
 xmlns:xlink="http://www.w3.org/1999/xlink">
 <g id="Слой_x0020_1">
  <metadata id="CorelCorpID_0Corel-Layer"/>
  <g>
   <path fill="none" fill-rule="nonzero" stroke="#1B4E9B" stroke-width="12.6485" stroke-linecap="round" stroke-linejoin="round" d="M30 35l36 0 0 -20 -60 0 0 78 24 0 0 -58zm50 23c1,-6 4,-9 8,-9 4,0 7,4 7,9l-15 0 0 0zm10 36c11,0 19,-2 24,-6l0 -17c-5,3 -12,5 -18,5 -7,0 -13,-3 -15,-7l36 0 0 -5c0,-10 -3,-17 -8,-22 -5,-5 -12,-8 -20,-8 -9,0 -16,3 -22,8 -6,6 -9,13 -9,22 0,9 4,17 10,22 6,5 14,8 22,8zm58 -37c2,-2 5,-4 9,-4 6,0 9,5 9,11 0,6 -3,11 -9,11 -4,0 -7,-2 -9,-5l0 -13zm1 29c3,5 8,8 15,8 7,0 14,-3 18,-9 5,-5 7,-12 7,-21 0,-9 -2,-16 -7,-22 -4,-5 -11,-8 -18,-8 -7,0 -12,3 -15,8l0 -7 -24 0 0 80 24 0 0 -29zm116 -12l-8 0 0 -39 -24 0 0 39 -13 0 0 -39 -23 0 0 58 45 0 0 12 23 0 0 -31zm39 2c-1,2 -3,3 -6,3 -3,0 -6,-2 -6,-5 0,-4 3,-6 7,-6 2,0 4,1 5,2l0 6zm26 -1c-2,0 -3,0 -3,-2l0 -16c0,-7 -3,-12 -8,-17 -5,-4 -12,-6 -21,-6 -8,0 -16,1 -22,4l0 17c5,-2 11,-4 17,-4 7,0 11,3 11,9 -4,-2 -8,-3 -13,-3 -5,0 -11,1 -15,4 -5,3 -7,8 -7,14 0,5 2,10 6,14 3,3 8,5 15,5 7,0 14,-3 17,-8 2,5 8,8 15,8 5,0 8,-1 11,-3l0 -17c-1,1 -2,1 -3,1zm35 -40l-23 0 0 58 23 0 0 -58zm-24 -4c6,0 11,-5 11,-11 0,-6 -5,-11 -11,-11 -3,0 -6,1 -8,3 -2,2 -3,5 -3,8 0,6 5,11 11,11zm15 -11c0,6 5,11 11,11 6,0 11,-5 11,-11 0,-3 -1,-6 -4,-8 -2,-2 -4,-3 -7,-3 -6,0 -11,5 -11,11zm43 49l8 0c3,0 5,1 5,4 0,3 -2,5 -5,5l-8 0 0 -9zm6 -20c3,0 5,2 5,5 0,2 -2,4 -5,4l-6 0 0 -9 6 0zm19 13c4,-1 8,-6 8,-12 0,-8 -7,-15 -19,-15l-36 0 0 58 36 0c15,0 23,-7 23,-17 0,-7 -6,-12 -12,-14zm48 32c6,0 12,-1 18,-4l0 -19c-4,2 -9,3 -13,3 -8,0 -14,-3 -14,-10 0,-7 6,-10 13,-10 4,0 9,1 13,2l0 -19c-5,-2 -10,-3 -17,-3 -10,0 -20,4 -27,13 -3,5 -5,10 -5,17 0,6 2,12 5,17 3,4 7,8 12,10 5,2 10,3 15,3l0 0zm50 -29l5 0c4,0 7,2 7,6 0,3 -3,5 -7,5l-5 0 0 -11zm0 -30l-22 0 0 58 32 0c8,0 14,-3 18,-7 4,-4 6,-9 6,-15 0,-6 -2,-11 -7,-15 -4,-4 -11,-6 -18,-6l-9 0 0 -15zm65 34l17 24 28 0 -24 -32 21 -26 -27 0 -15 20 0 -20 -23 0 0 58 23 0 0 -24zm80 7c-1,2 -3,3 -6,3 -4,0 -7,-2 -7,-5 0,-4 3,-6 7,-6 3,0 4,1 6,2l0 6zm26 -1c-2,0 -3,0 -3,-2l0 -16c0,-7 -3,-12 -8,-17 -6,-4 -13,-6 -21,-6 -9,0 -16,1 -22,4l0 17c5,-2 10,-4 16,-4 8,0 12,3 12,9 -4,-2 -8,-3 -13,-3 -6,0 -11,1 -16,4 -4,3 -6,8 -6,14 0,5 2,10 5,14 4,3 9,5 15,5 8,0 14,-3 17,-8 2,5 8,8 15,8 5,0 9,-1 12,-3l0 -17c-1,1 -2,1 -3,1zm67 1c-7,0 -10,-5 -10,-14 3,-3 6,-4 10,-4 5,0 9,3 9,8 0,6 -4,10 -9,10zm6 -35c-6,0 -14,2 -18,6 1,-4 3,-6 7,-9 2,-1 6,-2 9,-3 3,0 8,-1 10,-1 3,-1 8,-1 10,-1l0 -20c-10,1 -17,3 -21,4 -13,3 -22,7 -27,14 -5,6 -8,15 -8,26 0,11 3,20 8,27 5,7 13,10 24,10 9,0 16,-3 22,-8 6,-6 9,-13 9,-21 0,-16 -10,-24 -25,-24zm55 16c2,-2 5,-4 9,-4 6,0 10,5 10,11 0,6 -4,11 -10,11 -4,0 -7,-2 -9,-5l0 -13zm1 29c3,5 8,8 15,8 8,0 14,-3 18,-9 5,-5 8,-12 8,-21 0,-9 -3,-16 -8,-22 -4,-5 -10,-8 -18,-8 -7,0 -12,3 -15,8l0 -7 -24 0 0 80 24 0 0 -29zm59 29c12,0 20,-5 25,-17l24 -63 -24 0 -9 33 -10 -33 -25 0 24 56c-2,3 -4,5 -9,5 -4,0 -7,-1 -10,-3l0 20c4,1 8,2 14,2zm78 -46l16 24 29 0 -24 -32 20 -26 -26 0 -15 20 0 -20 -23 0 0 58 23 0 0 -24zm61 -36c8,0 13,-6 13,-14 0,-3 -1,-6 -3,-9 -3,-2 -6,-4 -10,-4 -3,0 -6,2 -9,4 -3,3 -4,6 -4,9 0,4 1,7 4,10 3,2 6,4 9,4zm12 2l-23 0 0 58 23 0 0 -58zm34 34l8 0c3,0 5,1 5,4 0,3 -2,5 -5,5l-8 0 0 -9zm6 -20c3,0 5,2 5,5 0,2 -2,4 -5,4l-6 0 0 -9 6 0zm19 13c4,-1 8,-6 8,-12 0,-8 -7,-15 -19,-15l-36 0 0 58 36 0c14,0 23,-7 23,-17 0,-7 -6,-12 -12,-14zm43 7l16 24 29 0 -24 -32 20 -26 -26 0 -15 20 0 -20 -24 0 0 58 24 0 0 -24zm80 7c-1,2 -4,3 -7,3 -3,0 -6,-2 -6,-5 0,-4 3,-6 7,-6 2,0 4,1 6,2l0 6zm25 -1c-2,0 -3,0 -3,-2l0 -16c0,-7 -2,-12 -8,-17 -5,-4 -12,-6 -21,-6 -8,0 -15,1 -21,4l0 17c4,-2 10,-4 16,-4 8,0 11,3 11,9 -3,-2 -7,-3 -12,-3 -6,0 -11,1 -16,4 -4,3 -6,8 -6,14 0,5 1,10 5,14 4,3 9,5 15,5 8,0 14,-3 17,-8 2,5 8,8 15,8 5,0 9,-1 11,-3l0 -17c-1,1 -2,1 -3,1z"/>
   <path id="1" fill="#FEFEFE" fill-rule="nonzero" d="M30 35l36 0 0 -20 -60 0 0 78 24 0 0 -58zm50 23c1,-6 4,-9 8,-9 4,0 7,4 7,9l-15 0 0 0zm10 36c11,0 19,-2 24,-6l0 -17c-5,3 -12,5 -18,5 -7,0 -13,-3 -15,-7l36 0 0 -5c0,-10 -3,-17 -8,-22 -5,-5 -12,-8 -20,-8 -9,0 -16,3 -22,8 -6,6 -9,13 -9,22 0,9 4,17 10,22 6,5 14,8 22,8zm58 -37c2,-2 5,-4 9,-4 6,0 9,5 9,11 0,6 -3,11 -9,11 -4,0 -7,-2 -9,-5l0 -13zm1 29c3,5 8,8 15,8 7,0 14,-3 18,-9 5,-5 7,-12 7,-21 0,-9 -2,-16 -7,-22 -4,-5 -11,-8 -18,-8 -7,0 -12,3 -15,8l0 -7 -24 0 0 80 24 0 0 -29zm116 -12l-8 0 0 -39 -24 0 0 39 -13 0 0 -39 -23 0 0 58 45 0 0 12 23 0 0 -31zm39 2c-1,2 -3,3 -6,3 -3,0 -6,-2 -6,-5 0,-4 3,-6 7,-6 2,0 4,1 5,2l0 6zm26 -1c-2,0 -3,0 -3,-2l0 -16c0,-7 -3,-12 -8,-17 -5,-4 -12,-6 -21,-6 -8,0 -16,1 -22,4l0 17c5,-2 11,-4 17,-4 7,0 11,3 11,9 -4,-2 -8,-3 -13,-3 -5,0 -11,1 -15,4 -5,3 -7,8 -7,14 0,5 2,10 6,14 3,3 8,5 15,5 7,0 14,-3 17,-8 2,5 8,8 15,8 5,0 8,-1 11,-3l0 -17c-1,1 -2,1 -3,1zm35 -40l-23 0 0 58 23 0 0 -58zm-24 -4c6,0 11,-5 11,-11 0,-6 -5,-11 -11,-11 -3,0 -6,1 -8,3 -2,2 -3,5 -3,8 0,6 5,11 11,11zm15 -11c0,6 5,11 11,11 6,0 11,-5 11,-11 0,-3 -1,-6 -4,-8 -2,-2 -4,-3 -7,-3 -6,0 -11,5 -11,11zm43 49l8 0c3,0 5,1 5,4 0,3 -2,5 -5,5l-8 0 0 -9zm6 -20c3,0 5,2 5,5 0,2 -2,4 -5,4l-6 0 0 -9 6 0zm19 13c4,-1 8,-6 8,-12 0,-8 -7,-15 -19,-15l-36 0 0 58 36 0c15,0 23,-7 23,-17 0,-7 -6,-12 -12,-14zm48 32c6,0 12,-1 18,-4l0 -19c-4,2 -9,3 -13,3 -8,0 -14,-3 -14,-10 0,-7 6,-10 13,-10 4,0 9,1 13,2l0 -19c-5,-2 -10,-3 -17,-3 -10,0 -20,4 -27,13 -3,5 -5,10 -5,17 0,6 2,12 5,17 3,4 7,8 12,10 5,2 10,3 15,3l0 0zm50 -29l5 0c4,0 7,2 7,6 0,3 -3,5 -7,5l-5 0 0 -11zm0 -30l-22 0 0 58 32 0c8,0 14,-3 18,-7 4,-4 6,-9 6,-15 0,-6 -2,-11 -7,-15 -4,-4 -11,-6 -18,-6l-9 0 0 -15zm65 34l17 24 28 0 -24 -32 21 -26 -27 0 -15 20 0 -20 -23 0 0 58 23 0 0 -24zm80 7c-1,2 -3,3 -6,3 -4,0 -7,-2 -7,-5 0,-4 3,-6 7,-6 3,0 4,1 6,2l0 6zm26 -1c-2,0 -3,0 -3,-2l0 -16c0,-7 -3,-12 -8,-17 -6,-4 -13,-6 -21,-6 -9,0 -16,1 -22,4l0 17c5,-2 10,-4 16,-4 8,0 12,3 12,9 -4,-2 -8,-3 -13,-3 -6,0 -11,1 -16,4 -4,3 -6,8 -6,14 0,5 2,10 5,14 4,3 9,5 15,5 8,0 14,-3 17,-8 2,5 8,8 15,8 5,0 9,-1 12,-3l0 -17c-1,1 -2,1 -3,1zm67 1c-7,0 -10,-5 -10,-14 3,-3 6,-4 10,-4 5,0 9,3 9,8 0,6 -4,10 -9,10zm6 -35c-6,0 -14,2 -18,6 1,-4 3,-6 7,-9 2,-1 6,-2 9,-3 3,0 8,-1 10,-1 3,-1 8,-1 10,-1l0 -20c-10,1 -17,3 -21,4 -13,3 -22,7 -27,14 -5,6 -8,15 -8,26 0,11 3,20 8,27 5,7 13,10 24,10 9,0 16,-3 22,-8 6,-6 9,-13 9,-21 0,-16 -10,-24 -25,-24zm55 16c2,-2 5,-4 9,-4 6,0 10,5 10,11 0,6 -4,11 -10,11 -4,0 -7,-2 -9,-5l0 -13zm1 29c3,5 8,8 15,8 8,0 14,-3 18,-9 5,-5 8,-12 8,-21 0,-9 -3,-16 -8,-22 -4,-5 -10,-8 -18,-8 -7,0 -12,3 -15,8l0 -7 -24 0 0 80 24 0 0 -29zm59 29c12,0 20,-5 25,-17l24 -63 -24 0 -9 33 -10 -33 -25 0 24 56c-2,3 -4,5 -9,5 -4,0 -7,-1 -10,-3l0 20c4,1 8,2 14,2zm78 -46l16 24 29 0 -24 -32 20 -26 -26 0 -15 20 0 -20 -23 0 0 58 23 0 0 -24zm61 -36c8,0 13,-6 13,-14 0,-3 -1,-6 -3,-9 -3,-2 -6,-4 -10,-4 -3,0 -6,2 -9,4 -3,3 -4,6 -4,9 0,4 1,7 4,10 3,2 6,4 9,4zm12 2l-23 0 0 58 23 0 0 -58zm34 34l8 0c3,0 5,1 5,4 0,3 -2,5 -5,5l-8 0 0 -9zm6 -20c3,0 5,2 5,5 0,2 -2,4 -5,4l-6 0 0 -9 6 0zm19 13c4,-1 8,-6 8,-12 0,-8 -7,-15 -19,-15l-36 0 0 58 36 0c14,0 23,-7 23,-17 0,-7 -6,-12 -12,-14zm43 7l16 24 29 0 -24 -32 20 -26 -26 0 -15 20 0 -20 -24 0 0 58 24 0 0 -24zm80 7c-1,2 -4,3 -7,3 -3,0 -6,-2 -6,-5 0,-4 3,-6 7,-6 2,0 4,1 6,2l0 6zm25 -1c-2,0 -3,0 -3,-2l0 -16c0,-7 -2,-12 -8,-17 -5,-4 -12,-6 -21,-6 -8,0 -15,1 -21,4l0 17c4,-2 10,-4 16,-4 8,0 11,3 11,9 -3,-2 -7,-3 -12,-3 -6,0 -11,1 -16,4 -4,3 -6,8 -6,14 0,5 1,10 5,14 4,3 9,5 15,5 8,0 14,-3 17,-8 2,5 8,8 15,8 5,0 9,-1 11,-3l0 -17c-1,1 -2,1 -3,1z"/>
  </g>
 </g>
</svg>
