<?xml version="1.0" encoding="UTF-8"?>
<!DOCTYPE svg PUBLIC "-//W3C//DTD SVG 1.1//EN" "http://www.w3.org/Graphics/SVG/1.1/DTD/svg11.dtd">
<!-- Creator: CorelDRAW X7 -->
<svg xmlns="http://www.w3.org/2000/svg" xml:space="preserve" width="210mm" height="297mm" version="1.1" style="shape-rendering:geometricPrecision; text-rendering:geometricPrecision; image-rendering:optimizeQuality; fill-rule:evenodd; clip-rule:evenodd"
viewBox="0 0 21000 29700"
 xmlns:xlink="http://www.w3.org/1999/xlink">
 <defs>
  <style type="text/css">
   <![CDATA[
    .str0 {stroke:#FEFEFE;stroke-width:976.88;stroke-linecap:round;stroke-linejoin:round}
    .fil0 {fill:#898989}
    .fil1 {fill:#898989;fill-rule:nonzero}
   ]]>
  </style>
 </defs>
 <g id="Слой_x0020_1">
  <metadata id="CorelCorpID_0Corel-Layer"/>
  <g id="_768270480">
   <path class="fil0 str0" d="M-13484 9439c211,0 396,133 396,344 0,185 -185,318 -396,318l-794 0 0 -662 794 0 0 0zm0 1747c264,0 476,185 476,449 0,265 -133,424 -476,424l-794 0 0 -873 794 0 0 0 0 0zm343 2116c530,0 979,-132 1323,-397 397,-264 530,-582 530,-1058 0,-397 -53,-661 -344,-926 -186,-265 -397,-397 -582,-397 132,-79 264,-212 396,-423 133,-133 186,-318 186,-582 0,-477 -133,-741 -450,-1006 -344,-211 -741,-344 -1217,-344l-2593 0 0 5133 2751 0 0 0zm4975 -1587l0 1587 1402 0 0 -3730 -1402 0 -1112 1614 0 -1614 -1481 0 0 3730 1481 0 1112 -1587zm3677 -926l1667 0 0 -1217 -3201 0 0 3730 1534 0 0 -2513zm4128 2645c608,0 1138,-185 1534,-582 397,-344 609,-873 609,-1402 0,-608 -212,-1058 -609,-1402 -396,-397 -926,-609 -1534,-609 -662,0 -1138,212 -1588,609 -423,344 -608,794 -608,1402 0,529 185,1058 608,1402 450,397 926,582 1588,582zm-476 -1534c-133,-132 -186,-265 -186,-450 0,-212 53,-344 186,-476 211,-265 688,-265 952,0 53,132 132,264 132,476 0,185 0,318 -132,450 -264,291 -741,291 -952,0l0 0zm5397 -1111l1085 0 0 -1217 -3598 0 0 1217 979 0 0 2513 1534 0 0 -2513zm3466 2645c609,0 1138,-185 1535,-582 397,-344 608,-873 608,-1402 0,-608 -211,-1058 -608,-1402 -397,-397 -926,-609 -1535,-609 -582,0 -1111,212 -1534,609 -397,344 -583,794 -583,1402 0,529 186,1058 583,1402 423,397 952,582 1534,582zm-450 -1534c-132,-132 -211,-265 -211,-450 0,-212 79,-344 211,-476 265,-265 662,-265 926,0 133,132 212,264 212,476 0,185 -79,318 -212,450 -264,291 -661,291 -926,0l0 0zm4578 -132l555 0c185,0 318,79 318,291 0,185 -133,317 -318,317l-555 0 0 -608zm423 -1323c185,0 317,132 317,344 0,185 -132,264 -317,264l-423 0 0 -608 423 0zm1244 873c264,-80 555,-397 555,-794 0,-556 -476,-952 -1270,-952l-2408 0 0 3730 2408 0c926,0 1535,-397 1535,-1058 0,-476 -397,-794 -820,-926l0 0zm3862 1984l1535 0 0 -3730 -3598 0 -53 873c0,661 0,1058 -80,1323 -53,211 -185,344 -396,344 -53,0 -133,0 -186,-53l0 1243c133,80 318,80 662,80 741,0 1058,-397 1270,-926 132,-397 132,-741 132,-1218l53 -449 661 0 0 2513 0 0 0 0zm3466 -2249c80,-344 265,-529 556,-529 265,0 450,185 450,529l-1006 0 0 0zm688 2381c715,0 1244,-132 1588,-396l0 -1138c-397,212 -794,344 -1270,344 -397,0 -873,-185 -1006,-476l2488 0 0 -318c0,-608 -212,-1138 -556,-1482 -397,-317 -794,-529 -1323,-529 -609,0 -1138,212 -1455,609 -397,344 -609,794 -609,1402 0,609 265,1058 662,1455 397,344 873,529 1481,529l0 0 0 0zm3863 -1455l794 0 0 1323 1535 0 0 -3730 -1535 0 0 1217 -794 0 0 -1217 -1534 0 0 3730 1534 0 0 -1323zm4657 0l794 0 0 1323 1534 0 0 -3730 -1534 0 0 1217 -794 0 0 -1217 -1614 0 0 3730 1614 0 0 -1323zm4868 -741c-211,0 -344,-132 -344,-264 0,-185 133,-318 344,-318l397 0 0 582 -397 0zm265 1006l132 0 0 1058 1535 0 0 -3730 -2143 0c-530,0 -926,79 -1191,344 -265,264 -397,608 -397,926 0,529 185,873 582,1058l-926 1402 1667 0 741 -1058 0 0 0 0zm-53631 6588l979 0 0 -1244 -3599 0 0 1244 1006 0 0 2540 1614 0 0 -2540 0 0 0 0zm3519 1482c-132,132 -265,185 -450,185 -212,0 -423,-132 -423,-397 0,-185 211,-318 476,-318 132,0 265,53 397,133l0 397 0 0zm1667 -80c-133,0 -186,-53 -186,-132l0 -1058c0,-477 -211,-794 -555,-1059 -318,-344 -794,-476 -1376,-476 -556,0 -1005,79 -1402,265l0 1137c264,-132 661,-264 1058,-264 529,0 741,185 741,582 -212,-132 -476,-185 -820,-185 -397,0 -715,53 -1059,264 -264,212 -397,529 -397,926 0,344 133,662 344,873 265,265 583,397 979,397 556,0 953,-185 1138,-529 132,265 529,529 1006,529 343,0 529,-132 740,-264l0 -1059c-79,53 -132,53 -211,53l0 0 0 0zm4074 -397l529 0c186,0 318,80 318,265 0,212 -132,344 -318,344l-529 0 0 -609zm397 -1323c185,0 318,133 318,318 0,212 -133,265 -318,265l-397 0 0 -583 397 0zm1270 874c265,-80 529,-424 529,-821 0,-529 -476,-979 -1270,-979l-2407 0 0 3784 2407 0c926,0 1456,-397 1456,-1058 0,-477 -318,-794 -715,-926zm3122 2116c397,0 794,-132 1191,-264l0 -1270c-265,132 -582,211 -847,211 -555,0 -952,-264 -952,-661 0,-476 397,-688 873,-688 264,0 608,79 873,132l0 -1243c-344,-133 -662,-212 -1138,-212 -661,0 -1323,265 -1720,873 -291,318 -344,662 -344,1138 0,397 53,794 344,1058 186,318 450,609 715,741 344,132 661,185 1005,185l0 0 0 0 0 0zm4128 -2672l1058 0 0 -1244 -3598 0 0 1244 1005 0 0 2540 1535 0 0 -2540zm3545 1482c-79,132 -212,185 -423,185 -265,0 -397,-132 -397,-397 0,-185 212,-318 476,-318 132,0 265,53 344,133l0 397zm1720 -80c-132,0 -185,-53 -185,-132l0 -1058c0,-477 -212,-794 -556,-1059 -317,-344 -794,-476 -1402,-476 -529,0 -1059,79 -1455,265l0 1137c344,-132 740,-264 1137,-264 477,0 741,185 741,582 -264,-132 -555,-185 -873,-185 -344,0 -661,53 -1005,264 -265,212 -477,529 -477,926 0,344 159,662 424,873 264,265 529,397 979,397 476,0 952,-185 1137,-529 80,265 530,529 926,529 344,0 609,-132 821,-264l0 -1059c-80,53 -133,53 -212,53l0 0 0 0zm2275 -185l847 0 0 1323 1535 0 0 -3784 -1535 0 0 1244 -847 0 0 -1244 -1534 0 0 3784 1534 0 0 -1323zm5054 1455c608,0 1138,-185 1534,-608 397,-318 609,-847 609,-1376 0,-609 -212,-1085 -609,-1402 -396,-397 -926,-609 -1534,-609 -609,0 -1138,212 -1535,609 -397,317 -582,793 -582,1402 0,529 185,1058 582,1376 397,423 926,608 1535,608zm-476 -1534c-133,-133 -186,-265 -186,-450 0,-212 53,-423 186,-476 291,-265 688,-265 952,0 132,53 185,264 185,476 0,185 -53,317 -185,450 -264,264 -661,264 -952,0l0 0zm4603 -133l530 0c211,0 344,80 344,265 0,212 -133,344 -344,344l-530 0 0 -609zm397 -1323c212,0 344,133 344,318 0,212 -132,265 -344,265l-397 0 0 -583 397 0zm1270 874c265,-80 529,-424 529,-821 0,-529 -449,-979 -1270,-979l-2381 0 0 3784 2381 0c953,0 1482,-397 1482,-1058 0,-477 -344,-794 -741,-926l0 0zm3863 1984l1535 0 0 -3784 -3651 0 0 926c0,583 0,1059 -80,1323 -53,212 -185,344 -397,344 -79,0 -132,0 -264,-79l0 1217c185,132 397,132 741,132 714,0 1058,-423 1243,-952 159,-397 159,-715 159,-1191l53 -476 661 0 0 2540 0 0 0 0zm3466 -2275c80,-318 212,-530 529,-530 265,0 477,212 477,530l-1006 0 0 0zm662 2407c741,0 1217,-132 1614,-397l0 -1137c-397,211 -794,344 -1270,344 -397,0 -873,-212 -1006,-477l2408 0 0 -317c0,-609 -132,-1138 -476,-1482 -397,-317 -794,-529 -1323,-529 -609,0 -1138,212 -1482,609 -397,317 -582,793 -582,1402 0,582 185,1058 661,1455 397,344 874,529 1456,529l0 0 0 0zm3863 -1455l820 0 0 1323 1534 0 0 -3784 -1534 0 0 1244 -820 0 0 -1244 -1535 0 0 3784 1535 0 0 -1323zm4603 0l873 0 0 1323 1535 0 0 -3784 -1535 0 0 1244 -873 0 0 -1244 -1534 0 0 3784 1534 0 0 -1323zm4948 -741c-212,0 -344,-132 -344,-264 0,-212 132,-344 344,-344l397 0 0 608 -397 0zm185 1006l212 0 0 1058 1535 0 0 -3784 -2144 0c-529,0 -926,133 -1190,397 -265,265 -397,582 -397,926 0,530 185,873 582,1059l-926 1402 1667 0 661 -1058 0 0z"/>
   <path id="_1" class="fil1" d="M-13484 9439c211,0 396,133 396,344 0,185 -185,318 -396,318l-794 0 0 -662 794 0 0 0zm0 1747c264,0 476,185 476,449 0,265 -133,424 -476,424l-794 0 0 -873 794 0 0 0 0 0zm343 2116c530,0 979,-132 1323,-397 397,-264 530,-582 530,-1058 0,-397 -53,-661 -344,-926 -186,-265 -397,-397 -582,-397 132,-79 264,-212 396,-423 133,-133 186,-318 186,-582 0,-477 -133,-741 -450,-1006 -344,-211 -741,-344 -1217,-344l-2593 0 0 5133 2751 0 0 0zm4975 -1587l0 1587 1402 0 0 -3730 -1402 0 -1112 1614 0 -1614 -1481 0 0 3730 1481 0 1112 -1587zm3677 -926l1667 0 0 -1217 -3201 0 0 3730 1534 0 0 -2513zm4128 2645c608,0 1138,-185 1534,-582 397,-344 609,-873 609,-1402 0,-608 -212,-1058 -609,-1402 -396,-397 -926,-609 -1534,-609 -662,0 -1138,212 -1588,609 -423,344 -608,794 -608,1402 0,529 185,1058 608,1402 450,397 926,582 1588,582zm-476 -1534c-133,-132 -186,-265 -186,-450 0,-212 53,-344 186,-476 211,-265 688,-265 952,0 53,132 132,264 132,476 0,185 0,318 -132,450 -264,291 -741,291 -952,0l0 0zm5397 -1111l1085 0 0 -1217 -3598 0 0 1217 979 0 0 2513 1534 0 0 -2513zm3466 2645c609,0 1138,-185 1535,-582 397,-344 608,-873 608,-1402 0,-608 -211,-1058 -608,-1402 -397,-397 -926,-609 -1535,-609 -582,0 -1111,212 -1534,609 -397,344 -583,794 -583,1402 0,529 186,1058 583,1402 423,397 952,582 1534,582zm-450 -1534c-132,-132 -211,-265 -211,-450 0,-212 79,-344 211,-476 265,-265 662,-265 926,0 133,132 212,264 212,476 0,185 -79,318 -212,450 -264,291 -661,291 -926,0l0 0zm4578 -132l555 0c185,0 318,79 318,291 0,185 -133,317 -318,317l-555 0 0 -608zm423 -1323c185,0 317,132 317,344 0,185 -132,264 -317,264l-423 0 0 -608 423 0zm1244 873c264,-80 555,-397 555,-794 0,-556 -476,-952 -1270,-952l-2408 0 0 3730 2408 0c926,0 1535,-397 1535,-1058 0,-476 -397,-794 -820,-926l0 0zm3862 1984l1535 0 0 -3730 -3598 0 -53 873c0,661 0,1058 -80,1323 -53,211 -185,344 -396,344 -53,0 -133,0 -186,-53l0 1243c133,80 318,80 662,80 741,0 1058,-397 1270,-926 132,-397 132,-741 132,-1218l53 -449 661 0 0 2513 0 0 0 0zm3466 -2249c80,-344 265,-529 556,-529 265,0 450,185 450,529l-1006 0 0 0zm688 2381c715,0 1244,-132 1588,-396l0 -1138c-397,212 -794,344 -1270,344 -397,0 -873,-185 -1006,-476l2488 0 0 -318c0,-608 -212,-1138 -556,-1482 -397,-317 -794,-529 -1323,-529 -609,0 -1138,212 -1455,609 -397,344 -609,794 -609,1402 0,609 265,1058 662,1455 397,344 873,529 1481,529l0 0 0 0zm3863 -1455l794 0 0 1323 1535 0 0 -3730 -1535 0 0 1217 -794 0 0 -1217 -1534 0 0 3730 1534 0 0 -1323zm4657 0l794 0 0 1323 1534 0 0 -3730 -1534 0 0 1217 -794 0 0 -1217 -1614 0 0 3730 1614 0 0 -1323zm4868 -741c-211,0 -344,-132 -344,-264 0,-185 133,-318 344,-318l397 0 0 582 -397 0zm265 1006l132 0 0 1058 1535 0 0 -3730 -2143 0c-530,0 -926,79 -1191,344 -265,264 -397,608 -397,926 0,529 185,873 582,1058l-926 1402 1667 0 741 -1058 0 0 0 0zm-53631 6588l979 0 0 -1244 -3599 0 0 1244 1006 0 0 2540 1614 0 0 -2540 0 0 0 0zm3519 1482c-132,132 -265,185 -450,185 -212,0 -423,-132 -423,-397 0,-185 211,-318 476,-318 132,0 265,53 397,133l0 397 0 0zm1667 -80c-133,0 -186,-53 -186,-132l0 -1058c0,-477 -211,-794 -555,-1059 -318,-344 -794,-476 -1376,-476 -556,0 -1005,79 -1402,265l0 1137c264,-132 661,-264 1058,-264 529,0 741,185 741,582 -212,-132 -476,-185 -820,-185 -397,0 -715,53 -1059,264 -264,212 -397,529 -397,926 0,344 133,662 344,873 265,265 583,397 979,397 556,0 953,-185 1138,-529 132,265 529,529 1006,529 343,0 529,-132 740,-264l0 -1059c-79,53 -132,53 -211,53l0 0 0 0zm4074 -397l529 0c186,0 318,80 318,265 0,212 -132,344 -318,344l-529 0 0 -609zm397 -1323c185,0 318,133 318,318 0,212 -133,265 -318,265l-397 0 0 -583 397 0zm1270 874c265,-80 529,-424 529,-821 0,-529 -476,-979 -1270,-979l-2407 0 0 3784 2407 0c926,0 1456,-397 1456,-1058 0,-477 -318,-794 -715,-926zm3122 2116c397,0 794,-132 1191,-264l0 -1270c-265,132 -582,211 -847,211 -555,0 -952,-264 -952,-661 0,-476 397,-688 873,-688 264,0 608,79 873,132l0 -1243c-344,-133 -662,-212 -1138,-212 -661,0 -1323,265 -1720,873 -291,318 -344,662 -344,1138 0,397 53,794 344,1058 186,318 450,609 715,741 344,132 661,185 1005,185l0 0 0 0 0 0zm4128 -2672l1058 0 0 -1244 -3598 0 0 1244 1005 0 0 2540 1535 0 0 -2540zm3545 1482c-79,132 -212,185 -423,185 -265,0 -397,-132 -397,-397 0,-185 212,-318 476,-318 132,0 265,53 344,133l0 397zm1720 -80c-132,0 -185,-53 -185,-132l0 -1058c0,-477 -212,-794 -556,-1059 -317,-344 -794,-476 -1402,-476 -529,0 -1059,79 -1455,265l0 1137c344,-132 740,-264 1137,-264 477,0 741,185 741,582 -264,-132 -555,-185 -873,-185 -344,0 -661,53 -1005,264 -265,212 -477,529 -477,926 0,344 159,662 424,873 264,265 529,397 979,397 476,0 952,-185 1137,-529 80,265 530,529 926,529 344,0 609,-132 821,-264l0 -1059c-80,53 -133,53 -212,53l0 0 0 0zm2275 -185l847 0 0 1323 1535 0 0 -3784 -1535 0 0 1244 -847 0 0 -1244 -1534 0 0 3784 1534 0 0 -1323zm5054 1455c608,0 1138,-185 1534,-608 397,-318 609,-847 609,-1376 0,-609 -212,-1085 -609,-1402 -396,-397 -926,-609 -1534,-609 -609,0 -1138,212 -1535,609 -397,317 -582,793 -582,1402 0,529 185,1058 582,1376 397,423 926,608 1535,608zm-476 -1534c-133,-133 -186,-265 -186,-450 0,-212 53,-423 186,-476 291,-265 688,-265 952,0 132,53 185,264 185,476 0,185 -53,317 -185,450 -264,264 -661,264 -952,0l0 0zm4603 -133l530 0c211,0 344,80 344,265 0,212 -133,344 -344,344l-530 0 0 -609zm397 -1323c212,0 344,133 344,318 0,212 -132,265 -344,265l-397 0 0 -583 397 0zm1270 874c265,-80 529,-424 529,-821 0,-529 -449,-979 -1270,-979l-2381 0 0 3784 2381 0c953,0 1482,-397 1482,-1058 0,-477 -344,-794 -741,-926l0 0zm3863 1984l1535 0 0 -3784 -3651 0 0 926c0,583 0,1059 -80,1323 -53,212 -185,344 -397,344 -79,0 -132,0 -264,-79l0 1217c185,132 397,132 741,132 714,0 1058,-423 1243,-952 159,-397 159,-715 159,-1191l53 -476 661 0 0 2540 0 0 0 0zm3466 -2275c80,-318 212,-530 529,-530 265,0 477,212 477,530l-1006 0 0 0zm662 2407c741,0 1217,-132 1614,-397l0 -1137c-397,211 -794,344 -1270,344 -397,0 -873,-212 -1006,-477l2408 0 0 -317c0,-609 -132,-1138 -476,-1482 -397,-317 -794,-529 -1323,-529 -609,0 -1138,212 -1482,609 -397,317 -582,793 -582,1402 0,582 185,1058 661,1455 397,344 874,529 1456,529l0 0 0 0zm3863 -1455l820 0 0 1323 1534 0 0 -3784 -1534 0 0 1244 -820 0 0 -1244 -1535 0 0 3784 1535 0 0 -1323zm4603 0l873 0 0 1323 1535 0 0 -3784 -1535 0 0 1244 -873 0 0 -1244 -1534 0 0 3784 1534 0 0 -1323zm4948 -741c-212,0 -344,-132 -344,-264 0,-212 132,-344 344,-344l397 0 0 608 -397 0zm185 1006l212 0 0 1058 1535 0 0 -3784 -2144 0c-529,0 -926,133 -1190,397 -265,265 -397,582 -397,926 0,530 185,873 582,1059l-926 1402 1667 0 661 -1058 0 0z"/>
  </g>
 </g>
</svg>
