<?xml version="1.0" encoding="UTF-8"?>
<!DOCTYPE svg PUBLIC "-//W3C//DTD SVG 1.1//EN" "http://www.w3.org/Graphics/SVG/1.1/DTD/svg11.dtd">
<!-- Creator: CorelDRAW X7 -->
<svg xmlns="http://www.w3.org/2000/svg" xml:space="preserve" width="2399px" height="541px" version="1.1" shape-rendering="geometricPrecision" text-rendering="geometricPrecision" image-rendering="optimizeQuality" fill-rule="evenodd" clip-rule="evenodd"
viewBox="0 0 2399 541"
 xmlns:xlink="http://www.w3.org/1999/xlink">
 <g id="Слой_x0020_1">
  <metadata id="CorelCorpID_0Corel-Layer"/>
  <g id="_768270480">
   <path fill="#2B2A29" stroke="#FEFEFE" stroke-width="36.9216" stroke-linecap="round" stroke-linejoin="round" d="M293 66c8,0 15,5 15,13 0,7 -7,12 -15,12l-30 0 0 -25 30 0 0 0zm0 66c10,0 18,7 18,17 0,10 -5,16 -18,16l-30 0 0 -33 30 0 0 0zm13 80c20,0 37,-5 50,-15 15,-10 20,-22 20,-40 0,-15 -2,-25 -13,-35 -7,-10 -15,-15 -22,-15 5,-3 10,-8 15,-16 5,-5 7,-12 7,-22 0,-18 -5,-28 -17,-38 -13,-8 -28,-13 -46,-13l-98 0 0 194 104 0zm188 -60l0 60 53 0 0 -141 -53 0 -42 61 0 -61 -56 0 0 141 56 0 42 -60zm139 -35l63 0 0 -46 -121 0 0 141 58 0 0 -95zm156 100c23,0 43,-7 58,-22 15,-13 23,-33 23,-53 0,-23 -8,-40 -23,-53 -15,-15 -35,-23 -58,-23 -25,0 -43,8 -60,23 -16,13 -23,30 -23,53 0,20 7,40 23,53 17,15 35,22 60,22zm-18 -58c-5,-5 -7,-10 -7,-17 0,-8 2,-13 7,-18 8,-10 26,-10 36,0 2,5 5,10 5,18 0,7 0,12 -5,17 -10,11 -28,11 -36,0l0 0zm204 -42l41 0 0 -46 -136 0 0 46 37 0 0 95 58 0 0 -95zm131 100c23,0 43,-7 58,-22 15,-13 23,-33 23,-53 0,-23 -8,-40 -23,-53 -15,-15 -35,-23 -58,-23 -22,0 -42,8 -58,23 -15,13 -22,30 -22,53 0,20 7,40 22,53 16,15 36,22 58,22zm-17 -58c-5,-5 -8,-10 -8,-17 0,-8 3,-13 8,-18 10,-10 25,-10 35,0 5,5 8,10 8,18 0,7 -3,12 -8,17 -10,11 -25,11 -35,0l0 0zm173 -5l21 0c7,0 12,3 12,11 0,7 -5,12 -12,12l-21 0 0 -23zm16 -50c7,0 12,5 12,13 0,7 -5,10 -12,10l-16 0 0 -23 16 0zm47 33c10,-3 21,-15 21,-30 0,-21 -18,-36 -48,-36l-91 0 0 141 91 0c35,0 58,-15 58,-40 0,-18 -15,-30 -31,-35l0 0zm146 75l58 0 0 -141 -136 0 -2 33c0,25 0,40 -3,50 -2,8 -7,13 -15,13 -2,0 -5,0 -7,-2l0 47c5,3 12,3 25,3 28,0 40,-15 48,-35 5,-15 5,-28 5,-46l2 -17 25 0 0 95 0 0zm131 -85c3,-13 10,-20 21,-20 10,0 17,7 17,20l-38 0 0 0zm26 90c27,0 47,-5 60,-15l0 -43c-15,8 -30,13 -48,13 -15,0 -33,-7 -38,-18l94 0 0 -12c0,-23 -8,-43 -21,-56 -15,-12 -30,-20 -50,-20 -23,0 -43,8 -55,23 -15,13 -23,30 -23,53 0,23 10,40 25,55 15,13 33,20 56,20l0 0zm146 -55l30 0 0 50 58 0 0 -141 -58 0 0 46 -30 0 0 -46 -58 0 0 141 58 0 0 -50zm176 0l30 0 0 50 58 0 0 -141 -58 0 0 46 -30 0 0 -46 -61 0 0 141 61 0 0 -50zm184 -28c-8,0 -13,-5 -13,-10 0,-7 5,-12 13,-12l15 0 0 22 -15 0zm10 38l5 0 0 40 58 0 0 -141 -81 0c-20,0 -35,3 -45,13 -10,10 -15,23 -15,35 0,20 7,33 22,40l-35 53 63 0 28 -40 0 0zm-2027 249l37 0 0 -47 -136 0 0 47 38 0 0 96 61 0 0 -96 0 0zm133 56c-5,5 -10,7 -17,7 -8,0 -16,-5 -16,-15 0,-7 8,-12 18,-12 5,0 10,2 15,5l0 15zm63 -3c-5,0 -7,-2 -7,-5l0 -40c0,-18 -8,-30 -21,-40 -12,-13 -30,-18 -52,-18 -21,0 -38,3 -53,10l0 43c10,-5 25,-10 40,-10 20,0 28,7 28,22 -8,-5 -18,-7 -31,-7 -15,0 -27,2 -40,10 -10,8 -15,20 -15,35 0,13 5,25 13,33 10,10 22,15 37,15 21,0 36,-7 43,-20 5,10 20,20 38,20 13,0 20,-5 28,-10l0 -40c-3,2 -5,2 -8,2l0 0zm154 -15l20 0c7,0 12,3 12,10 0,8 -5,13 -12,13l-20 0 0 -23zm15 -50c7,0 12,5 12,12 0,8 -5,10 -12,10l-15 0 0 -22 15 0zm48 33c10,-3 20,-16 20,-31 0,-20 -18,-37 -48,-37l-91 0 0 143 91 0c35,0 55,-15 55,-40 0,-18 -12,-30 -27,-35zm118 80c15,0 30,-5 45,-10l0 -48c-10,5 -22,8 -32,8 -21,0 -36,-10 -36,-25 0,-18 15,-26 33,-26 10,0 23,3 33,5l0 -47c-13,-5 -25,-8 -43,-8 -25,0 -50,10 -65,33 -11,12 -13,25 -13,43 0,15 2,30 13,40 7,12 17,23 27,28 13,5 25,7 38,7l0 0 0 0zm156 -101l40 0 0 -47 -136 0 0 47 38 0 0 96 58 0 0 -96zm134 56c-3,5 -8,7 -16,7 -10,0 -15,-5 -15,-15 0,-7 8,-12 18,-12 5,0 10,2 13,5l0 15zm65 -3c-5,0 -7,-2 -7,-5l0 -40c0,-18 -8,-30 -21,-40 -12,-13 -30,-18 -53,-18 -20,0 -40,3 -55,10l0 43c13,-5 28,-10 43,-10 18,0 28,7 28,22 -10,-5 -21,-7 -33,-7 -13,0 -25,2 -38,10 -10,8 -18,20 -18,35 0,13 6,25 16,33 10,10 20,15 37,15 18,0 36,-7 43,-20 3,10 20,20 35,20 13,0 23,-5 31,-10l0 -40c-3,2 -5,2 -8,2l0 0zm86 -7l32 0 0 50 58 0 0 -143 -58 0 0 47 -32 0 0 -47 -58 0 0 143 58 0 0 -50zm191 55c23,0 43,-7 58,-23 15,-12 23,-32 23,-52 0,-23 -8,-41 -23,-53 -15,-15 -35,-23 -58,-23 -23,0 -43,8 -58,23 -15,12 -22,30 -22,53 0,20 7,40 22,52 15,16 35,23 58,23zm-18 -58c-5,-5 -7,-10 -7,-17 0,-8 2,-16 7,-18 11,-10 26,-10 36,0 5,2 7,10 7,18 0,7 -2,12 -7,17 -10,10 -25,10 -36,0l0 0zm174 -5l20 0c8,0 13,3 13,10 0,8 -5,13 -13,13l-20 0 0 -23zm15 -50c8,0 13,5 13,12 0,8 -5,10 -13,10l-15 0 0 -22 15 0zm48 33c10,-3 20,-16 20,-31 0,-20 -17,-37 -48,-37l-90 0 0 143 90 0c36,0 56,-15 56,-40 0,-18 -13,-30 -28,-35zm146 75l58 0 0 -143 -138 0 0 35c0,22 0,40 -3,50 -2,8 -7,13 -15,13 -3,0 -5,0 -10,-3l0 46c7,5 15,5 28,5 27,0 40,-16 47,-36 6,-15 6,-27 6,-45l2 -18 25 0 0 96 0 0zm131 -86c3,-12 8,-20 20,-20 10,0 18,8 18,20l-38 0 0 0zm25 91c28,0 46,-5 61,-15l0 -43c-15,8 -30,13 -48,13 -15,0 -33,-8 -38,-18l91 0 0 -12c0,-23 -5,-43 -18,-56 -15,-12 -30,-20 -50,-20 -23,0 -43,8 -56,23 -15,12 -22,30 -22,53 0,22 7,40 25,55 15,13 33,20 55,20l0 0zm146 -55l31 0 0 50 58 0 0 -143 -58 0 0 47 -31 0 0 -47 -58 0 0 143 58 0 0 -50zm174 0l33 0 0 50 58 0 0 -143 -58 0 0 47 -33 0 0 -47 -58 0 0 143 58 0 0 -50zm187 -28c-8,0 -13,-5 -13,-10 0,-8 5,-13 13,-13l15 0 0 23 -15 0zm7 38l8 0 0 40 58 0 0 -143 -81 0c-20,0 -35,5 -45,15 -10,10 -15,22 -15,35 0,20 7,33 22,40l-35 53 63 0 25 -40z"/>
   <path id="_1" fill="#2B2A29" fill-rule="nonzero" d="M293 66c8,0 15,5 15,13 0,7 -7,12 -15,12l-30 0 0 -25 30 0 0 0zm0 66c10,0 18,7 18,17 0,10 -5,16 -18,16l-30 0 0 -33 30 0 0 0zm13 80c20,0 37,-5 50,-15 15,-10 20,-22 20,-40 0,-15 -2,-25 -13,-35 -7,-10 -15,-15 -22,-15 5,-3 10,-8 15,-16 5,-5 7,-12 7,-22 0,-18 -5,-28 -17,-38 -13,-8 -28,-13 -46,-13l-98 0 0 194 104 0zm188 -60l0 60 53 0 0 -141 -53 0 -42 61 0 -61 -56 0 0 141 56 0 42 -60zm139 -35l63 0 0 -46 -121 0 0 141 58 0 0 -95zm156 100c23,0 43,-7 58,-22 15,-13 23,-33 23,-53 0,-23 -8,-40 -23,-53 -15,-15 -35,-23 -58,-23 -25,0 -43,8 -60,23 -16,13 -23,30 -23,53 0,20 7,40 23,53 17,15 35,22 60,22zm-18 -58c-5,-5 -7,-10 -7,-17 0,-8 2,-13 7,-18 8,-10 26,-10 36,0 2,5 5,10 5,18 0,7 0,12 -5,17 -10,11 -28,11 -36,0l0 0zm204 -42l41 0 0 -46 -136 0 0 46 37 0 0 95 58 0 0 -95zm131 100c23,0 43,-7 58,-22 15,-13 23,-33 23,-53 0,-23 -8,-40 -23,-53 -15,-15 -35,-23 -58,-23 -22,0 -42,8 -58,23 -15,13 -22,30 -22,53 0,20 7,40 22,53 16,15 36,22 58,22zm-17 -58c-5,-5 -8,-10 -8,-17 0,-8 3,-13 8,-18 10,-10 25,-10 35,0 5,5 8,10 8,18 0,7 -3,12 -8,17 -10,11 -25,11 -35,0l0 0zm173 -5l21 0c7,0 12,3 12,11 0,7 -5,12 -12,12l-21 0 0 -23zm16 -50c7,0 12,5 12,13 0,7 -5,10 -12,10l-16 0 0 -23 16 0zm47 33c10,-3 21,-15 21,-30 0,-21 -18,-36 -48,-36l-91 0 0 141 91 0c35,0 58,-15 58,-40 0,-18 -15,-30 -31,-35l0 0zm146 75l58 0 0 -141 -136 0 -2 33c0,25 0,40 -3,50 -2,8 -7,13 -15,13 -2,0 -5,0 -7,-2l0 47c5,3 12,3 25,3 28,0 40,-15 48,-35 5,-15 5,-28 5,-46l2 -17 25 0 0 95 0 0zm131 -85c3,-13 10,-20 21,-20 10,0 17,7 17,20l-38 0 0 0zm26 90c27,0 47,-5 60,-15l0 -43c-15,8 -30,13 -48,13 -15,0 -33,-7 -38,-18l94 0 0 -12c0,-23 -8,-43 -21,-56 -15,-12 -30,-20 -50,-20 -23,0 -43,8 -55,23 -15,13 -23,30 -23,53 0,23 10,40 25,55 15,13 33,20 56,20l0 0zm146 -55l30 0 0 50 58 0 0 -141 -58 0 0 46 -30 0 0 -46 -58 0 0 141 58 0 0 -50zm176 0l30 0 0 50 58 0 0 -141 -58 0 0 46 -30 0 0 -46 -61 0 0 141 61 0 0 -50zm184 -28c-8,0 -13,-5 -13,-10 0,-7 5,-12 13,-12l15 0 0 22 -15 0zm10 38l5 0 0 40 58 0 0 -141 -81 0c-20,0 -35,3 -45,13 -10,10 -15,23 -15,35 0,20 7,33 22,40l-35 53 63 0 28 -40 0 0zm-2027 249l37 0 0 -47 -136 0 0 47 38 0 0 96 61 0 0 -96 0 0zm133 56c-5,5 -10,7 -17,7 -8,0 -16,-5 -16,-15 0,-7 8,-12 18,-12 5,0 10,2 15,5l0 15zm63 -3c-5,0 -7,-2 -7,-5l0 -40c0,-18 -8,-30 -21,-40 -12,-13 -30,-18 -52,-18 -21,0 -38,3 -53,10l0 43c10,-5 25,-10 40,-10 20,0 28,7 28,22 -8,-5 -18,-7 -31,-7 -15,0 -27,2 -40,10 -10,8 -15,20 -15,35 0,13 5,25 13,33 10,10 22,15 37,15 21,0 36,-7 43,-20 5,10 20,20 38,20 13,0 20,-5 28,-10l0 -40c-3,2 -5,2 -8,2l0 0zm154 -15l20 0c7,0 12,3 12,10 0,8 -5,13 -12,13l-20 0 0 -23zm15 -50c7,0 12,5 12,12 0,8 -5,10 -12,10l-15 0 0 -22 15 0zm48 33c10,-3 20,-16 20,-31 0,-20 -18,-37 -48,-37l-91 0 0 143 91 0c35,0 55,-15 55,-40 0,-18 -12,-30 -27,-35zm118 80c15,0 30,-5 45,-10l0 -48c-10,5 -22,8 -32,8 -21,0 -36,-10 -36,-25 0,-18 15,-26 33,-26 10,0 23,3 33,5l0 -47c-13,-5 -25,-8 -43,-8 -25,0 -50,10 -65,33 -11,12 -13,25 -13,43 0,15 2,30 13,40 7,12 17,23 27,28 13,5 25,7 38,7l0 0 0 0zm156 -101l40 0 0 -47 -136 0 0 47 38 0 0 96 58 0 0 -96zm134 56c-3,5 -8,7 -16,7 -10,0 -15,-5 -15,-15 0,-7 8,-12 18,-12 5,0 10,2 13,5l0 15zm65 -3c-5,0 -7,-2 -7,-5l0 -40c0,-18 -8,-30 -21,-40 -12,-13 -30,-18 -53,-18 -20,0 -40,3 -55,10l0 43c13,-5 28,-10 43,-10 18,0 28,7 28,22 -10,-5 -21,-7 -33,-7 -13,0 -25,2 -38,10 -10,8 -18,20 -18,35 0,13 6,25 16,33 10,10 20,15 37,15 18,0 36,-7 43,-20 3,10 20,20 35,20 13,0 23,-5 31,-10l0 -40c-3,2 -5,2 -8,2l0 0zm86 -7l32 0 0 50 58 0 0 -143 -58 0 0 47 -32 0 0 -47 -58 0 0 143 58 0 0 -50zm191 55c23,0 43,-7 58,-23 15,-12 23,-32 23,-52 0,-23 -8,-41 -23,-53 -15,-15 -35,-23 -58,-23 -23,0 -43,8 -58,23 -15,12 -22,30 -22,53 0,20 7,40 22,52 15,16 35,23 58,23zm-18 -58c-5,-5 -7,-10 -7,-17 0,-8 2,-16 7,-18 11,-10 26,-10 36,0 5,2 7,10 7,18 0,7 -2,12 -7,17 -10,10 -25,10 -36,0l0 0zm174 -5l20 0c8,0 13,3 13,10 0,8 -5,13 -13,13l-20 0 0 -23zm15 -50c8,0 13,5 13,12 0,8 -5,10 -13,10l-15 0 0 -22 15 0zm48 33c10,-3 20,-16 20,-31 0,-20 -17,-37 -48,-37l-90 0 0 143 90 0c36,0 56,-15 56,-40 0,-18 -13,-30 -28,-35zm146 75l58 0 0 -143 -138 0 0 35c0,22 0,40 -3,50 -2,8 -7,13 -15,13 -3,0 -5,0 -10,-3l0 46c7,5 15,5 28,5 27,0 40,-16 47,-36 6,-15 6,-27 6,-45l2 -18 25 0 0 96 0 0zm131 -86c3,-12 8,-20 20,-20 10,0 18,8 18,20l-38 0 0 0zm25 91c28,0 46,-5 61,-15l0 -43c-15,8 -30,13 -48,13 -15,0 -33,-8 -38,-18l91 0 0 -12c0,-23 -5,-43 -18,-56 -15,-12 -30,-20 -50,-20 -23,0 -43,8 -56,23 -15,12 -22,30 -22,53 0,22 7,40 25,55 15,13 33,20 55,20l0 0zm146 -55l31 0 0 50 58 0 0 -143 -58 0 0 47 -31 0 0 -47 -58 0 0 143 58 0 0 -50zm174 0l33 0 0 50 58 0 0 -143 -58 0 0 47 -33 0 0 -47 -58 0 0 143 58 0 0 -50zm187 -28c-8,0 -13,-5 -13,-10 0,-8 5,-13 13,-13l15 0 0 23 -15 0zm7 38l8 0 0 40 58 0 0 -143 -81 0c-20,0 -35,5 -45,15 -10,10 -15,22 -15,35 0,20 7,33 22,40l-35 53 63 0 25 -40z"/>
  </g>
 </g>
</svg>
