<?xml version="1.0" encoding="UTF-8"?>
<!DOCTYPE svg PUBLIC "-//W3C//DTD SVG 1.1//EN" "http://www.w3.org/Graphics/SVG/1.1/DTD/svg11.dtd">
<!-- Creator: CorelDRAW X7 -->
<svg xmlns="http://www.w3.org/2000/svg" xml:space="preserve" width="2480px" height="3508px" version="1.1" shape-rendering="geometricPrecision" text-rendering="geometricPrecision" image-rendering="optimizeQuality" fill-rule="evenodd" clip-rule="evenodd"
viewBox="0 0 2480 3507"
 xmlns:xlink="http://www.w3.org/1999/xlink">
 <g id="Слой_x0020_1">
  <metadata id="CorelCorpID_0Corel-Layer"/>
  <g>
   <path fill="none" fill-rule="nonzero" stroke="#FEFEFE" stroke-width="11.8095" stroke-linecap="round" stroke-linejoin="round" d="M841 1002c5,0 8,3 8,7 0,4 -3,7 -8,7l-9 0 0 -14 9 0zm1 33c9,0 16,-3 21,-7 6,-5 8,-11 8,-18 0,-7 -2,-13 -7,-17 -6,-5 -13,-7 -22,-7l-10 0 0 -6 33 0 0 -18 -56 0 0 73 33 0zm59 -55l8 0c5,0 8,3 8,7 0,3 -3,6 -8,6l-8 0 0 -13zm-22 55l22 0 0 -26 11 0c9,0 15,-2 20,-6 5,-5 8,-10 8,-17 0,-7 -3,-13 -8,-17 -5,-5 -11,-7 -20,-7l-33 0 0 73zm81 1c4,0 7,-1 12,-3 5,-2 10,-7 14,-15l26 -56 -24 0 -11 28 -12 -28 -25 0 26 49c-2,4 -5,6 -10,6 -4,0 -7,-1 -10,-3l0 19c4,2 8,3 14,3zm79 -33l24 32 27 0 -30 -39 25 -34 -26 0 -20 27 0 -27 -23 0 0 73 23 0 0 -32zm91 -7l-35 0 0 19 35 0 0 -19zm23 -15l0 54 22 0 0 -54 21 0 0 -19 -64 0 0 19 21 0zm108 34l-35 0 0 -10 27 0 0 -17 -27 0 0 -7 34 0 0 -19 -57 0 0 73 58 0 0 -20zm28 -19l-27 39 25 0 15 -22 14 22 26 0 -27 -39 23 -34 -25 0 -11 17 -10 -17 -26 0 23 34zm122 40c8,0 14,-1 19,-4l0 -21c-5,3 -11,5 -18,5 -6,0 -10,-2 -14,-5 -4,-3 -6,-7 -6,-13 0,-5 2,-9 6,-12 3,-4 8,-5 13,-5 6,0 12,1 18,5l0 -22c-5,-2 -11,-3 -18,-3 -12,0 -22,3 -30,10 -8,7 -12,16 -12,27 0,11 4,21 12,28 8,7 18,10 30,10l0 0zm86 -21l-35 0 0 -10 27 0 0 -17 -27 0 0 -7 35 0 0 -19 -57 0 0 73 57 0 0 -20zm31 -35l8 0c4,0 8,3 8,7 0,3 -4,6 -8,6l-8 0 0 -13zm-22 55l22 0 0 -26 11 0c8,0 15,-2 20,-6 5,-5 7,-10 7,-17 0,-7 -2,-13 -7,-17 -5,-5 -12,-7 -20,-7l-33 0 0 73zm101 -56c3,0 5,2 5,5 0,3 -2,5 -5,5l-12 0 0 -10 12 0zm0 26c4,0 7,2 7,6 0,3 -3,6 -7,6l-12 0 0 -12 12 0zm4 30c8,0 15,-2 20,-6 4,-4 7,-9 7,-15 0,-6 -2,-10 -5,-13 -3,-4 -6,-6 -9,-7 2,0 4,-2 6,-5 2,-2 3,-5 3,-8 0,-6 -2,-11 -7,-14 -4,-3 -10,-5 -16,-5l-37 0 0 73 38 0zm57 -73l-22 0 0 73 22 0 0 -73zm51 74c8,0 14,-1 19,-4l0 -21c-5,3 -10,5 -18,5 -5,0 -10,-2 -14,-5 -4,-3 -6,-7 -6,-13 0,-5 2,-9 6,-12 3,-4 8,-5 14,-5 5,0 11,1 17,5l0 -22c-5,-2 -11,-3 -18,-3 -12,0 -22,3 -30,10 -7,7 -11,16 -11,27 0,11 4,21 11,28 8,7 18,10 30,10l0 0z"/>
   <path id="1" fill="#2B2A29" fill-rule="nonzero" d="M841 1002c5,0 8,3 8,7 0,4 -3,7 -8,7l-9 0 0 -14 9 0zm1 33c9,0 16,-3 21,-7 6,-5 8,-11 8,-18 0,-7 -2,-13 -7,-17 -6,-5 -13,-7 -22,-7l-10 0 0 -6 33 0 0 -18 -56 0 0 73 33 0zm59 -55l8 0c5,0 8,3 8,7 0,3 -3,6 -8,6l-8 0 0 -13zm-22 55l22 0 0 -26 11 0c9,0 15,-2 20,-6 5,-5 8,-10 8,-17 0,-7 -3,-13 -8,-17 -5,-5 -11,-7 -20,-7l-33 0 0 73zm81 1c4,0 7,-1 12,-3 5,-2 10,-7 14,-15l26 -56 -24 0 -11 28 -12 -28 -25 0 26 49c-2,4 -5,6 -10,6 -4,0 -7,-1 -10,-3l0 19c4,2 8,3 14,3zm79 -33l24 32 27 0 -30 -39 25 -34 -26 0 -20 27 0 -27 -23 0 0 73 23 0 0 -32zm91 -7l-35 0 0 19 35 0 0 -19zm23 -15l0 54 22 0 0 -54 21 0 0 -19 -64 0 0 19 21 0zm108 34l-35 0 0 -10 27 0 0 -17 -27 0 0 -7 34 0 0 -19 -57 0 0 73 58 0 0 -20zm28 -19l-27 39 25 0 15 -22 14 22 26 0 -27 -39 23 -34 -25 0 -11 17 -10 -17 -26 0 23 34zm122 40c8,0 14,-1 19,-4l0 -21c-5,3 -11,5 -18,5 -6,0 -10,-2 -14,-5 -4,-3 -6,-7 -6,-13 0,-5 2,-9 6,-12 3,-4 8,-5 13,-5 6,0 12,1 18,5l0 -22c-5,-2 -11,-3 -18,-3 -12,0 -22,3 -30,10 -8,7 -12,16 -12,27 0,11 4,21 12,28 8,7 18,10 30,10l0 0zm86 -21l-35 0 0 -10 27 0 0 -17 -27 0 0 -7 35 0 0 -19 -57 0 0 73 57 0 0 -20zm31 -35l8 0c4,0 8,3 8,7 0,3 -4,6 -8,6l-8 0 0 -13zm-22 55l22 0 0 -26 11 0c8,0 15,-2 20,-6 5,-5 7,-10 7,-17 0,-7 -2,-13 -7,-17 -5,-5 -12,-7 -20,-7l-33 0 0 73zm101 -56c3,0 5,2 5,5 0,3 -2,5 -5,5l-12 0 0 -10 12 0zm0 26c4,0 7,2 7,6 0,3 -3,6 -7,6l-12 0 0 -12 12 0zm4 30c8,0 15,-2 20,-6 4,-4 7,-9 7,-15 0,-6 -2,-10 -5,-13 -3,-4 -6,-6 -9,-7 2,0 4,-2 6,-5 2,-2 3,-5 3,-8 0,-6 -2,-11 -7,-14 -4,-3 -10,-5 -16,-5l-37 0 0 73 38 0zm57 -73l-22 0 0 73 22 0 0 -73zm51 74c8,0 14,-1 19,-4l0 -21c-5,3 -10,5 -18,5 -5,0 -10,-2 -14,-5 -4,-3 -6,-7 -6,-13 0,-5 2,-9 6,-12 3,-4 8,-5 14,-5 5,0 11,1 17,5l0 -22c-5,-2 -11,-3 -18,-3 -12,0 -22,3 -30,10 -7,7 -11,16 -11,27 0,11 4,21 11,28 8,7 18,10 30,10l0 0z"/>
  </g>
  <g>
   <path fill="none" fill-rule="nonzero" stroke="#1B4E9B" stroke-width="11.8095" stroke-linecap="round" stroke-linejoin="round" d="M724 1387l33 0 0 -19 -55 0 0 73 22 0 0 -54zm47 21c0,-5 3,-7 7,-7 4,0 7,2 7,7l-14 0 0 0zm9 34c10,0 17,-2 22,-5l0 -16c-5,3 -11,4 -17,4 -6,0 -12,-2 -14,-6l34 0 0 -5c0,-9 -3,-15 -8,-20 -4,-6 -11,-8 -18,-8 -9,0 -16,3 -21,8 -5,5 -8,12 -8,20 0,9 3,16 9,21 6,5 13,7 21,7zm54 -34c2,-3 4,-4 8,-4 6,0 9,5 9,10 0,6 -3,10 -9,10 -4,0 -6,-1 -8,-4l0 -12zm0 27c4,5 8,7 15,7 7,0 12,-3 17,-8 4,-5 7,-12 7,-20 0,-8 -3,-15 -7,-20 -5,-5 -10,-8 -17,-8 -7,0 -11,2 -15,7l0 -6 -21 0 0 74 21 0 0 -26zm109 -11l-8 0 0 -37 -22 0 0 37 -12 0 0 -37 -21 0 0 54 42 0 0 11 21 0 0 -28zm37 1c-1,2 -3,3 -6,3 -3,0 -6,-2 -6,-5 0,-3 3,-5 7,-5 2,0 3,1 5,2l0 5zm24 0c-2,0 -3,-1 -3,-3l0 -14c0,-7 -2,-12 -7,-16 -5,-4 -12,-6 -20,-6 -8,0 -15,1 -20,4l0 16c4,-3 9,-4 15,-4 7,0 11,3 11,8 -4,-2 -8,-3 -12,-3 -6,0 -10,2 -15,5 -4,2 -6,7 -6,12 0,5 2,10 5,13 4,3 8,5 14,5 7,0 13,-3 16,-7 2,4 8,7 14,7 5,0 8,-1 11,-3l0 -15c-1,1 -2,1 -3,1zm33 -38l-22 0 0 54 22 0 0 -54zm-23 -4c6,0 10,-4 10,-10 0,-6 -4,-10 -10,-10 -3,0 -5,1 -7,3 -2,2 -3,4 -3,7 0,6 4,10 10,10zm14 -10c0,6 4,10 10,10 6,0 10,-4 10,-10 0,-3 -1,-5 -3,-7 -2,-2 -4,-3 -7,-3 -6,0 -10,4 -10,10zm40 46l8 0c3,0 4,1 4,4 0,3 -1,4 -4,4l-8 0 0 -8zm6 -19c3,0 4,2 4,5 0,2 -1,3 -4,3l-6 0 0 -8 6 0zm18 12c4,-1 7,-5 7,-11 0,-7 -6,-14 -18,-14l-33 0 0 54 34 0c13,0 21,-6 21,-15 0,-7 -6,-12 -11,-14zm44 30c6,0 12,-1 17,-3l0 -18c-4,2 -8,3 -12,3 -8,0 -13,-4 -13,-10 0,-6 5,-9 12,-9 4,0 8,0 12,2l0 -18c-4,-2 -9,-3 -15,-3 -10,0 -20,4 -26,12 -3,5 -4,10 -4,16 0,6 1,11 4,16 3,4 7,7 11,9 5,2 10,3 14,3l0 0zm47 -27l5 0c3,0 6,2 6,5 0,4 -3,6 -6,6l-5 0 0 -11zm0 -28l-21 0 0 54 30 0c8,0 13,-2 17,-6 4,-4 6,-9 6,-14 0,-6 -2,-11 -7,-15 -4,-3 -10,-5 -17,-5l-8 0 0 -14zm61 32l15 22 27 0 -23 -30 19 -24 -24 0 -14 19 0 -19 -22 0 0 54 22 0 0 -22zm74 6c-1,2 -3,3 -5,3 -4,0 -6,-2 -6,-5 0,-3 2,-5 6,-5 2,0 4,1 5,2l0 5zm24 0c-2,0 -2,-1 -2,-3l0 -14c0,-7 -3,-12 -8,-16 -5,-4 -11,-6 -19,-6 -8,0 -15,1 -21,4l0 16c5,-3 10,-4 15,-4 8,0 11,3 11,8 -3,-2 -7,-3 -12,-3 -5,0 -10,2 -14,5 -4,2 -6,7 -6,12 0,5 1,10 5,13 3,3 8,5 14,5 7,0 13,-3 16,-7 1,4 7,7 13,7 5,0 9,-1 11,-3l0 -15c-1,1 -2,1 -3,1zm63 0c-6,0 -10,-4 -10,-13 3,-2 7,-4 10,-4 5,0 8,3 8,8 0,5 -3,9 -8,9zm6 -33c-6,0 -13,3 -17,7 1,-4 3,-7 6,-9 3,-1 6,-2 9,-3 2,0 7,-1 9,-1 3,-1 8,-1 9,-1l0 -19c-9,2 -15,3 -19,4 -12,3 -20,7 -25,13 -5,6 -8,14 -8,25 0,10 3,18 8,25 5,6 12,9 22,9 8,0 15,-2 21,-8 5,-5 8,-11 8,-19 0,-14 -9,-23 -23,-23zm52 16c1,-3 4,-4 8,-4 5,0 9,5 9,10 0,6 -4,10 -9,10 -4,0 -7,-1 -8,-4l0 -12zm0 27c3,5 8,7 14,7 7,0 13,-3 17,-8 5,-5 7,-12 7,-20 0,-8 -2,-15 -7,-20 -4,-5 -10,-8 -17,-8 -6,0 -11,2 -14,7l0 -6 -22 0 0 74 22 0 0 -26zm55 27c12,0 19,-5 23,-16l23 -59 -22 0 -9 31 -9 -31 -23 0 22 52c-2,4 -4,5 -8,5 -4,0 -7,-1 -9,-3l0 19c3,1 7,2 12,2zm73 -43l15 22 27 0 -23 -30 20 -24 -25 0 -14 19 0 -19 -22 0 0 54 22 0 0 -22zm57 -34c7,0 13,-6 13,-12 0,-4 -2,-7 -4,-9 -2,-2 -5,-4 -9,-4 -3,0 -6,2 -8,4 -3,2 -4,5 -4,9 0,3 1,6 4,8 2,3 5,4 8,4zm11 2l-22 0 0 54 22 0 0 -54zm32 32l7 0c3,0 5,1 5,4 0,3 -2,4 -5,4l-7 0 0 -8zm6 -19c2,0 4,2 4,5 0,2 -2,3 -4,3l-6 0 0 -8 6 0zm17 12c4,-1 8,-5 8,-11 0,-7 -7,-14 -18,-14l-34 0 0 54 34 0c14,0 21,-6 21,-15 0,-7 -5,-12 -11,-14zm40 7l16 22 26 0 -22 -30 19 -24 -25 0 -14 19 0 -19 -22 0 0 54 22 0 0 -22zm75 6c-1,2 -3,3 -6,3 -3,0 -6,-2 -6,-5 0,-3 3,-5 7,-5 2,0 3,1 5,2l0 5zm24 0c-2,0 -3,-1 -3,-3l0 -14c0,-7 -2,-12 -7,-16 -5,-4 -12,-6 -20,-6 -8,0 -15,1 -20,4l0 16c4,-3 9,-4 15,-4 7,0 11,3 11,8 -4,-2 -8,-3 -12,-3 -6,0 -10,2 -15,5 -4,2 -6,7 -6,12 0,5 2,10 5,13 4,3 8,5 14,5 7,0 13,-3 16,-7 2,4 8,7 14,7 5,0 8,-1 11,-3l0 -15c-1,1 -2,1 -3,1z"/>
   <path id="1" fill="#FEFEFE" fill-rule="nonzero" d="M724 1387l33 0 0 -19 -55 0 0 73 22 0 0 -54zm47 21c0,-5 3,-7 7,-7 4,0 7,2 7,7l-14 0 0 0zm9 34c10,0 17,-2 22,-5l0 -16c-5,3 -11,4 -17,4 -6,0 -12,-2 -14,-6l34 0 0 -5c0,-9 -3,-15 -8,-20 -4,-6 -11,-8 -18,-8 -9,0 -16,3 -21,8 -5,5 -8,12 -8,20 0,9 3,16 9,21 6,5 13,7 21,7zm54 -34c2,-3 4,-4 8,-4 6,0 9,5 9,10 0,6 -3,10 -9,10 -4,0 -6,-1 -8,-4l0 -12zm0 27c4,5 8,7 15,7 7,0 12,-3 17,-8 4,-5 7,-12 7,-20 0,-8 -3,-15 -7,-20 -5,-5 -10,-8 -17,-8 -7,0 -11,2 -15,7l0 -6 -21 0 0 74 21 0 0 -26zm109 -11l-8 0 0 -37 -22 0 0 37 -12 0 0 -37 -21 0 0 54 42 0 0 11 21 0 0 -28zm37 1c-1,2 -3,3 -6,3 -3,0 -6,-2 -6,-5 0,-3 3,-5 7,-5 2,0 3,1 5,2l0 5zm24 0c-2,0 -3,-1 -3,-3l0 -14c0,-7 -2,-12 -7,-16 -5,-4 -12,-6 -20,-6 -8,0 -15,1 -20,4l0 16c4,-3 9,-4 15,-4 7,0 11,3 11,8 -4,-2 -8,-3 -12,-3 -6,0 -10,2 -15,5 -4,2 -6,7 -6,12 0,5 2,10 5,13 4,3 8,5 14,5 7,0 13,-3 16,-7 2,4 8,7 14,7 5,0 8,-1 11,-3l0 -15c-1,1 -2,1 -3,1zm33 -38l-22 0 0 54 22 0 0 -54zm-23 -4c6,0 10,-4 10,-10 0,-6 -4,-10 -10,-10 -3,0 -5,1 -7,3 -2,2 -3,4 -3,7 0,6 4,10 10,10zm14 -10c0,6 4,10 10,10 6,0 10,-4 10,-10 0,-3 -1,-5 -3,-7 -2,-2 -4,-3 -7,-3 -6,0 -10,4 -10,10zm40 46l8 0c3,0 4,1 4,4 0,3 -1,4 -4,4l-8 0 0 -8zm6 -19c3,0 4,2 4,5 0,2 -1,3 -4,3l-6 0 0 -8 6 0zm18 12c4,-1 7,-5 7,-11 0,-7 -6,-14 -18,-14l-33 0 0 54 34 0c13,0 21,-6 21,-15 0,-7 -6,-12 -11,-14zm44 30c6,0 12,-1 17,-3l0 -18c-4,2 -8,3 -12,3 -8,0 -13,-4 -13,-10 0,-6 5,-9 12,-9 4,0 8,0 12,2l0 -18c-4,-2 -9,-3 -15,-3 -10,0 -20,4 -26,12 -3,5 -4,10 -4,16 0,6 1,11 4,16 3,4 7,7 11,9 5,2 10,3 14,3l0 0zm47 -27l5 0c3,0 6,2 6,5 0,4 -3,6 -6,6l-5 0 0 -11zm0 -28l-21 0 0 54 30 0c8,0 13,-2 17,-6 4,-4 6,-9 6,-14 0,-6 -2,-11 -7,-15 -4,-3 -10,-5 -17,-5l-8 0 0 -14zm61 32l15 22 27 0 -23 -30 19 -24 -24 0 -14 19 0 -19 -22 0 0 54 22 0 0 -22zm74 6c-1,2 -3,3 -5,3 -4,0 -6,-2 -6,-5 0,-3 2,-5 6,-5 2,0 4,1 5,2l0 5zm24 0c-2,0 -2,-1 -2,-3l0 -14c0,-7 -3,-12 -8,-16 -5,-4 -11,-6 -19,-6 -8,0 -15,1 -21,4l0 16c5,-3 10,-4 15,-4 8,0 11,3 11,8 -3,-2 -7,-3 -12,-3 -5,0 -10,2 -14,5 -4,2 -6,7 -6,12 0,5 1,10 5,13 3,3 8,5 14,5 7,0 13,-3 16,-7 1,4 7,7 13,7 5,0 9,-1 11,-3l0 -15c-1,1 -2,1 -3,1zm63 0c-6,0 -10,-4 -10,-13 3,-2 7,-4 10,-4 5,0 8,3 8,8 0,5 -3,9 -8,9zm6 -33c-6,0 -13,3 -17,7 1,-4 3,-7 6,-9 3,-1 6,-2 9,-3 2,0 7,-1 9,-1 3,-1 8,-1 9,-1l0 -19c-9,2 -15,3 -19,4 -12,3 -20,7 -25,13 -5,6 -8,14 -8,25 0,10 3,18 8,25 5,6 12,9 22,9 8,0 15,-2 21,-8 5,-5 8,-11 8,-19 0,-14 -9,-23 -23,-23zm52 16c1,-3 4,-4 8,-4 5,0 9,5 9,10 0,6 -4,10 -9,10 -4,0 -7,-1 -8,-4l0 -12zm0 27c3,5 8,7 14,7 7,0 13,-3 17,-8 5,-5 7,-12 7,-20 0,-8 -2,-15 -7,-20 -4,-5 -10,-8 -17,-8 -6,0 -11,2 -14,7l0 -6 -22 0 0 74 22 0 0 -26zm55 27c12,0 19,-5 23,-16l23 -59 -22 0 -9 31 -9 -31 -23 0 22 52c-2,4 -4,5 -8,5 -4,0 -7,-1 -9,-3l0 19c3,1 7,2 12,2zm73 -43l15 22 27 0 -23 -30 20 -24 -25 0 -14 19 0 -19 -22 0 0 54 22 0 0 -22zm57 -34c7,0 13,-6 13,-12 0,-4 -2,-7 -4,-9 -2,-2 -5,-4 -9,-4 -3,0 -6,2 -8,4 -3,2 -4,5 -4,9 0,3 1,6 4,8 2,3 5,4 8,4zm11 2l-22 0 0 54 22 0 0 -54zm32 32l7 0c3,0 5,1 5,4 0,3 -2,4 -5,4l-7 0 0 -8zm6 -19c2,0 4,2 4,5 0,2 -2,3 -4,3l-6 0 0 -8 6 0zm17 12c4,-1 8,-5 8,-11 0,-7 -7,-14 -18,-14l-34 0 0 54 34 0c14,0 21,-6 21,-15 0,-7 -5,-12 -11,-14zm40 7l16 22 26 0 -22 -30 19 -24 -25 0 -14 19 0 -19 -22 0 0 54 22 0 0 -22zm75 6c-1,2 -3,3 -6,3 -3,0 -6,-2 -6,-5 0,-3 3,-5 7,-5 2,0 3,1 5,2l0 5zm24 0c-2,0 -3,-1 -3,-3l0 -14c0,-7 -2,-12 -7,-16 -5,-4 -12,-6 -20,-6 -8,0 -15,1 -20,4l0 16c4,-3 9,-4 15,-4 7,0 11,3 11,8 -4,-2 -8,-3 -12,-3 -6,0 -10,2 -15,5 -4,2 -6,7 -6,12 0,5 2,10 5,13 4,3 8,5 14,5 7,0 13,-3 16,-7 2,4 8,7 14,7 5,0 8,-1 11,-3l0 -15c-1,1 -2,1 -3,1z"/>
  </g>
  <g>
   <path fill="none" fill-rule="nonzero" stroke="#FEFEFE" stroke-width="11.8095" stroke-linecap="round" stroke-linejoin="round" d="M930 1113c3,0 5,2 5,5 0,2 -2,5 -5,5l-11 0 0 -10 11 0zm1 25c3,0 6,3 6,6 0,4 -2,6 -6,6l-12 0 0 -12 12 0zm4 30c8,0 14,-2 19,-6 5,-4 8,-9 8,-15 0,-5 -2,-10 -5,-13 -3,-3 -6,-6 -9,-6 2,-1 4,-3 6,-5 1,-3 2,-6 2,-9 0,-6 -2,-11 -6,-14 -4,-3 -10,-5 -17,-5l-36 0 0 73 38 0zm70 -23l0 23 21 0 0 -53 -21 0 -16 22 0 -22 -20 0 0 53 20 0 16 -23zm53 -13l23 0 0 -17 -45 0 0 53 22 0 0 -36zm57 37c9,0 16,-2 22,-8 6,-5 9,-12 9,-20 0,-8 -3,-15 -9,-20 -6,-5 -13,-8 -22,-8 -8,0 -16,3 -22,8 -5,5 -8,12 -8,20 0,8 3,15 8,20 6,6 14,8 22,8zm-6 -21c-2,-2 -3,-4 -3,-7 0,-3 1,-5 3,-7 3,-3 9,-3 13,0 2,2 3,4 3,7 0,3 -1,5 -3,7 -3,4 -10,4 -13,0l0 0zm77 -16l14 0 0 -17 -50 0 0 17 14 0 0 36 22 0 0 -36zm48 37c9,0 17,-2 22,-8 6,-5 9,-12 9,-20 0,-8 -3,-15 -9,-20 -5,-5 -13,-8 -22,-8 -8,0 -16,3 -22,8 -5,5 -8,12 -8,20 0,8 3,15 8,20 6,6 14,8 22,8zm-6 -21c-2,-2 -3,-4 -3,-7 0,-3 1,-5 3,-7 3,-3 9,-3 13,0 2,2 3,4 3,7 0,3 -1,5 -3,7 -3,4 -10,4 -13,0l0 0zm65 -2l7 0c3,0 5,1 5,4 0,3 -2,4 -5,4l-7 0 0 -8zm5 -18c3,0 5,1 5,4 0,2 -2,4 -5,4l-5 0 0 -8 5 0zm18 11c4,-1 8,-5 8,-10 0,-8 -7,-14 -18,-14l-34 0 0 53 34 0c13,0 21,-6 21,-15 0,-7 -5,-12 -11,-14zm55 29l21 0 0 -53 -51 0 0 12c0,9 0,15 -1,19 -1,3 -3,5 -6,5 -1,0 -2,0 -3,-1l0 17c2,1 5,2 10,2 10,0 15,-6 18,-13 1,-6 2,-11 2,-17l0 -7 10 0 0 36zm49 -32c1,-5 3,-8 7,-8 4,0 7,3 7,8l-14 0 0 0zm9 33c10,0 18,-1 22,-5l0 -16c-5,3 -10,4 -17,4 -6,0 -12,-2 -14,-6l34 0 0 -5c0,-9 -2,-15 -7,-20 -5,-5 -11,-8 -19,-8 -8,0 -15,3 -21,8 -5,6 -7,12 -7,20 0,9 2,16 8,21 6,5 13,7 21,7zm55 -20l11 0 0 19 22 0 0 -53 -22 0 0 17 -11 0 0 -17 -22 0 0 53 22 0 0 -19zm65 0l12 0 0 19 22 0 0 -53 -22 0 0 17 -12 0 0 -17 -21 0 0 53 21 0 0 -19zm70 -10c-3,0 -5,-2 -5,-4 0,-3 2,-4 5,-4l5 0 0 8 -5 0zm3 13l2 0 0 16 22 0 0 -53 -30 0c-8,0 -14,1 -17,5 -4,3 -6,8 -6,13 0,7 3,12 9,15l-14 20 24 0 10 -16zm-758 94l14 0 0 -18 -50 0 0 18 14 0 0 36 22 0 0 -36zm50 20c-1,2 -3,3 -6,3 -3,0 -6,-1 -6,-5 0,-3 3,-5 7,-5 2,0 3,1 5,2l0 5zm24 0c-2,0 -3,-1 -3,-3l0 -14c0,-6 -2,-12 -7,-16 -5,-4 -12,-6 -20,-6 -8,0 -15,1 -20,4l0 16c4,-2 9,-4 15,-4 7,0 11,3 11,8 -4,-1 -8,-2 -12,-2 -6,0 -10,1 -15,4 -4,3 -6,7 -6,13 0,5 2,9 5,12 4,4 8,5 14,5 7,0 13,-3 16,-7 2,4 8,7 14,7 5,0 8,-1 11,-3l0 -15c-1,1 -2,1 -3,1zm57 -6l7 0c3,0 5,1 5,4 0,3 -2,4 -5,4l-7 0 0 -8zm6 -18c2,0 4,1 4,4 0,2 -1,4 -4,4l-6 0 0 -8 6 0zm18 11c3,-1 7,-5 7,-11 0,-7 -6,-14 -18,-14l-34 0 0 54 34 0c14,0 22,-6 22,-15 0,-7 -6,-12 -11,-14zm44 30c6,0 11,-1 17,-3l0 -18c-4,2 -8,3 -13,3 -7,0 -12,-4 -12,-10 0,-6 5,-9 12,-9 4,0 8,0 12,2l0 -18c-4,-2 -10,-3 -16,-3 -10,0 -19,4 -25,12 -3,5 -4,10 -4,16 0,6 1,11 4,16 3,4 7,7 11,9 5,2 9,3 14,3l0 0zm59 -37l14 0 0 -18 -51 0 0 18 15 0 0 36 22 0 0 -36zm50 20c-2,2 -4,3 -6,3 -4,0 -6,-1 -6,-5 0,-3 3,-5 6,-5 2,0 4,1 6,2l0 5zm23 0c-1,0 -2,-1 -2,-3l0 -14c0,-6 -3,-12 -8,-16 -5,-4 -11,-6 -19,-6 -8,0 -15,1 -21,4l0 16c5,-2 10,-4 16,-4 7,0 10,3 10,8 -3,-1 -7,-2 -12,-2 -5,0 -10,1 -14,4 -4,3 -6,7 -6,13 0,5 1,9 5,12 3,4 8,5 14,5 7,0 13,-3 16,-7 1,4 7,7 14,7 4,0 8,-1 10,-3l0 -15c-1,1 -2,1 -3,1zm33 -3l12 0 0 19 22 0 0 -54 -22 0 0 18 -12 0 0 -18 -22 0 0 54 22 0 0 -19zm71 20c9,0 16,-2 22,-8 6,-5 9,-12 9,-20 0,-8 -3,-15 -9,-20 -6,-5 -13,-8 -22,-8 -9,0 -16,3 -22,8 -5,5 -8,12 -8,20 0,8 3,15 8,20 6,6 13,8 22,8zm-6 -21c-2,-2 -3,-4 -3,-7 0,-3 1,-5 3,-7 3,-3 9,-3 13,0 2,2 2,4 2,7 0,3 0,5 -2,7 -4,4 -10,4 -13,0l0 0zm65 -2l7 0c3,0 5,1 5,4 0,3 -2,4 -5,4l-7 0 0 -8zm5 -18c3,0 5,1 5,4 0,2 -2,4 -5,4l-5 0 0 -8 5 0zm18 11c4,-1 8,-5 8,-11 0,-7 -7,-14 -18,-14l-34 0 0 54 34 0c13,0 21,-6 21,-15 0,-7 -5,-12 -11,-14zm54 29l22 0 0 -54 -51 0 0 13c0,9 -1,15 -1,19 -1,3 -3,5 -6,5 -1,0 -2,0 -3,-1l0 17c2,1 5,2 10,2 10,0 15,-6 17,-13 2,-6 3,-11 3,-17l0 -8 9 0 0 37zm50 -32c0,-5 3,-8 7,-8 4,0 7,3 7,8l-14 0 0 0zm9 33c10,0 18,-1 22,-5l0 -16c-5,3 -11,4 -17,4 -6,0 -12,-2 -14,-6l34 0 0 -5c0,-9 -2,-15 -7,-20 -5,-5 -11,-8 -19,-8 -8,0 -15,3 -21,8 -5,6 -8,12 -8,20 0,9 3,16 9,21 6,5 13,7 21,7zm54 -20l12 0 0 19 22 0 0 -54 -22 0 0 18 -12 0 0 -18 -21 0 0 54 21 0 0 -19zm66 0l12 0 0 19 22 0 0 -54 -22 0 0 18 -12 0 0 -18 -22 0 0 54 22 0 0 -19zm70 -10c-3,0 -5,-2 -5,-5 0,-2 2,-4 5,-4l5 0 0 9 -5 0zm3 13l2 0 0 16 22 0 0 -54 -30 0c-8,0 -14,2 -17,6 -4,3 -6,8 -6,13 0,7 3,12 9,15l-14 20 24 0 10 -16z"/>
   <path id="1" fill="#1B4E9B" fill-rule="nonzero" d="M930 1113c3,0 5,2 5,5 0,2 -2,5 -5,5l-11 0 0 -10 11 0zm1 25c3,0 6,3 6,6 0,4 -2,6 -6,6l-12 0 0 -12 12 0zm4 30c8,0 14,-2 19,-6 5,-4 8,-9 8,-15 0,-5 -2,-10 -5,-13 -3,-3 -6,-6 -9,-6 2,-1 4,-3 6,-5 1,-3 2,-6 2,-9 0,-6 -2,-11 -6,-14 -4,-3 -10,-5 -17,-5l-36 0 0 73 38 0zm70 -23l0 23 21 0 0 -53 -21 0 -16 22 0 -22 -20 0 0 53 20 0 16 -23zm53 -13l23 0 0 -17 -45 0 0 53 22 0 0 -36zm57 37c9,0 16,-2 22,-8 6,-5 9,-12 9,-20 0,-8 -3,-15 -9,-20 -6,-5 -13,-8 -22,-8 -8,0 -16,3 -22,8 -5,5 -8,12 -8,20 0,8 3,15 8,20 6,6 14,8 22,8zm-6 -21c-2,-2 -3,-4 -3,-7 0,-3 1,-5 3,-7 3,-3 9,-3 13,0 2,2 3,4 3,7 0,3 -1,5 -3,7 -3,4 -10,4 -13,0l0 0zm77 -16l14 0 0 -17 -50 0 0 17 14 0 0 36 22 0 0 -36zm48 37c9,0 17,-2 22,-8 6,-5 9,-12 9,-20 0,-8 -3,-15 -9,-20 -5,-5 -13,-8 -22,-8 -8,0 -16,3 -22,8 -5,5 -8,12 -8,20 0,8 3,15 8,20 6,6 14,8 22,8zm-6 -21c-2,-2 -3,-4 -3,-7 0,-3 1,-5 3,-7 3,-3 9,-3 13,0 2,2 3,4 3,7 0,3 -1,5 -3,7 -3,4 -10,4 -13,0l0 0zm65 -2l7 0c3,0 5,1 5,4 0,3 -2,4 -5,4l-7 0 0 -8zm5 -18c3,0 5,1 5,4 0,2 -2,4 -5,4l-5 0 0 -8 5 0zm18 11c4,-1 8,-5 8,-10 0,-8 -7,-14 -18,-14l-34 0 0 53 34 0c13,0 21,-6 21,-15 0,-7 -5,-12 -11,-14zm55 29l21 0 0 -53 -51 0 0 12c0,9 0,15 -1,19 -1,3 -3,5 -6,5 -1,0 -2,0 -3,-1l0 17c2,1 5,2 10,2 10,0 15,-6 18,-13 1,-6 2,-11 2,-17l0 -7 10 0 0 36zm49 -32c1,-5 3,-8 7,-8 4,0 7,3 7,8l-14 0 0 0zm9 33c10,0 18,-1 22,-5l0 -16c-5,3 -10,4 -17,4 -6,0 -12,-2 -14,-6l34 0 0 -5c0,-9 -2,-15 -7,-20 -5,-5 -11,-8 -19,-8 -8,0 -15,3 -21,8 -5,6 -7,12 -7,20 0,9 2,16 8,21 6,5 13,7 21,7zm55 -20l11 0 0 19 22 0 0 -53 -22 0 0 17 -11 0 0 -17 -22 0 0 53 22 0 0 -19zm65 0l12 0 0 19 22 0 0 -53 -22 0 0 17 -12 0 0 -17 -21 0 0 53 21 0 0 -19zm70 -10c-3,0 -5,-2 -5,-4 0,-3 2,-4 5,-4l5 0 0 8 -5 0zm3 13l2 0 0 16 22 0 0 -53 -30 0c-8,0 -14,1 -17,5 -4,3 -6,8 -6,13 0,7 3,12 9,15l-14 20 24 0 10 -16zm-758 94l14 0 0 -18 -50 0 0 18 14 0 0 36 22 0 0 -36zm50 20c-1,2 -3,3 -6,3 -3,0 -6,-1 -6,-5 0,-3 3,-5 7,-5 2,0 3,1 5,2l0 5zm24 0c-2,0 -3,-1 -3,-3l0 -14c0,-6 -2,-12 -7,-16 -5,-4 -12,-6 -20,-6 -8,0 -15,1 -20,4l0 16c4,-2 9,-4 15,-4 7,0 11,3 11,8 -4,-1 -8,-2 -12,-2 -6,0 -10,1 -15,4 -4,3 -6,7 -6,13 0,5 2,9 5,12 4,4 8,5 14,5 7,0 13,-3 16,-7 2,4 8,7 14,7 5,0 8,-1 11,-3l0 -15c-1,1 -2,1 -3,1zm57 -6l7 0c3,0 5,1 5,4 0,3 -2,4 -5,4l-7 0 0 -8zm6 -18c2,0 4,1 4,4 0,2 -1,4 -4,4l-6 0 0 -8 6 0zm18 11c3,-1 7,-5 7,-11 0,-7 -6,-14 -18,-14l-34 0 0 54 34 0c14,0 22,-6 22,-15 0,-7 -6,-12 -11,-14zm44 30c6,0 11,-1 17,-3l0 -18c-4,2 -8,3 -13,3 -7,0 -12,-4 -12,-10 0,-6 5,-9 12,-9 4,0 8,0 12,2l0 -18c-4,-2 -10,-3 -16,-3 -10,0 -19,4 -25,12 -3,5 -4,10 -4,16 0,6 1,11 4,16 3,4 7,7 11,9 5,2 9,3 14,3l0 0zm59 -37l14 0 0 -18 -51 0 0 18 15 0 0 36 22 0 0 -36zm50 20c-2,2 -4,3 -6,3 -4,0 -6,-1 -6,-5 0,-3 3,-5 6,-5 2,0 4,1 6,2l0 5zm23 0c-1,0 -2,-1 -2,-3l0 -14c0,-6 -3,-12 -8,-16 -5,-4 -11,-6 -19,-6 -8,0 -15,1 -21,4l0 16c5,-2 10,-4 16,-4 7,0 10,3 10,8 -3,-1 -7,-2 -12,-2 -5,0 -10,1 -14,4 -4,3 -6,7 -6,13 0,5 1,9 5,12 3,4 8,5 14,5 7,0 13,-3 16,-7 1,4 7,7 14,7 4,0 8,-1 10,-3l0 -15c-1,1 -2,1 -3,1zm33 -3l12 0 0 19 22 0 0 -54 -22 0 0 18 -12 0 0 -18 -22 0 0 54 22 0 0 -19zm71 20c9,0 16,-2 22,-8 6,-5 9,-12 9,-20 0,-8 -3,-15 -9,-20 -6,-5 -13,-8 -22,-8 -9,0 -16,3 -22,8 -5,5 -8,12 -8,20 0,8 3,15 8,20 6,6 13,8 22,8zm-6 -21c-2,-2 -3,-4 -3,-7 0,-3 1,-5 3,-7 3,-3 9,-3 13,0 2,2 2,4 2,7 0,3 0,5 -2,7 -4,4 -10,4 -13,0l0 0zm65 -2l7 0c3,0 5,1 5,4 0,3 -2,4 -5,4l-7 0 0 -8zm5 -18c3,0 5,1 5,4 0,2 -2,4 -5,4l-5 0 0 -8 5 0zm18 11c4,-1 8,-5 8,-11 0,-7 -7,-14 -18,-14l-34 0 0 54 34 0c13,0 21,-6 21,-15 0,-7 -5,-12 -11,-14zm54 29l22 0 0 -54 -51 0 0 13c0,9 -1,15 -1,19 -1,3 -3,5 -6,5 -1,0 -2,0 -3,-1l0 17c2,1 5,2 10,2 10,0 15,-6 17,-13 2,-6 3,-11 3,-17l0 -8 9 0 0 37zm50 -32c0,-5 3,-8 7,-8 4,0 7,3 7,8l-14 0 0 0zm9 33c10,0 18,-1 22,-5l0 -16c-5,3 -11,4 -17,4 -6,0 -12,-2 -14,-6l34 0 0 -5c0,-9 -2,-15 -7,-20 -5,-5 -11,-8 -19,-8 -8,0 -15,3 -21,8 -5,6 -8,12 -8,20 0,9 3,16 9,21 6,5 13,7 21,7zm54 -20l12 0 0 19 22 0 0 -54 -22 0 0 18 -12 0 0 -18 -21 0 0 54 21 0 0 -19zm66 0l12 0 0 19 22 0 0 -54 -22 0 0 18 -12 0 0 -18 -22 0 0 54 22 0 0 -19zm70 -10c-3,0 -5,-2 -5,-5 0,-2 2,-4 5,-4l5 0 0 9 -5 0zm3 13l2 0 0 16 22 0 0 -54 -30 0c-8,0 -14,2 -17,6 -4,3 -6,8 -6,13 0,7 3,12 9,15l-14 20 24 0 10 -16z"/>
  </g>
  <g>
   <path fill="none" fill-rule="nonzero" stroke="#FEFEFE" stroke-width="11.8095" stroke-linecap="round" stroke-linejoin="round" d="M944 1825c9,0 16,-2 22,-8 6,-5 9,-12 9,-20 0,-8 -3,-15 -9,-20 -6,-5 -13,-8 -22,-8 -9,0 -16,3 -22,8 -5,5 -8,12 -8,20 0,8 3,15 8,20 6,6 13,8 22,8zm-6 -21c-2,-2 -3,-4 -3,-7 0,-3 1,-5 3,-7 3,-3 9,-3 13,0 2,2 3,4 3,7 0,3 -1,5 -3,7 -4,4 -10,4 -13,0l0 0zm62 41c11,0 21,-3 27,-12 3,-4 5,-9 5,-15 0,-7 -3,-13 -8,-17 -6,-5 -12,-7 -21,-7l-2 0 0 -5 26 0 0 -19 -42 0 -5 43c6,-1 12,-2 18,-2 7,0 11,2 11,7 0,5 -3,8 -11,8 -6,0 -13,-2 -20,-6l0 20c6,3 13,5 22,5l0 0zm65 -20c9,0 17,-2 22,-8 6,-5 9,-12 9,-20 0,-8 -3,-15 -9,-20 -5,-5 -13,-8 -22,-8 -8,0 -16,3 -21,8 -6,5 -9,12 -9,20 0,8 3,15 9,20 5,6 13,8 21,8zm-6 -21c-2,-2 -3,-4 -3,-7 0,-3 1,-5 3,-7 3,-3 9,-3 13,0 2,2 3,4 3,7 0,3 -1,5 -3,7 -3,4 -10,4 -13,0l0 0zm90 41c9,0 16,-2 22,-7 6,-5 9,-11 9,-19 0,-10 -5,-17 -16,-21l13 -11 0 -17 -49 0 0 19 23 0 -15 11 0 14c4,-2 8,-3 12,-3 7,0 10,3 10,7 0,5 -4,8 -11,8 -6,0 -13,-2 -21,-7l0 20c7,4 14,6 23,6l0 0zm60 0c9,0 16,-2 22,-7 6,-5 9,-11 9,-19 0,-10 -5,-17 -16,-21l12 -11 0 -17 -48 0 0 19 23 0 -15 11 0 14c4,-2 8,-3 12,-3 6,0 10,3 10,7 0,5 -5,8 -11,8 -6,0 -13,-2 -21,-7l0 20c6,4 14,6 23,6l0 0zm91 -57l0 -18 -54 0 0 19 30 0 -27 55 23 0 28 -56zm62 19c-4,0 -8,-4 -8,-11 1,-3 5,-5 8,-5 5,0 8,4 8,8 0,5 -3,8 -8,8l0 0zm6 -32c-5,0 -9,1 -13,5 1,-7 8,-11 16,-11 5,0 10,2 14,5l0 -20c-4,-3 -10,-4 -17,-4 -12,0 -22,5 -27,13 -5,8 -8,18 -8,28 0,11 3,19 8,25 5,6 13,9 22,9 8,0 15,-2 20,-7 6,-5 8,-11 8,-19 0,-8 -2,-14 -6,-18 -4,-4 -10,-6 -17,-6zm59 50c9,0 16,-2 22,-8 6,-5 9,-12 9,-20 0,-8 -3,-15 -9,-20 -6,-5 -13,-8 -22,-8 -9,0 -16,3 -22,8 -5,5 -8,12 -8,20 0,8 3,15 8,20 6,6 13,8 22,8zm-7 -21c-1,-2 -2,-4 -2,-7 0,-3 1,-5 2,-7 4,-3 10,-3 14,0 1,2 2,4 2,7 0,3 -1,5 -2,7 -4,4 -10,4 -14,0l0 0zm122 -16l0 -18 -54 0 0 19 30 0 -28 55 24 0 28 -56zm34 37c9,0 16,-2 22,-8 5,-5 8,-12 8,-20 0,-8 -3,-15 -8,-20 -6,-5 -13,-8 -22,-8 -9,0 -16,3 -22,8 -6,5 -9,12 -9,20 0,8 3,15 9,20 6,6 13,8 22,8zm-7 -21c-2,-2 -2,-4 -2,-7 0,-3 0,-5 2,-7 4,-3 10,-3 13,0 2,2 3,4 3,7 0,3 -1,5 -3,7 -3,4 -9,4 -13,0l0 0z"/>
   <path id="1" fill="#E31E24" fill-rule="nonzero" d="M944 1825c9,0 16,-2 22,-8 6,-5 9,-12 9,-20 0,-8 -3,-15 -9,-20 -6,-5 -13,-8 -22,-8 -9,0 -16,3 -22,8 -5,5 -8,12 -8,20 0,8 3,15 8,20 6,6 13,8 22,8zm-6 -21c-2,-2 -3,-4 -3,-7 0,-3 1,-5 3,-7 3,-3 9,-3 13,0 2,2 3,4 3,7 0,3 -1,5 -3,7 -4,4 -10,4 -13,0l0 0zm62 41c11,0 21,-3 27,-12 3,-4 5,-9 5,-15 0,-7 -3,-13 -8,-17 -6,-5 -12,-7 -21,-7l-2 0 0 -5 26 0 0 -19 -42 0 -5 43c6,-1 12,-2 18,-2 7,0 11,2 11,7 0,5 -3,8 -11,8 -6,0 -13,-2 -20,-6l0 20c6,3 13,5 22,5l0 0zm65 -20c9,0 17,-2 22,-8 6,-5 9,-12 9,-20 0,-8 -3,-15 -9,-20 -5,-5 -13,-8 -22,-8 -8,0 -16,3 -21,8 -6,5 -9,12 -9,20 0,8 3,15 9,20 5,6 13,8 21,8zm-6 -21c-2,-2 -3,-4 -3,-7 0,-3 1,-5 3,-7 3,-3 9,-3 13,0 2,2 3,4 3,7 0,3 -1,5 -3,7 -3,4 -10,4 -13,0l0 0zm90 41c9,0 16,-2 22,-7 6,-5 9,-11 9,-19 0,-10 -5,-17 -16,-21l13 -11 0 -17 -49 0 0 19 23 0 -15 11 0 14c4,-2 8,-3 12,-3 7,0 10,3 10,7 0,5 -4,8 -11,8 -6,0 -13,-2 -21,-7l0 20c7,4 14,6 23,6l0 0zm60 0c9,0 16,-2 22,-7 6,-5 9,-11 9,-19 0,-10 -5,-17 -16,-21l12 -11 0 -17 -48 0 0 19 23 0 -15 11 0 14c4,-2 8,-3 12,-3 6,0 10,3 10,7 0,5 -5,8 -11,8 -6,0 -13,-2 -21,-7l0 20c6,4 14,6 23,6l0 0zm91 -57l0 -18 -54 0 0 19 30 0 -27 55 23 0 28 -56zm62 19c-4,0 -8,-4 -8,-11 1,-3 5,-5 8,-5 5,0 8,4 8,8 0,5 -3,8 -8,8l0 0zm6 -32c-5,0 -9,1 -13,5 1,-7 8,-11 16,-11 5,0 10,2 14,5l0 -20c-4,-3 -10,-4 -17,-4 -12,0 -22,5 -27,13 -5,8 -8,18 -8,28 0,11 3,19 8,25 5,6 13,9 22,9 8,0 15,-2 20,-7 6,-5 8,-11 8,-19 0,-8 -2,-14 -6,-18 -4,-4 -10,-6 -17,-6zm59 50c9,0 16,-2 22,-8 6,-5 9,-12 9,-20 0,-8 -3,-15 -9,-20 -6,-5 -13,-8 -22,-8 -9,0 -16,3 -22,8 -5,5 -8,12 -8,20 0,8 3,15 8,20 6,6 13,8 22,8zm-7 -21c-1,-2 -2,-4 -2,-7 0,-3 1,-5 2,-7 4,-3 10,-3 14,0 1,2 2,4 2,7 0,3 -1,5 -2,7 -4,4 -10,4 -14,0l0 0zm122 -16l0 -18 -54 0 0 19 30 0 -28 55 24 0 28 -56zm34 37c9,0 16,-2 22,-8 5,-5 8,-12 8,-20 0,-8 -3,-15 -8,-20 -6,-5 -13,-8 -22,-8 -9,0 -16,3 -22,8 -6,5 -9,12 -9,20 0,8 3,15 9,20 6,6 13,8 22,8zm-7 -21c-2,-2 -2,-4 -2,-7 0,-3 0,-5 2,-7 4,-3 10,-3 13,0 2,2 3,4 3,7 0,3 -1,5 -3,7 -3,4 -9,4 -13,0l0 0z"/>
  </g>
  <g>
   <path fill="none" fill-rule="nonzero" stroke="#FEFEFE" stroke-width="11.8095" stroke-linecap="round" stroke-linejoin="round" d="M1103 1557l6 9 6 0 6 -9 0 19 14 0 0 -39 -15 0 -8 12 -8 -12 -15 0 0 39 14 0 0 -19zm328 4l-16 0 -8 26 14 0 10 -26zm-281 -3c-2,0 -5,1 -6,3 -2,2 -3,4 -3,7 0,2 1,4 3,6 1,2 4,3 6,3 3,0 5,-1 7,-3 1,-2 2,-4 2,-6 0,-3 -1,-5 -2,-7 -2,-2 -4,-3 -7,-3zm50 -21l25 0 0 -14 -41 0 0 53 16 0 0 -39zm34 15c1,-3 3,-6 6,-6 2,0 5,3 5,6l-11 0 0 0zm7 25c8,0 13,-1 16,-4l0 -12c-3,2 -8,3 -12,3 -5,0 -9,-1 -10,-4l24 0 0 -4c0,-6 -1,-11 -5,-15 -4,-3 -8,-5 -14,-5 -6,0 -11,2 -15,6 -4,4 -6,8 -6,14 0,7 3,12 7,15 4,4 9,6 15,6zm40 -25c1,-2 3,-3 6,-3 4,0 6,3 6,7 0,4 -2,8 -6,8 -3,0 -5,-1 -6,-3l0 -9zm0 19c2,4 6,6 11,6 5,0 9,-2 12,-6 3,-4 5,-9 5,-15 0,-6 -2,-11 -5,-14 -3,-4 -7,-6 -12,-6 -5,0 -9,2 -11,5l0 -4 -16 0 0 54 16 0 0 -20zm79 -8l-5 0 0 -26 -16 0 0 26 -9 0 0 -26 -16 0 0 39 31 0 0 8 15 0 0 -21zm27 2c0,1 -2,2 -4,2 -2,0 -4,-2 -4,-4 0,-3 2,-4 4,-4 2,0 3,1 4,1l0 5zm18 -1c-2,0 -2,0 -2,-2l0 -10c0,-5 -2,-9 -6,-12 -3,-3 -8,-4 -14,-4 -6,0 -11,1 -15,2l0 12c3,-1 7,-2 11,-2 6,0 8,2 8,6 -2,-2 -5,-3 -9,-3 -4,0 -7,2 -10,4 -3,2 -5,5 -5,9 0,4 2,7 4,9 3,3 6,4 10,4 6,0 10,-2 12,-5 1,2 5,5 10,5 3,0 6,-1 8,-3l0 -10c-1,0 -1,0 -2,0zm131 92l-17 0 -7 27 13 0 11 -27zm97 -25c3,0 4,1 4,3 0,2 -1,4 -4,4l-8 0 0 -7 8 0zm1 18c2,0 5,2 5,5 0,2 -2,4 -5,4l-9 0 0 -9 9 0zm3 22c6,0 10,-1 14,-4 3,-3 5,-7 5,-11 0,-4 -1,-7 -3,-10 -2,-2 -4,-4 -7,-4 2,-1 3,-2 4,-4 2,-2 3,-4 3,-6 0,-5 -2,-8 -5,-10 -3,-3 -7,-4 -12,-4l-27 0 0 53 28 0zm-758 -16l5 0c2,0 4,1 4,3 0,2 -2,3 -4,3l-5 0 0 -6zm4 -13c2,0 3,1 3,3 0,2 -1,2 -3,2l-4 0 0 -5 4 0zm13 8c3,-1 5,-4 5,-8 0,-5 -4,-10 -13,-10l-24 0 0 39 25 0c9,0 15,-4 15,-11 0,-5 -4,-9 -8,-10zm21 37c8,0 14,-4 17,-12l16 -43 -16 0 -6 22 -7 -22 -17 0 16 38c-1,2 -3,3 -6,3 -2,0 -5,-1 -6,-2l0 14c2,1 5,2 9,2zm61 -16l16 0 0 -39 -38 0 0 9c0,7 0,11 -1,14 0,2 -2,4 -4,4 0,0 -1,0 -2,-1l0 13c1,0 4,1 7,1 7,0 11,-4 13,-10 1,-4 2,-7 2,-12l0 -6 7 0 0 27zm30 -17c-2,0 -4,1 -6,2 -2,2 -3,4 -3,7 0,2 1,5 3,6 2,2 4,3 6,3 3,0 5,-1 7,-3 2,-1 3,-4 3,-6 0,-3 -1,-5 -3,-7 -2,-1 -4,-2 -7,-2zm88 3l-6 0 0 -39 -16 0 0 39 -16 0 0 -39 -16 0 0 53 39 0 0 10 15 0 0 -24zm19 -10c0,-3 2,-5 5,-5 3,0 5,2 5,5l-10 0 0 0zm7 25c7,0 13,-1 16,-4l0 -11c-4,2 -8,3 -13,3 -4,0 -8,-2 -10,-5l25 0 0 -4c0,-6 -2,-11 -5,-14 -4,-4 -9,-6 -14,-6 -6,0 -11,2 -15,6 -4,4 -6,9 -6,15 0,6 2,11 6,15 5,3 10,5 16,5zm40 -15l8 0 0 14 16 0 0 -39 -16 0 0 13 -8 0 0 -13 -16 0 0 39 16 0 0 -14zm56 -12l10 0 0 -13 -37 0 0 13 11 0 0 26 16 0 0 -26zm31 2c1,-2 3,-3 6,-3 4,0 6,4 6,8 0,4 -2,7 -6,7 -3,0 -5,-1 -6,-3l0 -9zm0 20c3,3 6,5 11,5 5,0 9,-2 12,-6 3,-4 5,-9 5,-14 0,-6 -2,-11 -5,-15 -3,-4 -7,-6 -12,-6 -5,0 -8,2 -11,5l0 -4 -16 0 0 54 16 0 0 -19zm55 -7c-1,1 -2,2 -4,2 -3,0 -5,-1 -5,-4 0,-2 2,-4 5,-4 2,0 3,1 4,2l0 4zm17 -1c-1,0 -2,0 -2,-1l0 -11c0,-5 -1,-9 -5,-11 -4,-3 -8,-5 -14,-5 -6,0 -11,1 -15,3l0 12c3,-2 7,-3 11,-3 5,0 8,2 8,6 -3,-2 -6,-2 -9,-2 -4,0 -7,1 -11,3 -3,2 -4,5 -4,9 0,4 1,7 4,9 2,3 6,4 10,4 5,0 9,-2 12,-5 1,3 5,5 10,5 3,0 6,-1 8,-2l0 -11c-1,0 -2,0 -3,0zm35 12l16 0 0 -39 -38 0 0 9c0,7 0,11 -1,14 0,2 -2,4 -4,4 -1,0 -1,0 -2,-1l0 13c1,0 4,1 7,1 7,0 11,-4 13,-10 1,-4 2,-7 2,-12l0 -6 7 0 0 27zm38 -19l4 0c3,0 4,2 4,4 0,3 -1,4 -4,4l-4 0 0 -8zm0 -20l-15 0 0 39 22 0c6,0 10,-1 13,-4 2,-3 4,-6 4,-10 0,-5 -2,-8 -5,-11 -3,-3 -7,-4 -12,-4l-7 0 0 -10zm45 25l9 0 0 14 15 0 0 -39 -15 0 0 13 -9 0 0 -13 -16 0 0 39 16 0 0 -14zm53 3c-1,1 -2,2 -4,2 -3,0 -5,-1 -5,-4 0,-2 2,-4 5,-4 2,0 3,1 4,2l0 4zm17 -1c-1,0 -2,0 -2,-1l0 -11c0,-5 -1,-9 -5,-11 -4,-3 -8,-5 -14,-5 -6,0 -11,1 -15,3l0 12c3,-2 7,-3 11,-3 5,0 8,2 8,6 -3,-2 -6,-2 -9,-2 -4,0 -7,1 -10,3 -4,2 -5,5 -5,9 0,4 1,7 4,9 2,3 6,4 10,4 5,0 10,-2 12,-5 1,3 5,5 10,5 3,0 6,-1 8,-2l0 -11c-1,0 -2,0 -3,0zm72 0l-8 0 8 -9 0 9zm16 12l7 0 0 -12 -7 0 0 -27 -16 0 -24 28 0 11 24 0 0 15 16 0 0 -15z"/>
   <path id="1" fill="#2B2A29" fill-rule="nonzero" d="M1103 1557l6 9 6 0 6 -9 0 19 14 0 0 -39 -15 0 -8 12 -8 -12 -15 0 0 39 14 0 0 -19zm328 4l-16 0 -8 26 14 0 10 -26zm-281 -3c-2,0 -5,1 -6,3 -2,2 -3,4 -3,7 0,2 1,4 3,6 1,2 4,3 6,3 3,0 5,-1 7,-3 1,-2 2,-4 2,-6 0,-3 -1,-5 -2,-7 -2,-2 -4,-3 -7,-3zm50 -21l25 0 0 -14 -41 0 0 53 16 0 0 -39zm34 15c1,-3 3,-6 6,-6 2,0 5,3 5,6l-11 0 0 0zm7 25c8,0 13,-1 16,-4l0 -12c-3,2 -8,3 -12,3 -5,0 -9,-1 -10,-4l24 0 0 -4c0,-6 -1,-11 -5,-15 -4,-3 -8,-5 -14,-5 -6,0 -11,2 -15,6 -4,4 -6,8 -6,14 0,7 3,12 7,15 4,4 9,6 15,6zm40 -25c1,-2 3,-3 6,-3 4,0 6,3 6,7 0,4 -2,8 -6,8 -3,0 -5,-1 -6,-3l0 -9zm0 19c2,4 6,6 11,6 5,0 9,-2 12,-6 3,-4 5,-9 5,-15 0,-6 -2,-11 -5,-14 -3,-4 -7,-6 -12,-6 -5,0 -9,2 -11,5l0 -4 -16 0 0 54 16 0 0 -20zm79 -8l-5 0 0 -26 -16 0 0 26 -9 0 0 -26 -16 0 0 39 31 0 0 8 15 0 0 -21zm27 2c0,1 -2,2 -4,2 -2,0 -4,-2 -4,-4 0,-3 2,-4 4,-4 2,0 3,1 4,1l0 5zm18 -1c-2,0 -2,0 -2,-2l0 -10c0,-5 -2,-9 -6,-12 -3,-3 -8,-4 -14,-4 -6,0 -11,1 -15,2l0 12c3,-1 7,-2 11,-2 6,0 8,2 8,6 -2,-2 -5,-3 -9,-3 -4,0 -7,2 -10,4 -3,2 -5,5 -5,9 0,4 2,7 4,9 3,3 6,4 10,4 6,0 10,-2 12,-5 1,2 5,5 10,5 3,0 6,-1 8,-3l0 -10c-1,0 -1,0 -2,0zm131 92l-17 0 -7 27 13 0 11 -27zm97 -25c3,0 4,1 4,3 0,2 -1,4 -4,4l-8 0 0 -7 8 0zm1 18c2,0 5,2 5,5 0,2 -2,4 -5,4l-9 0 0 -9 9 0zm3 22c6,0 10,-1 14,-4 3,-3 5,-7 5,-11 0,-4 -1,-7 -3,-10 -2,-2 -4,-4 -7,-4 2,-1 3,-2 4,-4 2,-2 3,-4 3,-6 0,-5 -2,-8 -5,-10 -3,-3 -7,-4 -12,-4l-27 0 0 53 28 0zm-758 -16l5 0c2,0 4,1 4,3 0,2 -2,3 -4,3l-5 0 0 -6zm4 -13c2,0 3,1 3,3 0,2 -1,2 -3,2l-4 0 0 -5 4 0zm13 8c3,-1 5,-4 5,-8 0,-5 -4,-10 -13,-10l-24 0 0 39 25 0c9,0 15,-4 15,-11 0,-5 -4,-9 -8,-10zm21 37c8,0 14,-4 17,-12l16 -43 -16 0 -6 22 -7 -22 -17 0 16 38c-1,2 -3,3 -6,3 -2,0 -5,-1 -6,-2l0 14c2,1 5,2 9,2zm61 -16l16 0 0 -39 -38 0 0 9c0,7 0,11 -1,14 0,2 -2,4 -4,4 0,0 -1,0 -2,-1l0 13c1,0 4,1 7,1 7,0 11,-4 13,-10 1,-4 2,-7 2,-12l0 -6 7 0 0 27zm30 -17c-2,0 -4,1 -6,2 -2,2 -3,4 -3,7 0,2 1,5 3,6 2,2 4,3 6,3 3,0 5,-1 7,-3 2,-1 3,-4 3,-6 0,-3 -1,-5 -3,-7 -2,-1 -4,-2 -7,-2zm88 3l-6 0 0 -39 -16 0 0 39 -16 0 0 -39 -16 0 0 53 39 0 0 10 15 0 0 -24zm19 -10c0,-3 2,-5 5,-5 3,0 5,2 5,5l-10 0 0 0zm7 25c7,0 13,-1 16,-4l0 -11c-4,2 -8,3 -13,3 -4,0 -8,-2 -10,-5l25 0 0 -4c0,-6 -2,-11 -5,-14 -4,-4 -9,-6 -14,-6 -6,0 -11,2 -15,6 -4,4 -6,9 -6,15 0,6 2,11 6,15 5,3 10,5 16,5zm40 -15l8 0 0 14 16 0 0 -39 -16 0 0 13 -8 0 0 -13 -16 0 0 39 16 0 0 -14zm56 -12l10 0 0 -13 -37 0 0 13 11 0 0 26 16 0 0 -26zm31 2c1,-2 3,-3 6,-3 4,0 6,4 6,8 0,4 -2,7 -6,7 -3,0 -5,-1 -6,-3l0 -9zm0 20c3,3 6,5 11,5 5,0 9,-2 12,-6 3,-4 5,-9 5,-14 0,-6 -2,-11 -5,-15 -3,-4 -7,-6 -12,-6 -5,0 -8,2 -11,5l0 -4 -16 0 0 54 16 0 0 -19zm55 -7c-1,1 -2,2 -4,2 -3,0 -5,-1 -5,-4 0,-2 2,-4 5,-4 2,0 3,1 4,2l0 4zm17 -1c-1,0 -2,0 -2,-1l0 -11c0,-5 -1,-9 -5,-11 -4,-3 -8,-5 -14,-5 -6,0 -11,1 -15,3l0 12c3,-2 7,-3 11,-3 5,0 8,2 8,6 -3,-2 -6,-2 -9,-2 -4,0 -7,1 -11,3 -3,2 -4,5 -4,9 0,4 1,7 4,9 2,3 6,4 10,4 5,0 9,-2 12,-5 1,3 5,5 10,5 3,0 6,-1 8,-2l0 -11c-1,0 -2,0 -3,0zm35 12l16 0 0 -39 -38 0 0 9c0,7 0,11 -1,14 0,2 -2,4 -4,4 -1,0 -1,0 -2,-1l0 13c1,0 4,1 7,1 7,0 11,-4 13,-10 1,-4 2,-7 2,-12l0 -6 7 0 0 27zm38 -19l4 0c3,0 4,2 4,4 0,3 -1,4 -4,4l-4 0 0 -8zm0 -20l-15 0 0 39 22 0c6,0 10,-1 13,-4 2,-3 4,-6 4,-10 0,-5 -2,-8 -5,-11 -3,-3 -7,-4 -12,-4l-7 0 0 -10zm45 25l9 0 0 14 15 0 0 -39 -15 0 0 13 -9 0 0 -13 -16 0 0 39 16 0 0 -14zm53 3c-1,1 -2,2 -4,2 -3,0 -5,-1 -5,-4 0,-2 2,-4 5,-4 2,0 3,1 4,2l0 4zm17 -1c-1,0 -2,0 -2,-1l0 -11c0,-5 -1,-9 -5,-11 -4,-3 -8,-5 -14,-5 -6,0 -11,1 -15,3l0 12c3,-2 7,-3 11,-3 5,0 8,2 8,6 -3,-2 -6,-2 -9,-2 -4,0 -7,1 -10,3 -4,2 -5,5 -5,9 0,4 1,7 4,9 2,3 6,4 10,4 5,0 10,-2 12,-5 1,3 5,5 10,5 3,0 6,-1 8,-2l0 -11c-1,0 -2,0 -3,0zm72 0l-8 0 8 -9 0 9zm16 12l7 0 0 -12 -7 0 0 -27 -16 0 -24 28 0 11 24 0 0 15 16 0 0 -15z"/>
  </g>
  <path fill="#2B2A29" fill-rule="nonzero" d="M2685 1021c5,0 8,3 8,8 0,4 -3,7 -8,7l-9 0 0 -15 9 0zm2 33c8,0 15,-2 21,-7 5,-4 8,-10 8,-17 0,-7 -3,-13 -8,-18 -6,-4 -13,-6 -21,-6l-11 0 0 -6 33 0 0 -18 -56 0 0 72 34 0z"/>
  <path id="1" fill="#2B2A29" fill-rule="nonzero" d="M2745 1000l9 0c4,0 7,2 7,6 0,4 -3,7 -7,7l-9 0 0 -13zm-22 54l22 0 0 -25 12 0c8,0 14,-2 19,-7 6,-4 8,-10 8,-17 0,-7 -2,-12 -8,-17 -5,-4 -11,-6 -19,-6l-34 0 0 72z"/>
  <path id="2" fill="#2B2A29" fill-rule="nonzero" d="M2805 1056c3,0 7,-1 12,-3 4,-2 10,-8 13,-15l26 -56 -23 0 -12 27 -12 -27 -24 0 25 49c-2,3 -5,5 -9,5 -4,0 -8,0 -11,-2l0 19c4,1 8,3 15,3z"/>
  <polygon id="3" fill="#2B2A29" fill-rule="nonzero" points="2883,1023 2907,1054 2935,1054 2904,1015 2930,982 2903,982 2883,1009 2883,982 2861,982 2861,1054 2883,1054 "/>
  <polygon id="4" fill="#2B2A29" fill-rule="nonzero" points="2974,1015 2939,1015 2939,1034 2974,1034 "/>
  <polygon id="5" fill="#2B2A29" fill-rule="nonzero" points="2997,1001 2997,1054 3019,1054 3019,1001 3040,1001 3040,982 2976,982 2976,1001 "/>
  <polygon id="6" fill="#2B2A29" fill-rule="nonzero" points="3105,1035 3070,1035 3070,1025 3097,1025 3097,1007 3070,1007 3070,1001 3104,1001 3104,982 3048,982 3048,1054 3105,1054 "/>
  <polygon id="7" fill="#2B2A29" fill-rule="nonzero" points="3133,1015 3106,1054 3132,1054 3146,1032 3161,1054 3186,1054 3159,1015 3182,982 3157,982 3146,999 3136,982 3110,982 "/>
  <path id="8" fill="#2B2A29" fill-rule="nonzero" d="M3255 1056c8,0 14,-2 19,-4l0 -22c-5,4 -11,6 -18,6 -5,0 -10,-2 -14,-5 -4,-4 -6,-8 -6,-13 0,-5 2,-9 6,-13 3,-3 8,-5 14,-5 5,0 11,2 17,5l0 -21c-5,-3 -11,-4 -18,-4 -12,0 -22,4 -30,11 -8,7 -11,16 -11,27 0,11 3,20 11,27 8,7 18,11 30,11l0 0z"/>
  <polygon id="9" fill="#2B2A29" fill-rule="nonzero" points="3341,1035 3306,1035 3306,1025 3333,1025 3333,1007 3306,1007 3306,1001 3341,1001 3341,982 3284,982 3284,1054 3341,1054 "/>
  <path id="10" fill="#2B2A29" fill-rule="nonzero" d="M3372 1000l8 0c5,0 8,2 8,6 0,4 -3,7 -8,7l-8 0 0 -13zm-22 54l22 0 0 -25 11 0c8,0 15,-2 20,-7 5,-4 8,-10 8,-17 0,-7 -3,-12 -8,-17 -5,-4 -12,-6 -20,-6l-33 0 0 72z"/>
  <path id="11" fill="#2B2A29" fill-rule="nonzero" d="M3451 999c3,0 5,2 5,5 0,3 -2,5 -5,5l-12 0 0 -10 12 0zm0 25c4,0 7,3 7,6 0,4 -3,6 -7,6l-12 0 0 -12 12 0zm5 30c8,0 14,-2 19,-6 5,-3 7,-9 7,-15 0,-5 -1,-9 -4,-13 -3,-3 -7,-5 -10,-6 2,-1 4,-3 6,-5 2,-2 3,-5 3,-9 0,-6 -2,-10 -6,-14 -5,-3 -10,-4 -17,-4l-37 0 0 72 39 0z"/>
  <polygon id="12" fill="#2B2A29" fill-rule="nonzero" points="3513,982 3490,982 3490,1054 3513,1054 "/>
  <path id="13" fill="#2B2A29" fill-rule="nonzero" d="M3563 1056c8,0 15,-2 20,-4l0 -22c-5,4 -11,6 -18,6 -6,0 -11,-2 -15,-5 -3,-4 -5,-8 -5,-13 0,-5 1,-9 5,-13 4,-3 8,-5 14,-5 6,0 12,2 18,5l0 -21c-6,-3 -12,-4 -19,-4 -12,0 -22,4 -29,11 -8,7 -12,16 -12,27 0,11 4,20 12,27 8,7 17,11 29,11l0 0z"/>
  <polygon fill="#FEFEFE" fill-rule="nonzero" points="2568,1407 2602,1407 2602,1388 2546,1388 2546,1460 2568,1460 "/>
  <path id="1" fill="#FEFEFE" fill-rule="nonzero" d="M2615 1428c1,-5 3,-8 7,-8 4,0 7,3 7,8l-14 0 0 0zm9 34c10,0 18,-2 22,-6l0 -15c-5,2 -10,4 -17,4 -6,0 -12,-2 -14,-7l34 0 0 -5c0,-8 -2,-15 -7,-20 -5,-5 -11,-7 -19,-7 -8,0 -15,2 -21,8 -5,5 -7,12 -7,20 0,8 2,15 8,20 6,5 13,8 21,8z"/>
  <path id="2" fill="#FEFEFE" fill-rule="nonzero" d="M2678 1427c2,-2 5,-3 8,-3 6,0 9,4 9,10 0,5 -3,10 -9,10 -3,0 -6,-2 -8,-4l0 -13zm1 27c3,5 8,8 14,8 7,0 13,-3 17,-8 5,-6 7,-12 7,-20 0,-8 -2,-15 -7,-20 -4,-6 -10,-8 -17,-8 -6,0 -11,2 -14,7l0 -6 -22 0 0 74 22 0 0 -27z"/>
  <polygon id="3" fill="#FEFEFE" fill-rule="nonzero" points="2787,1443 2779,1443 2779,1407 2758,1407 2758,1443 2746,1443 2746,1407 2724,1407 2724,1460 2766,1460 2766,1472 2787,1472 "/>
  <path id="4" fill="#FEFEFE" fill-rule="nonzero" d="M2824 1445c-1,2 -3,3 -6,3 -3,0 -6,-2 -6,-5 0,-4 3,-6 7,-6 2,0 4,1 5,2l0 6zm24 -1c-2,0 -3,0 -3,-2l0 -14c0,-7 -2,-12 -7,-16 -5,-4 -12,-6 -20,-6 -8,0 -14,1 -20,3l0 16c4,-2 9,-3 15,-3 7,0 11,3 11,8 -4,-2 -8,-3 -12,-3 -5,0 -10,1 -14,4 -5,3 -7,7 -7,13 0,5 2,9 5,13 4,3 9,5 14,5 8,0 14,-3 16,-7 2,3 8,7 14,7 5,0 8,-1 11,-4l0 -15c-1,1 -2,1 -3,1z"/>
  <path id="5" fill="#FEFEFE" fill-rule="nonzero" d="M2881 1407l-22 0 0 53 22 0 0 -53zm-23 -4c6,0 10,-5 10,-11 0,-5 -4,-10 -10,-10 -3,0 -5,1 -7,3 -2,2 -3,5 -3,7 0,6 5,11 10,11zm14 -11c0,6 5,11 10,11 6,0 11,-5 11,-11 0,-2 -1,-5 -3,-7 -2,-2 -5,-3 -8,-3 -5,0 -10,5 -10,10z"/>
  <path id="6" fill="#FEFEFE" fill-rule="nonzero" d="M2913 1438l7 0c3,0 5,2 5,5 0,2 -2,4 -5,4l-7 0 0 -9zm5 -18c3,0 5,2 5,4 0,3 -2,4 -5,4l-5 0 0 -8 5 0zm18 12c4,-1 7,-6 7,-11 0,-8 -6,-14 -18,-14l-33 0 0 53 34 0c13,0 21,-5 21,-15 0,-7 -5,-12 -11,-13z"/>
  <path id="7" fill="#FEFEFE" fill-rule="nonzero" d="M2981 1462c5,0 11,-2 16,-4l0 -17c-4,1 -8,2 -12,2 -7,0 -13,-3 -13,-9 0,-7 6,-10 12,-10 4,0 8,1 13,2l0 -17c-5,-2 -10,-3 -16,-3 -10,0 -19,3 -25,12 -3,4 -5,9 -5,15 0,7 2,12 5,16 3,5 6,8 11,10 4,2 9,3 14,3l0 0z"/>
  <path id="8" fill="#FEFEFE" fill-rule="nonzero" d="M3027 1435l5 0c4,0 6,2 6,5 0,3 -2,5 -6,5l-5 0 0 -10zm0 -28l-21 0 0 53 31 0c7,0 13,-2 16,-5 4,-4 6,-9 6,-15 0,-6 -2,-10 -6,-14 -5,-4 -10,-5 -17,-5l-9 0 0 -14z"/>
  <polygon id="9" fill="#FEFEFE" fill-rule="nonzero" points="3088,1439 3103,1460 3130,1460 3107,1431 3127,1407 3102,1407 3088,1426 3088,1407 3066,1407 3066,1460 3088,1460 "/>
  <path id="10" fill="#FEFEFE" fill-rule="nonzero" d="M3163 1445c-1,2 -3,3 -6,3 -4,0 -6,-2 -6,-5 0,-4 3,-6 6,-6 2,0 4,1 6,2l0 6zm24 -1c-2,0 -3,0 -3,-2l0 -14c0,-7 -3,-12 -8,-16 -5,-4 -11,-6 -19,-6 -8,0 -15,1 -21,3l0 16c5,-2 10,-3 16,-3 7,0 10,3 10,8 -3,-2 -7,-3 -12,-3 -5,0 -10,1 -14,4 -4,3 -6,7 -6,13 0,5 2,9 5,13 3,3 8,5 14,5 7,0 13,-3 16,-7 2,3 7,7 14,7 4,0 8,-1 11,-4l0 -15c-1,1 -2,1 -3,1z"/>
  <path id="11" fill="#FEFEFE" fill-rule="nonzero" d="M3249 1445c-6,0 -9,-5 -9,-13 3,-3 6,-4 9,-4 6,0 9,3 9,8 0,5 -3,9 -9,9zm6 -33c-6,0 -13,3 -16,6 0,-4 2,-6 6,-8 2,-1 6,-2 8,-3 3,-1 7,-1 10,-2 2,0 7,-1 9,-1l0 -18c-9,1 -16,2 -19,3 -12,3 -21,8 -26,14 -5,6 -7,14 -7,25 0,10 2,18 7,24 5,7 13,10 22,10 9,0 15,-3 21,-8 5,-5 8,-12 8,-20 0,-14 -9,-22 -23,-22z"/>
  <path id="12" fill="#FEFEFE" fill-rule="nonzero" d="M3307 1427c1,-2 4,-3 8,-3 5,0 9,4 9,10 0,5 -4,10 -9,10 -4,0 -7,-2 -8,-4l0 -13zm0 27c3,5 8,8 15,8 6,0 12,-3 17,-8 4,-6 6,-12 6,-20 0,-8 -2,-15 -6,-20 -5,-6 -11,-8 -17,-8 -7,0 -12,2 -15,7l0 -6 -22 0 0 74 22 0 0 -27z"/>
  <path id="13" fill="#FEFEFE" fill-rule="nonzero" d="M3363 1482c11,0 19,-6 23,-17l22 -58 -22 0 -9 30 -9 -30 -23 0 22 52c-2,3 -4,4 -8,4 -4,0 -7,-1 -9,-3l0 19c3,2 7,3 13,3z"/>
  <polygon id="14" fill="#FEFEFE" fill-rule="nonzero" points="3435,1439 3451,1460 3477,1460 3455,1431 3474,1407 3449,1407 3435,1426 3435,1407 3413,1407 3413,1460 3435,1460 "/>
  <path id="15" fill="#FEFEFE" fill-rule="nonzero" d="M3493 1404c7,0 12,-5 12,-12 0,-3 -1,-6 -4,-9 -2,-2 -5,-3 -8,-3 -4,0 -7,1 -9,3 -2,3 -4,6 -4,9 0,3 2,6 4,9 2,2 5,3 9,3zm10 3l-21 0 0 53 21 0 0 -53z"/>
  <path id="16" fill="#FEFEFE" fill-rule="nonzero" d="M3535 1438l7 0c3,0 5,2 5,5 0,2 -2,4 -5,4l-7 0 0 -9zm6 -18c2,0 4,2 4,4 0,3 -1,4 -4,4l-6 0 0 -8 6 0zm18 12c3,-1 7,-6 7,-11 0,-8 -6,-14 -18,-14l-34 0 0 53 34 0c14,0 21,-5 21,-15 0,-7 -5,-12 -10,-13z"/>
  <polygon id="17" fill="#FEFEFE" fill-rule="nonzero" points="3598,1439 3614,1460 3641,1460 3618,1431 3637,1407 3612,1407 3598,1426 3598,1407 3577,1407 3577,1460 3598,1460 "/>
  <path id="18" fill="#FEFEFE" fill-rule="nonzero" d="M3673 1445c-1,2 -3,3 -6,3 -3,0 -6,-2 -6,-5 0,-4 3,-6 7,-6 2,0 4,1 5,2l0 6zm24 -1c-2,0 -3,0 -3,-2l0 -14c0,-7 -2,-12 -7,-16 -5,-4 -12,-6 -20,-6 -8,0 -14,1 -20,3l0 16c4,-2 9,-3 15,-3 7,0 11,3 11,8 -4,-2 -8,-3 -12,-3 -5,0 -10,1 -14,4 -5,3 -7,7 -7,13 0,5 2,9 5,13 4,3 9,5 14,5 8,0 14,-3 16,-7 2,3 8,7 14,7 5,0 8,-1 11,-4l0 -15c-1,1 -2,1 -3,1z"/>
  <path fill="#1B4E9B" fill-rule="nonzero" d="M2774 1132c3,0 6,2 6,5 0,3 -3,5 -6,5l-11 0 0 -10 11 0zm1 26c4,0 6,2 6,6 0,3 -2,6 -6,6l-12 0 0 -12 12 0zm4 30c8,0 15,-2 19,-6 5,-4 8,-9 8,-15 0,-6 -2,-10 -5,-13 -3,-4 -6,-6 -9,-7 2,-1 4,-2 6,-5 2,-2 3,-5 3,-8 0,-7 -3,-11 -7,-14 -4,-3 -10,-5 -16,-5l-37 0 0 73 38 0z"/>
  <polygon id="1" fill="#1B4E9B" fill-rule="nonzero" points="2849,1165 2849,1188 2870,1188 2870,1134 2849,1134 2834,1157 2834,1134 2813,1134 2813,1188 2834,1188 "/>
  <polygon id="2" fill="#1B4E9B" fill-rule="nonzero" points="2902,1151 2925,1151 2925,1134 2880,1134 2880,1188 2902,1188 "/>
  <path id="3" fill="#1B4E9B" fill-rule="nonzero" d="M2960 1189c8,0 16,-3 21,-8 6,-5 9,-12 9,-20 0,-8 -3,-15 -9,-20 -5,-6 -13,-8 -21,-8 -9,0 -16,2 -22,8 -6,5 -9,12 -9,20 0,8 3,15 9,20 6,5 13,8 22,8zm-7 -21c-2,-2 -3,-4 -3,-7 0,-3 1,-5 3,-7 3,-4 10,-4 13,0 2,2 3,4 3,7 0,3 -1,5 -3,7 -3,3 -10,3 -13,0l0 0z"/>
  <polygon id="4" fill="#1B4E9B" fill-rule="nonzero" points="3030,1151 3045,1151 3045,1134 2994,1134 2994,1151 3008,1151 3008,1188 3030,1188 "/>
  <path id="5" fill="#1B4E9B" fill-rule="nonzero" d="M3079 1189c8,0 16,-3 21,-8 6,-5 9,-12 9,-20 0,-8 -3,-15 -9,-20 -5,-6 -13,-8 -21,-8 -9,0 -16,2 -22,8 -6,5 -9,12 -9,20 0,8 3,15 9,20 6,5 13,8 22,8zm-7 -21c-2,-2 -3,-4 -3,-7 0,-3 1,-5 3,-7 3,-4 10,-4 13,0 2,2 3,4 3,7 0,3 -1,5 -3,7 -3,3 -10,3 -13,0l0 0z"/>
  <path id="6" fill="#1B4E9B" fill-rule="nonzero" d="M3137 1165l7 0c3,0 5,2 5,5 0,3 -2,4 -5,4l-7 0 0 -9zm6 -18c2,0 4,2 4,4 0,3 -1,4 -4,4l-6 0 0 -8 6 0zm18 12c3,-1 7,-6 7,-11 0,-7 -6,-14 -18,-14l-34 0 0 54 34 0c14,0 21,-6 21,-15 0,-8 -5,-12 -10,-14z"/>
  <path id="7" fill="#1B4E9B" fill-rule="nonzero" d="M3215 1188l22 0 0 -54 -52 0 0 13c0,9 0,15 -1,18 -1,4 -3,6 -6,6 0,0 -2,-1 -3,-1l0 17c2,1 6,1 10,1 10,0 15,-5 18,-13 2,-5 2,-10 2,-16l0 -8 10 0 0 37z"/>
  <path id="8" fill="#1B4E9B" fill-rule="nonzero" d="M3264 1155c1,-5 3,-8 7,-8 4,0 7,3 7,8l-14 0 0 0zm10 34c10,0 17,-2 22,-5l0 -16c-5,2 -11,4 -17,4 -7,0 -13,-2 -14,-7l34 0 0 -4c0,-9 -3,-16 -8,-21 -5,-5 -11,-7 -18,-7 -9,0 -16,2 -21,8 -6,5 -8,12 -8,20 0,9 3,15 9,20 5,5 12,8 21,8z"/>
  <polygon id="9" fill="#1B4E9B" fill-rule="nonzero" points="3328,1169 3340,1169 3340,1188 3361,1188 3361,1134 3340,1134 3340,1152 3328,1152 3328,1134 3306,1134 3306,1188 3328,1188 "/>
  <polygon id="10" fill="#1B4E9B" fill-rule="nonzero" points="3394,1169 3405,1169 3405,1188 3427,1188 3427,1134 3405,1134 3405,1152 3394,1152 3394,1134 3372,1134 3372,1188 3394,1188 "/>
  <path id="11" fill="#1B4E9B" fill-rule="nonzero" d="M3463 1158c-3,0 -5,-2 -5,-4 0,-2 2,-4 5,-4l5 0 0 8 -5 0zm3 14l2 0 0 16 22 0 0 -54 -30 0c-8,0 -13,2 -17,5 -4,4 -5,8 -5,14 0,7 2,12 8,15l-14 20 24 0 10 -16z"/>
  <polygon id="12" fill="#1B4E9B" fill-rule="nonzero" points="2708,1265 2723,1265 2723,1248 2672,1248 2672,1265 2686,1265 2686,1301 2708,1301 "/>
  <path id="13" fill="#1B4E9B" fill-rule="nonzero" d="M2758 1286c-1,2 -3,3 -6,3 -3,0 -6,-2 -6,-5 0,-4 3,-5 7,-5 2,0 4,0 5,1l0 6zm24 0c-2,0 -3,-1 -3,-3l0 -14c0,-7 -2,-12 -7,-16 -5,-4 -12,-6 -20,-6 -8,0 -14,1 -20,3l0 16c4,-2 9,-3 15,-3 7,0 11,3 11,8 -4,-2 -8,-3 -12,-3 -5,0 -10,2 -14,4 -5,3 -7,7 -7,13 0,5 2,9 5,13 4,3 9,5 14,5 8,0 14,-3 16,-7 2,4 8,7 14,7 5,0 8,-1 11,-3l0 -15c-1,0 -2,1 -3,1z"/>
  <path id="14" fill="#1B4E9B" fill-rule="nonzero" d="M2839 1279l8 0c3,0 4,2 4,5 0,2 -1,4 -4,4l-8 0 0 -9zm6 -18c3,0 4,2 4,4 0,3 -1,4 -4,4l-6 0 0 -8 6 0zm18 12c4,-1 7,-6 7,-11 0,-8 -6,-14 -18,-14l-33 0 0 53 34 0c13,0 21,-5 21,-15 0,-7 -6,-11 -11,-13z"/>
  <path id="15" fill="#1B4E9B" fill-rule="nonzero" d="M2907 1303c6,0 12,-1 17,-4l0 -17c-4,1 -8,2 -12,2 -8,0 -13,-3 -13,-9 0,-6 5,-10 12,-10 4,0 8,1 12,3l0 -18c-4,-2 -9,-3 -15,-3 -10,0 -20,3 -26,12 -3,4 -4,10 -4,16 0,6 1,11 4,15 3,5 7,8 11,10 5,2 10,3 14,3l0 0z"/>
  <polygon id="16" fill="#1B4E9B" fill-rule="nonzero" points="2966,1265 2980,1265 2980,1248 2930,1248 2930,1265 2944,1265 2944,1301 2966,1301 "/>
  <path id="17" fill="#1B4E9B" fill-rule="nonzero" d="M3016 1286c-1,2 -3,3 -6,3 -3,0 -6,-2 -6,-5 0,-4 3,-5 6,-5 3,0 4,0 6,1l0 6zm24 0c-2,0 -3,-1 -3,-3l0 -14c0,-7 -3,-12 -8,-16 -5,-4 -11,-6 -19,-6 -8,0 -15,1 -21,3l0 16c5,-2 10,-3 16,-3 7,0 10,3 10,8 -3,-2 -7,-3 -12,-3 -5,0 -10,2 -14,4 -4,3 -6,7 -6,13 0,5 2,9 5,13 4,3 8,5 14,5 7,0 13,-3 16,-7 2,4 8,7 14,7 4,0 8,-1 11,-3l0 -15c-1,0 -2,1 -3,1z"/>
  <polygon id="18" fill="#1B4E9B" fill-rule="nonzero" points="3072,1283 3084,1283 3084,1301 3106,1301 3106,1248 3084,1248 3084,1266 3072,1266 3072,1248 3050,1248 3050,1301 3072,1301 "/>
  <path id="19" fill="#1B4E9B" fill-rule="nonzero" d="M3143 1303c9,0 17,-3 22,-8 6,-5 9,-12 9,-20 0,-8 -3,-15 -9,-20 -5,-6 -13,-8 -22,-8 -8,0 -16,2 -21,8 -6,5 -9,12 -9,20 0,8 3,15 9,20 5,5 13,8 21,8zm-6 -21c-2,-2 -3,-4 -3,-7 0,-3 1,-5 3,-7 3,-4 10,-4 13,0 2,2 3,4 3,7 0,3 -1,5 -3,7 -3,3 -10,3 -13,0l0 0z"/>
  <path id="20" fill="#1B4E9B" fill-rule="nonzero" d="M3202 1279l7 0c3,0 5,2 5,5 0,2 -2,4 -5,4l-7 0 0 -9zm6 -18c2,0 4,2 4,4 0,3 -1,4 -4,4l-6 0 0 -8 6 0zm17 12c4,-1 8,-6 8,-11 0,-8 -7,-14 -18,-14l-34 0 0 53 34 0c14,0 21,-5 21,-15 0,-7 -5,-11 -11,-13z"/>
  <path id="21" fill="#1B4E9B" fill-rule="nonzero" d="M3280 1301l22 0 0 -53 -52 0 0 13c0,9 0,15 -1,18 -1,4 -3,6 -6,6 -1,0 -2,-1 -3,-1l0 17c2,1 5,1 10,1 10,0 15,-5 18,-13 1,-6 2,-10 2,-17l0 -7 10 0 0 36z"/>
  <path id="22" fill="#1B4E9B" fill-rule="nonzero" d="M3329 1269c1,-5 3,-8 7,-8 4,0 7,3 7,8l-14 0 0 0zm10 34c9,0 17,-2 22,-5l0 -16c-5,2 -11,4 -18,4 -6,0 -12,-2 -14,-7l34 0 0 -5c0,-8 -2,-15 -7,-20 -5,-5 -11,-7 -19,-7 -8,0 -15,2 -20,8 -6,5 -8,12 -8,20 0,8 3,15 8,20 6,5 13,8 22,8z"/>
  <polygon id="23" fill="#1B4E9B" fill-rule="nonzero" points="3393,1283 3405,1283 3405,1301 3426,1301 3426,1248 3405,1248 3405,1266 3393,1266 3393,1248 3371,1248 3371,1301 3393,1301 "/>
  <polygon id="24" fill="#1B4E9B" fill-rule="nonzero" points="3458,1283 3470,1283 3470,1301 3492,1301 3492,1248 3470,1248 3470,1266 3458,1266 3458,1248 3437,1248 3437,1301 3458,1301 "/>
  <path id="25" fill="#1B4E9B" fill-rule="nonzero" d="M3528 1272c-3,0 -5,-2 -5,-4 0,-2 2,-4 5,-4l5 0 0 8 -5 0zm3 14l2 0 0 15 22 0 0 -53 -30 0c-8,0 -13,2 -17,5 -4,4 -6,8 -6,14 0,6 3,12 9,15l-14 19 24 0 10 -15z"/>
  <path fill="#E31E24" fill-rule="nonzero" d="M2789 1845c8,0 16,-3 21,-8 6,-5 9,-12 9,-20 0,-8 -3,-15 -9,-20 -5,-6 -13,-8 -21,-8 -9,0 -17,2 -22,8 -6,5 -9,12 -9,20 0,8 3,15 9,20 5,5 13,8 22,8zm-7 -21c-2,-2 -3,-5 -3,-7 0,-3 1,-5 3,-7 3,-4 10,-4 13,0 2,2 3,4 3,7 0,2 -1,5 -3,7 -3,3 -10,3 -13,0l0 0z"/>
  <path id="1" fill="#E31E24" fill-rule="nonzero" d="M2844 1865c11,0 21,-4 27,-12 3,-4 5,-9 5,-15 0,-8 -3,-14 -8,-18 -5,-4 -12,-7 -21,-6l-2 0 1 -5 25 0 0 -19 -42 0 -5 43c6,-2 12,-3 18,-3 7,0 11,3 11,8 0,5 -3,7 -10,7 -7,0 -14,-2 -20,-6l0 20c6,4 13,6 21,6l0 0z"/>
  <path id="2" fill="#E31E24" fill-rule="nonzero" d="M2910 1845c8,0 16,-3 21,-8 6,-5 9,-12 9,-20 0,-8 -3,-15 -9,-20 -5,-6 -13,-8 -21,-8 -9,0 -16,2 -22,8 -6,5 -9,12 -9,20 0,8 3,15 9,20 6,5 13,8 22,8zm-7 -21c-2,-2 -3,-5 -3,-7 0,-3 1,-5 3,-7 4,-4 10,-4 13,0 2,2 3,4 3,7 0,2 -1,5 -3,7 -3,3 -10,3 -13,0l0 0z"/>
  <path id="3" fill="#E31E24" fill-rule="nonzero" d="M2993 1865c9,0 16,-3 22,-7 6,-5 9,-12 9,-19 0,-10 -5,-18 -16,-22l13 -10 0 -17 -49 0 0 19 23 0 -14 11 0 13c3,-1 7,-2 12,-2 6,0 9,3 9,7 0,5 -4,7 -11,7 -6,0 -13,-2 -21,-6l0 20c7,4 15,6 23,6l0 0z"/>
  <path id="4" fill="#E31E24" fill-rule="nonzero" d="M3053 1865c9,0 16,-3 22,-7 6,-5 9,-12 9,-19 0,-10 -5,-18 -16,-22l13 -10 0 -17 -49 0 0 19 23 0 -15 11 0 13c4,-1 8,-2 13,-2 6,0 9,3 9,7 0,5 -4,7 -11,7 -6,0 -13,-2 -21,-6l0 20c7,4 14,6 23,6l0 0z"/>
  <polygon id="5" fill="#E31E24" fill-rule="nonzero" points="3145,1807 3145,1790 3090,1790 3090,1809 3120,1809 3093,1864 3116,1864 "/>
  <path id="6" fill="#E31E24" fill-rule="nonzero" d="M3206 1827c-4,0 -8,-4 -8,-11 1,-3 5,-5 8,-5 5,0 8,3 8,8 0,4 -3,8 -8,8l0 0zm7 -33c-6,0 -10,2 -13,5 1,-7 7,-10 15,-10 5,0 10,1 15,4l0 -19c-5,-3 -10,-5 -18,-5 -12,0 -21,6 -27,14 -5,8 -8,17 -8,28 0,10 3,19 8,25 5,6 13,9 23,9 8,0 14,-3 20,-7 5,-5 8,-12 8,-20 0,-7 -3,-13 -7,-17 -4,-5 -10,-7 -16,-7z"/>
  <path id="7" fill="#E31E24" fill-rule="nonzero" d="M3271 1845c9,0 17,-3 22,-8 6,-5 9,-12 9,-20 0,-8 -3,-15 -9,-20 -5,-6 -13,-8 -22,-8 -8,0 -16,2 -22,8 -5,5 -8,12 -8,20 0,8 3,15 8,20 6,5 14,8 22,8zm-6 -21c-2,-2 -3,-5 -3,-7 0,-3 1,-5 3,-7 3,-4 9,-4 13,0 2,2 3,4 3,7 0,2 -1,5 -3,7 -3,3 -10,3 -13,0l0 0z"/>
  <polygon id="8" fill="#E31E24" fill-rule="nonzero" points="3387,1807 3387,1790 3332,1790 3332,1809 3362,1809 3335,1864 3358,1864 "/>
  <path id="9" fill="#E31E24" fill-rule="nonzero" d="M3420 1845c9,0 16,-3 22,-8 6,-5 9,-12 9,-20 0,-8 -3,-15 -9,-20 -6,-6 -13,-8 -22,-8 -9,0 -16,2 -22,8 -6,5 -8,12 -8,20 0,8 2,15 8,20 6,5 13,8 22,8zm-7 -21c-1,-2 -2,-5 -2,-7 0,-3 1,-5 2,-7 4,-4 10,-4 14,0 1,2 2,4 2,7 0,2 -1,5 -2,7 -4,3 -10,3 -14,0l0 0z"/>
  <polygon fill="#2B2A29" fill-rule="nonzero" points="2948,1577 2953,1585 2960,1585 2965,1577 2965,1595 2980,1595 2980,1556 2965,1556 2956,1568 2948,1556 2933,1556 2933,1595 2948,1595 "/>
  <polygon id="1" fill="#2B2A29" fill-rule="nonzero" points="3275,1580 3259,1580 3252,1607 3265,1607 "/>
  <path id="2" fill="#2B2A29" fill-rule="nonzero" d="M2994 1578c-2,0 -4,1 -6,3 -2,1 -3,4 -3,6 0,3 1,5 3,7 2,1 4,2 6,2 3,0 5,-1 7,-2 2,-2 3,-4 3,-7 0,-2 -1,-5 -3,-6 -2,-2 -4,-3 -7,-3z"/>
  <polygon id="3" fill="#2B2A29" fill-rule="nonzero" points="3044,1556 3069,1556 3069,1542 3028,1542 3028,1595 3044,1595 "/>
  <path id="4" fill="#2B2A29" fill-rule="nonzero" d="M3079 1572c0,-4 2,-6 5,-6 3,0 5,2 5,6l-10 0 0 0zm6 24c8,0 13,-1 17,-3l0 -12c-4,2 -8,3 -13,3 -5,0 -9,-2 -10,-5l25 0 0 -3c0,-7 -2,-12 -6,-15 -3,-4 -8,-6 -13,-6 -7,0 -12,2 -16,6 -3,4 -5,9 -5,15 0,6 2,11 6,15 4,4 9,5 15,5z"/>
  <path id="5" fill="#2B2A29" fill-rule="nonzero" d="M3125 1571c1,-2 3,-2 6,-2 4,0 6,3 6,7 0,4 -2,7 -6,7 -3,0 -5,-1 -6,-3l0 -9zm0 20c3,4 6,5 11,5 5,0 9,-2 12,-5 3,-4 5,-9 5,-15 0,-6 -2,-11 -5,-15 -3,-4 -7,-6 -12,-6 -5,0 -8,2 -11,6l0 -5 -16 0 0 54 16 0 0 -19z"/>
  <polygon id="6" fill="#2B2A29" fill-rule="nonzero" points="3205,1583 3199,1583 3199,1556 3183,1556 3183,1583 3174,1583 3174,1556 3158,1556 3158,1595 3189,1595 3189,1604 3205,1604 "/>
  <path id="7" fill="#2B2A29" fill-rule="nonzero" d="M3232 1584c-1,2 -3,2 -5,2 -2,0 -4,-1 -4,-4 0,-2 2,-3 5,-3 1,0 3,0 4,1l0 4zm17 0c-1,0 -2,-1 -2,-2l0 -11c0,-4 -2,-8 -5,-11 -4,-3 -9,-5 -15,-5 -5,0 -10,1 -15,3l0 12c4,-2 7,-3 12,-3 5,0 7,2 7,6 -2,-1 -5,-2 -8,-2 -4,0 -8,1 -11,3 -3,2 -4,5 -4,9 0,4 1,7 3,10 3,2 6,3 11,3 5,0 9,-2 11,-5 1,3 6,5 10,5 4,0 6,0 8,-2l0 -11c0,0 -1,1 -2,1z"/>
  <polygon id="8" fill="#2B2A29" fill-rule="nonzero" points="3380,1676 3363,1676 3356,1702 3369,1702 "/>
  <path id="9" fill="#2B2A29" fill-rule="nonzero" d="M3478 1650c2,0 3,2 3,4 0,2 -1,3 -3,3l-9 0 0 -7 9 0zm0 19c3,0 5,2 5,4 0,3 -2,5 -5,5l-9 0 0 -9 9 0zm3 22c6,0 11,-2 14,-5 4,-2 6,-6 6,-11 0,-4 -2,-7 -4,-9 -2,-3 -4,-4 -7,-5 2,0 3,-2 5,-3 1,-2 2,-4 2,-7 0,-4 -2,-8 -5,-10 -3,-2 -7,-3 -12,-3l-27 0 0 53 28 0z"/>
  <path id="10" fill="#2B2A29" fill-rule="nonzero" d="M2723 1674l5 0c3,0 4,2 4,4 0,2 -1,3 -4,3l-5 0 0 -7zm4 -13c2,0 3,1 3,3 0,2 -1,3 -3,3l-4 0 0 -6 4 0zm13 9c3,-1 6,-4 6,-8 0,-6 -5,-10 -14,-10l-24 0 0 39 25 0c10,0 15,-5 15,-11 0,-6 -4,-9 -8,-10z"/>
  <path id="11" fill="#2B2A29" fill-rule="nonzero" d="M2761 1706c8,0 14,-4 17,-12l17 -42 -17 0 -6 22 -7 -22 -17 0 16 37c-1,3 -2,4 -6,4 -2,0 -4,-1 -6,-2l0 13c2,2 5,2 9,2z"/>
  <path id="12" fill="#2B2A29" fill-rule="nonzero" d="M2822 1691l16 0 0 -39 -37 0 0 9c-1,6 -1,11 -2,14 0,2 -1,3 -4,3 0,0 -1,0 -2,0l0 12c2,1 4,1 7,1 8,0 11,-4 13,-9 2,-5 2,-8 2,-13l0 -5 7 0 0 27z"/>
  <path id="13" fill="#2B2A29" fill-rule="nonzero" d="M2853 1673c-3,0 -5,1 -7,3 -2,2 -3,4 -3,6 0,3 1,5 3,7 2,2 4,3 7,3 2,0 4,-1 6,-3 2,-2 3,-4 3,-7 0,-2 -1,-4 -3,-6 -2,-2 -4,-3 -6,-3z"/>
  <polygon id="14" fill="#2B2A29" fill-rule="nonzero" points="2941,1677 2934,1677 2934,1638 2918,1638 2918,1677 2903,1677 2903,1638 2886,1638 2886,1691 2925,1691 2925,1700 2941,1700 "/>
  <path id="15" fill="#2B2A29" fill-rule="nonzero" d="M2959 1667c1,-4 3,-6 6,-6 2,0 5,2 5,6l-11 0 0 0zm7 25c7,0 13,-2 16,-4l0 -12c-3,2 -8,3 -12,3 -5,0 -9,-1 -10,-4l24 0 0 -4c0,-6 -1,-11 -5,-15 -4,-4 -8,-5 -14,-5 -6,0 -11,2 -15,6 -4,3 -6,8 -6,14 0,6 2,11 7,15 4,4 9,6 15,6z"/>
  <polygon id="16" fill="#2B2A29" fill-rule="nonzero" points="3006,1677 3014,1677 3014,1691 3030,1691 3030,1652 3014,1652 3014,1664 3006,1664 3006,1652 2990,1652 2990,1691 3006,1691 "/>
  <polygon id="17" fill="#2B2A29" fill-rule="nonzero" points="3062,1664 3072,1664 3072,1652 3035,1652 3035,1664 3046,1664 3046,1691 3062,1691 "/>
  <path id="18" fill="#2B2A29" fill-rule="nonzero" d="M3093 1667c1,-2 3,-3 6,-3 4,0 7,3 7,7 0,4 -3,7 -7,7 -3,0 -5,-1 -6,-2l0 -9zm0 19c3,4 6,6 11,6 5,0 9,-2 12,-6 4,-4 5,-9 5,-15 0,-6 -1,-11 -5,-15 -3,-3 -7,-5 -12,-5 -5,0 -8,1 -11,5l0 -4 -16 0 0 54 16 0 0 -20z"/>
  <path id="19" fill="#2B2A29" fill-rule="nonzero" d="M3148 1679c-1,2 -2,3 -4,3 -3,0 -4,-2 -4,-4 0,-3 2,-4 4,-4 2,0 3,0 4,1l0 4zm18 0c-2,0 -2,-1 -2,-2l0 -10c0,-5 -2,-9 -6,-12 -3,-3 -8,-4 -14,-4 -6,0 -11,0 -15,2l0 12c3,-2 7,-2 11,-2 5,0 8,2 8,5 -3,-1 -5,-2 -9,-2 -4,0 -7,1 -10,3 -3,2 -5,6 -5,10 0,3 1,7 4,9 2,2 6,4 10,4 5,0 10,-3 12,-6 1,3 5,6 10,6 3,0 6,-1 8,-3l0 -11c-1,1 -2,1 -2,1z"/>
  <path id="20" fill="#2B2A29" fill-rule="nonzero" d="M3200 1691l16 0 0 -39 -37 0 -1 9c0,6 0,11 -1,14 0,2 -1,3 -4,3 0,0 -1,0 -2,0l0 12c2,1 4,1 7,1 8,0 11,-4 13,-9 1,-5 2,-8 2,-13l0 -5 7 0 0 27z"/>
  <path id="21" fill="#2B2A29" fill-rule="nonzero" d="M3239 1672l3 0c3,0 5,1 5,4 0,2 -2,4 -5,4l-3 0 0 -8zm0 -20l-15 0 0 39 22 0c5,0 9,-2 12,-5 3,-2 4,-6 4,-10 0,-4 -1,-8 -5,-10 -3,-3 -7,-4 -12,-4l-6 0 0 -10z"/>
  <polygon id="22" fill="#2B2A29" fill-rule="nonzero" points="3283,1677 3292,1677 3292,1691 3308,1691 3308,1652 3292,1652 3292,1664 3283,1664 3283,1652 3267,1652 3267,1691 3283,1691 "/>
  <path id="23" fill="#2B2A29" fill-rule="nonzero" d="M3336 1679c-1,2 -2,3 -4,3 -3,0 -4,-2 -4,-4 0,-3 2,-4 4,-4 2,0 3,0 4,1l0 4zm18 0c-2,0 -2,-1 -2,-2l0 -10c0,-5 -2,-9 -6,-12 -3,-3 -8,-4 -14,-4 -6,0 -11,0 -15,2l0 12c3,-2 7,-2 11,-2 5,0 8,2 8,5 -3,-1 -5,-2 -9,-2 -4,0 -7,1 -10,3 -3,2 -5,6 -5,10 0,3 1,7 4,9 2,2 6,4 10,4 5,0 10,-3 12,-6 1,3 5,6 10,6 3,0 6,-1 8,-3l0 -11c-1,1 -2,1 -2,1z"/>
  <path id="24" fill="#2B2A29" fill-rule="nonzero" d="M3425 1679l-8 0 8 -10 0 10zm16 12l7 0 0 -12 -7 0 0 -27 -16 0 -24 28 0 11 24 0 0 15 16 0 0 -15z"/>
 </g>
</svg>
