<?xml version="1.0" encoding="UTF-8"?>
<!DOCTYPE svg PUBLIC "-//W3C//DTD SVG 1.1//EN" "http://www.w3.org/Graphics/SVG/1.1/DTD/svg11.dtd">
<!-- Creator: CorelDRAW X7 -->
<svg xmlns="http://www.w3.org/2000/svg" xml:space="preserve" width="805px" height="176px" version="1.1" shape-rendering="geometricPrecision" text-rendering="geometricPrecision" image-rendering="optimizeQuality" fill-rule="evenodd" clip-rule="evenodd"
viewBox="0 0 847 185"
 xmlns:xlink="http://www.w3.org/1999/xlink">
 <g id="Слой_x0020_1">
  <metadata id="CorelCorpID_0Corel-Layer"/>
  <g>
   <path fill="none" fill-rule="nonzero" stroke="#FEFEFE" stroke-width="12.4336" stroke-linecap="round" stroke-linejoin="round" d="M259 42l6 10 6 0 6 -10 0 20 15 0 0 -41 -15 0 -9 13 -9 -13 -15 0 0 41 15 0 0 -20zm345 4l-18 0 -7 28 14 0 11 -28zm-296 -2c-3,0 -5,1 -7,2 -2,2 -3,5 -3,7 0,3 1,5 3,7 2,2 4,3 7,3 3,0 5,-1 7,-3 2,-2 3,-4 3,-7 0,-2 -1,-5 -3,-7 -2,-1 -4,-2 -7,-2zm53 -23l25 0 0 -15 -43 0 0 56 18 0 0 -41zm35 16c1,-4 3,-6 6,-6 3,0 5,2 5,6l-11 0 0 0zm8 26c7,0 13,-1 17,-4l0 -12c-4,2 -9,3 -13,3 -5,0 -10,-2 -11,-5l26 0 0 -4c0,-6 -2,-12 -6,-15 -4,-4 -8,-6 -14,-6 -7,0 -12,2 -16,6 -4,4 -6,9 -6,15 0,7 2,12 7,16 4,4 9,6 16,6zm41 -26c2,-2 4,-3 7,-3 4,0 6,3 6,7 0,5 -2,8 -6,8 -3,0 -5,-1 -7,-3l0 -9zm1 20c2,4 6,6 11,6 5,0 9,-2 13,-6 3,-4 5,-9 5,-16 0,-6 -2,-11 -5,-15 -4,-4 -8,-6 -13,-6 -5,0 -9,2 -11,6l0 -5 -17 0 0 57 17 0 0 -21zm83 -8l-6 0 0 -28 -17 0 0 28 -9 0 0 -28 -17 0 0 41 33 0 0 9 16 0 0 -22zm29 1c-1,2 -3,2 -5,2 -2,0 -4,-1 -4,-4 0,-2 2,-4 4,-4 2,0 4,1 5,2l0 4zm18 0c-1,0 -2,-1 -2,-2l0 -11c0,-5 -2,-9 -6,-12 -4,-4 -9,-5 -15,-5 -6,0 -11,1 -16,3l0 12c4,-2 8,-3 12,-3 6,0 8,3 8,7 -2,-2 -5,-3 -9,-3 -4,0 -8,1 -11,4 -3,2 -5,5 -5,9 0,4 2,8 4,10 3,3 7,4 11,4 6,0 10,-2 12,-5 2,3 6,5 11,5 3,0 6,-1 8,-2l0 -12c0,1 -1,1 -2,1zm138 96l-18 0 -7 28 14 0 11 -28zm103 -26c2,0 4,1 4,4 0,2 -2,3 -4,3l-9 0 0 -7 9 0zm0 19c3,0 5,2 5,5 0,3 -2,5 -5,5l-9 0 0 -10 9 0zm3 23c6,0 11,-1 15,-4 4,-3 6,-7 6,-12 0,-4 -1,-7 -4,-10 -2,-3 -4,-4 -7,-5 2,0 3,-2 5,-3 1,-2 2,-5 2,-7 0,-5 -2,-8 -5,-11 -3,-2 -8,-3 -13,-3l-28 0 0 55 29 0zm-798 -17l6 0c2,0 3,1 3,4 0,2 -1,3 -3,3l-6 0 0 -7zm5 -14c2,0 3,2 3,3 0,2 -1,3 -3,3l-5 0 0 -6 5 0zm13 9c3,-1 6,-4 6,-8 0,-6 -5,-11 -14,-11l-26 0 0 41 27 0c10,0 16,-4 16,-11 0,-6 -4,-9 -9,-11zm22 39c9,0 15,-4 18,-13l18 -45 -18 0 -6 23 -8 -23 -17 0 17 40c-1,3 -3,3 -7,3 -2,0 -5,0 -7,-2l0 15c3,1 6,2 10,2zm64 -17l17 0 0 -41 -39 0 0 10c0,7 -1,12 -1,14 -1,3 -2,4 -5,4 0,0 -1,0 -2,0l0 13c2,1 4,1 7,1 8,0 12,-4 14,-10 2,-5 2,-8 2,-13l0 -6 7 0 0 28zm33 -18c-3,0 -5,1 -7,3 -2,2 -3,4 -3,7 0,2 1,5 3,7 2,1 4,2 7,2 2,0 5,-1 7,-2 2,-2 2,-5 2,-7 0,-3 0,-5 -2,-7 -2,-2 -5,-3 -7,-3zm92 4l-7 0 0 -41 -17 0 0 41 -16 0 0 -41 -17 0 0 55 41 0 0 11 16 0 0 -25zm20 -11c0,-3 2,-6 6,-6 2,0 5,3 5,6l-11 0 0 0zm7 26c8,0 14,-1 17,-4l0 -12c-4,2 -8,3 -13,3 -5,0 -9,-1 -11,-5l26 0 0 -3c0,-7 -2,-12 -5,-16 -4,-4 -9,-6 -15,-6 -6,0 -12,2 -16,6 -4,5 -6,10 -6,16 0,6 2,12 7,16 4,3 10,5 16,5zm42 -15l9 0 0 14 17 0 0 -41 -17 0 0 14 -9 0 0 -14 -17 0 0 41 17 0 0 -14zm59 -14l11 0 0 -13 -39 0 0 13 11 0 0 28 17 0 0 -28zm33 3c1,-2 3,-3 6,-3 4,0 7,4 7,8 0,4 -3,7 -7,7 -3,0 -5,-1 -6,-3l0 -9zm0 21c3,3 6,5 11,5 6,0 10,-2 13,-6 4,-4 6,-9 6,-15 0,-6 -2,-12 -6,-16 -3,-4 -7,-6 -13,-6 -5,0 -8,2 -11,6l0 -5 -17 0 0 57 17 0 0 -20zm58 -8c-1,2 -3,3 -5,3 -2,0 -4,-2 -4,-4 0,-3 2,-4 5,-4 1,0 3,0 4,1l0 4zm18 0c-1,0 -2,-1 -2,-2l0 -11c0,-5 -2,-9 -6,-12 -4,-3 -9,-5 -15,-5 -6,0 -11,1 -15,3l0 12c3,-1 7,-2 11,-2 6,0 9,2 9,6 -3,-2 -6,-2 -10,-2 -4,0 -7,1 -11,3 -3,2 -4,5 -4,10 0,4 1,7 4,10 2,2 6,3 10,3 6,0 10,-2 12,-5 2,3 6,5 11,5 4,0 6,-1 8,-2l0 -12c0,1 -1,1 -2,1zm36 12l17 0 0 -41 -39 0 0 10c0,7 -1,12 -1,14 -1,3 -2,4 -5,4 0,0 -1,0 -2,0l0 13c1,1 4,1 7,1 8,0 12,-4 14,-10 1,-5 2,-8 2,-13l0 -6 7 0 0 28zm41 -20l4 0c3,0 4,2 4,5 0,2 -1,4 -4,4l-4 0 0 -9zm0 -21l-16 0 0 41 23 0c6,0 10,-1 13,-4 3,-3 5,-7 5,-11 0,-5 -2,-8 -5,-11 -4,-3 -8,-4 -13,-4l-7 0 0 -11zm47 27l9 0 0 14 17 0 0 -41 -17 0 0 14 -9 0 0 -14 -17 0 0 41 17 0 0 -14zm56 2c-1,2 -3,3 -5,3 -2,0 -4,-2 -4,-4 0,-3 2,-4 5,-4 1,0 3,0 4,1l0 4zm18 0c-1,0 -2,-1 -2,-2l0 -11c0,-5 -2,-9 -6,-12 -4,-3 -9,-5 -15,-5 -6,0 -11,1 -15,3l0 12c3,-1 7,-2 11,-2 6,0 9,2 9,6 -3,-2 -6,-2 -10,-2 -4,0 -7,1 -11,3 -3,2 -4,5 -4,10 0,4 1,7 3,10 3,2 7,3 11,3 6,0 10,-2 12,-5 2,3 6,5 11,5 4,0 6,-1 8,-2l0 -12c0,1 -1,1 -2,1zm75 0l-8 0 8 -10 0 10zm17 12l8 0 0 -12 -8 0 0 -29 -17 0 -25 30 0 11 25 0 0 16 17 0 0 -16z"/>
   <path id="1" fill="#2B2A29" fill-rule="nonzero" d="M259 42l6 10 6 0 6 -10 0 20 15 0 0 -41 -15 0 -9 13 -9 -13 -15 0 0 41 15 0 0 -20zm345 4l-18 0 -7 28 14 0 11 -28zm-296 -2c-3,0 -5,1 -7,2 -2,2 -3,5 -3,7 0,3 1,5 3,7 2,2 4,3 7,3 3,0 5,-1 7,-3 2,-2 3,-4 3,-7 0,-2 -1,-5 -3,-7 -2,-1 -4,-2 -7,-2zm53 -23l25 0 0 -15 -43 0 0 56 18 0 0 -41zm35 16c1,-4 3,-6 6,-6 3,0 5,2 5,6l-11 0 0 0zm8 26c7,0 13,-1 17,-4l0 -12c-4,2 -9,3 -13,3 -5,0 -10,-2 -11,-5l26 0 0 -4c0,-6 -2,-12 -6,-15 -4,-4 -8,-6 -14,-6 -7,0 -12,2 -16,6 -4,4 -6,9 -6,15 0,7 2,12 7,16 4,4 9,6 16,6zm41 -26c2,-2 4,-3 7,-3 4,0 6,3 6,7 0,5 -2,8 -6,8 -3,0 -5,-1 -7,-3l0 -9zm1 20c2,4 6,6 11,6 5,0 9,-2 13,-6 3,-4 5,-9 5,-16 0,-6 -2,-11 -5,-15 -4,-4 -8,-6 -13,-6 -5,0 -9,2 -11,6l0 -5 -17 0 0 57 17 0 0 -21zm83 -8l-6 0 0 -28 -17 0 0 28 -9 0 0 -28 -17 0 0 41 33 0 0 9 16 0 0 -22zm29 1c-1,2 -3,2 -5,2 -2,0 -4,-1 -4,-4 0,-2 2,-4 4,-4 2,0 4,1 5,2l0 4zm18 0c-1,0 -2,-1 -2,-2l0 -11c0,-5 -2,-9 -6,-12 -4,-4 -9,-5 -15,-5 -6,0 -11,1 -16,3l0 12c4,-2 8,-3 12,-3 6,0 8,3 8,7 -2,-2 -5,-3 -9,-3 -4,0 -8,1 -11,4 -3,2 -5,5 -5,9 0,4 2,8 4,10 3,3 7,4 11,4 6,0 10,-2 12,-5 2,3 6,5 11,5 3,0 6,-1 8,-2l0 -12c0,1 -1,1 -2,1zm138 96l-18 0 -7 28 14 0 11 -28zm103 -26c2,0 4,1 4,4 0,2 -2,3 -4,3l-9 0 0 -7 9 0zm0 19c3,0 5,2 5,5 0,3 -2,5 -5,5l-9 0 0 -10 9 0zm3 23c6,0 11,-1 15,-4 4,-3 6,-7 6,-12 0,-4 -1,-7 -4,-10 -2,-3 -4,-4 -7,-5 2,0 3,-2 5,-3 1,-2 2,-5 2,-7 0,-5 -2,-8 -5,-11 -3,-2 -8,-3 -13,-3l-28 0 0 55 29 0zm-798 -17l6 0c2,0 3,1 3,4 0,2 -1,3 -3,3l-6 0 0 -7zm5 -14c2,0 3,2 3,3 0,2 -1,3 -3,3l-5 0 0 -6 5 0zm13 9c3,-1 6,-4 6,-8 0,-6 -5,-11 -14,-11l-26 0 0 41 27 0c10,0 16,-4 16,-11 0,-6 -4,-9 -9,-11zm22 39c9,0 15,-4 18,-13l18 -45 -18 0 -6 23 -8 -23 -17 0 17 40c-1,3 -3,3 -7,3 -2,0 -5,0 -7,-2l0 15c3,1 6,2 10,2zm64 -17l17 0 0 -41 -39 0 0 10c0,7 -1,12 -1,14 -1,3 -2,4 -5,4 0,0 -1,0 -2,0l0 13c2,1 4,1 7,1 8,0 12,-4 14,-10 2,-5 2,-8 2,-13l0 -6 7 0 0 28zm33 -18c-3,0 -5,1 -7,3 -2,2 -3,4 -3,7 0,2 1,5 3,7 2,1 4,2 7,2 2,0 5,-1 7,-2 2,-2 2,-5 2,-7 0,-3 0,-5 -2,-7 -2,-2 -5,-3 -7,-3zm92 4l-7 0 0 -41 -17 0 0 41 -16 0 0 -41 -17 0 0 55 41 0 0 11 16 0 0 -25zm20 -11c0,-3 2,-6 6,-6 2,0 5,3 5,6l-11 0 0 0zm7 26c8,0 14,-1 17,-4l0 -12c-4,2 -8,3 -13,3 -5,0 -9,-1 -11,-5l26 0 0 -3c0,-7 -2,-12 -5,-16 -4,-4 -9,-6 -15,-6 -6,0 -12,2 -16,6 -4,5 -6,10 -6,16 0,6 2,12 7,16 4,3 10,5 16,5zm42 -15l9 0 0 14 17 0 0 -41 -17 0 0 14 -9 0 0 -14 -17 0 0 41 17 0 0 -14zm59 -14l11 0 0 -13 -39 0 0 13 11 0 0 28 17 0 0 -28zm33 3c1,-2 3,-3 6,-3 4,0 7,4 7,8 0,4 -3,7 -7,7 -3,0 -5,-1 -6,-3l0 -9zm0 21c3,3 6,5 11,5 6,0 10,-2 13,-6 4,-4 6,-9 6,-15 0,-6 -2,-12 -6,-16 -3,-4 -7,-6 -13,-6 -5,0 -8,2 -11,6l0 -5 -17 0 0 57 17 0 0 -20zm58 -8c-1,2 -3,3 -5,3 -2,0 -4,-2 -4,-4 0,-3 2,-4 5,-4 1,0 3,0 4,1l0 4zm18 0c-1,0 -2,-1 -2,-2l0 -11c0,-5 -2,-9 -6,-12 -4,-3 -9,-5 -15,-5 -6,0 -11,1 -15,3l0 12c3,-1 7,-2 11,-2 6,0 9,2 9,6 -3,-2 -6,-2 -10,-2 -4,0 -7,1 -11,3 -3,2 -4,5 -4,10 0,4 1,7 4,10 2,2 6,3 10,3 6,0 10,-2 12,-5 2,3 6,5 11,5 4,0 6,-1 8,-2l0 -12c0,1 -1,1 -2,1zm36 12l17 0 0 -41 -39 0 0 10c0,7 -1,12 -1,14 -1,3 -2,4 -5,4 0,0 -1,0 -2,0l0 13c1,1 4,1 7,1 8,0 12,-4 14,-10 1,-5 2,-8 2,-13l0 -6 7 0 0 28zm41 -20l4 0c3,0 4,2 4,5 0,2 -1,4 -4,4l-4 0 0 -9zm0 -21l-16 0 0 41 23 0c6,0 10,-1 13,-4 3,-3 5,-7 5,-11 0,-5 -2,-8 -5,-11 -4,-3 -8,-4 -13,-4l-7 0 0 -11zm47 27l9 0 0 14 17 0 0 -41 -17 0 0 14 -9 0 0 -14 -17 0 0 41 17 0 0 -14zm56 2c-1,2 -3,3 -5,3 -2,0 -4,-2 -4,-4 0,-3 2,-4 5,-4 1,0 3,0 4,1l0 4zm18 0c-1,0 -2,-1 -2,-2l0 -11c0,-5 -2,-9 -6,-12 -4,-3 -9,-5 -15,-5 -6,0 -11,1 -15,3l0 12c3,-1 7,-2 11,-2 6,0 9,2 9,6 -3,-2 -6,-2 -10,-2 -4,0 -7,1 -11,3 -3,2 -4,5 -4,10 0,4 1,7 3,10 3,2 7,3 11,3 6,0 10,-2 12,-5 2,3 6,5 11,5 4,0 6,-1 8,-2l0 -12c0,1 -1,1 -2,1zm75 0l-8 0 8 -10 0 10zm17 12l8 0 0 -12 -8 0 0 -29 -17 0 -25 30 0 11 25 0 0 16 17 0 0 -16z"/>
  </g>
 </g>
</svg>
