<?xml version="1.0" encoding="UTF-8"?>
<!DOCTYPE svg PUBLIC "-//W3C//DTD SVG 1.1//EN" "http://www.w3.org/Graphics/SVG/1.1/DTD/svg11.dtd">
<!-- Creator: CorelDRAW X7 -->
<svg xmlns="http://www.w3.org/2000/svg" xml:space="preserve" width="2517px" height="551px" version="1.1" shape-rendering="geometricPrecision" text-rendering="geometricPrecision" image-rendering="optimizeQuality" fill-rule="evenodd" clip-rule="evenodd"
viewBox="0 0 2517 551"
 xmlns:xlink="http://www.w3.org/1999/xlink">
 <g id="Слой_x0020_1">
  <metadata id="CorelCorpID_0Corel-Layer"/>
  <g id="_685192592">
   <path fill="none" stroke="#FEFEFE" stroke-width="36.9296" stroke-linecap="round" stroke-linejoin="round" d="M770 125l18 30 18 0 17 -30 0 60 45 0 0 -122 -45 0 -26 39 -27 -39 -45 0 0 122 45 0 0 -60zm1025 12l-54 0 -21 83 42 0 33 -83 0 0zm-880 -6c-8,0 -14,3 -20,6 -6,6 -9,15 -9,21 0,9 3,15 9,21 6,6 12,9 20,9 9,0 15,-3 21,-9 6,-6 9,-12 9,-21 0,-6 -3,-15 -9,-21 -6,-3 -12,-6 -21,-6zm158 -68l74 0 0 -45 -128 0 0 167 54 0 0 -122zm104 48c3,-12 9,-18 18,-18 9,0 14,6 14,18l-32 0 0 0zm24 77c20,0 38,-3 50,-12l0 -36c-12,6 -27,9 -39,9 -14,0 -29,-6 -32,-15l77 0 0 -12c0,-17 -6,-35 -18,-44 -12,-12 -24,-18 -41,-18 -21,0 -36,6 -48,18 -12,12 -18,27 -18,44 0,21 6,36 21,48 12,12 27,18 48,18l0 0zm121 -77c6,-6 12,-9 21,-9 12,0 18,9 18,20 0,15 -6,24 -18,24 -9,0 -15,-3 -21,-9l0 -26 0 0zm3 59c6,12 18,18 33,18 15,0 27,-6 39,-18 9,-12 14,-27 14,-48 0,-17 -5,-32 -14,-44 -12,-12 -24,-18 -39,-18 -15,0 -27,6 -33,18l0 -15 -50 0 0 169 50 0 0 -62zm247 -24l-18 0 0 -83 -50 0 0 83 -27 0 0 -83 -51 0 0 122 98 0 0 27 48 0 0 -66 0 0zm86 3c-3,6 -9,6 -15,6 -6,0 -12,-3 -12,-12 0,-6 6,-12 12,-12 6,0 12,3 15,6l0 12 0 0zm53 0c-3,0 -5,-3 -5,-6l0 -32c0,-15 -6,-27 -18,-36 -12,-12 -27,-15 -45,-15 -18,0 -33,3 -47,9l0 36c11,-6 23,-9 35,-9 18,0 24,9 24,20 -6,-5 -15,-8 -27,-8 -12,0 -23,3 -32,11 -9,6 -15,15 -15,27 0,12 6,24 12,30 9,9 20,12 32,12 18,0 30,-6 36,-15 6,9 18,15 33,15 9,0 17,-3 23,-6l0 -36c0,3 -3,3 -6,3l0 0zm410 285l-53 0 -21 83 42 0 32 -83 0 0zm306 -77c6,0 12,3 12,12 0,6 -6,9 -12,9l-26 0 0 -21 26 0 0 0zm0 56c9,0 15,6 15,15 0,9 -6,15 -15,15l-26 0 0 -30 26 0zm9 69c18,0 33,-3 45,-12 12,-9 18,-21 18,-36 0,-12 -3,-21 -12,-29 -6,-9 -12,-12 -21,-15 6,0 9,-6 15,-9 3,-6 6,-15 6,-21 0,-15 -6,-24 -15,-33 -9,-6 -24,-9 -39,-9l-83 0 0 164 86 0zm-2370 -51l18 0c6,0 9,3 9,12 0,6 -3,9 -9,9l-18 0 0 -21 0 0zm15 -41c6,0 9,6 9,9 0,6 -3,9 -9,9l-15 0 0 -18 15 0zm38 26c9,-3 18,-11 18,-23 0,-18 -15,-33 -41,-33l-78 0 0 122 81 0c29,0 47,-12 47,-33 0,-18 -12,-27 -27,-33l0 0zm66 116c27,0 44,-12 53,-38l54 -134 -54 0 -18 68 -23 -68 -51 0 51 119c-3,9 -9,9 -21,9 -6,0 -15,0 -21,-6l0 44c9,3 18,6 30,6zm190 -50l50 0 0 -122 -115 0 0 30c0,21 -3,35 -3,41 -3,9 -6,12 -15,12 0,0 -3,0 -6,0l0 39c6,3 12,3 21,3 23,0 35,-12 41,-30 6,-15 6,-24 6,-39l0 -17 21 0 0 83 0 0zm98 -54c-9,0 -15,3 -21,9 -6,6 -9,12 -9,21 0,6 3,15 9,21 6,3 12,6 21,6 6,0 15,-3 21,-6 6,-6 6,-15 6,-21 0,-9 0,-15 -6,-21 -6,-6 -15,-9 -21,-9zm273 12l-21 0 0 -122 -50 0 0 122 -48 0 0 -122 -50 0 0 164 122 0 0 32 47 0 0 -74zm60 -32c0,-9 5,-18 17,-18 6,0 15,9 15,18l-32 0 0 0zm20 77c24,0 42,-3 51,-12l0 -36c-12,6 -24,9 -39,9 -15,0 -27,-3 -32,-15l77 0 0 -9c0,-20 -6,-35 -15,-47 -12,-12 -27,-18 -45,-18 -17,0 -35,6 -47,18 -12,15 -18,30 -18,47 0,18 6,36 21,48 12,9 30,15 47,15l0 0zm125 -45l27 0 0 42 50 0 0 -122 -50 0 0 42 -27 0 0 -42 -50 0 0 122 50 0 0 -42zm175 -41l33 0 0 -39 -116 0 0 39 33 0 0 83 50 0 0 -83zm98 9c3,-6 9,-9 18,-9 12,0 21,12 21,23 0,12 -9,21 -21,21 -9,0 -15,-3 -18,-9l0 -26 0 0zm0 62c9,9 18,15 33,15 18,0 30,-6 39,-18 12,-12 17,-27 17,-45 0,-17 -5,-35 -17,-47 -9,-12 -21,-18 -39,-18 -15,0 -24,6 -33,18l0 -15 -50 0 0 169 50 0 0 -59 0 0zm173 -24c-3,6 -9,9 -15,9 -6,0 -12,-6 -12,-12 0,-9 6,-12 15,-12 3,0 9,0 12,3l0 12zm53 0c-3,0 -6,-3 -6,-6l0 -32c0,-15 -6,-27 -18,-36 -12,-9 -26,-15 -44,-15 -18,0 -33,3 -45,9l0 36c9,-3 21,-6 33,-6 18,0 27,6 27,17 -9,-5 -18,-5 -30,-5 -12,0 -21,3 -33,8 -9,6 -12,15 -12,30 0,12 3,21 12,30 6,6 18,9 30,9 18,0 30,-6 36,-15 6,9 17,15 32,15 12,0 18,-3 24,-6l0 -36c0,3 -3,3 -6,3l0 0zm107 36l50 0 0 -122 -115 0 0 30c0,21 -3,35 -3,41 -3,9 -6,12 -15,12 0,0 -3,0 -6,0l0 39c3,3 12,3 21,3 23,0 35,-12 41,-30 3,-15 6,-24 6,-39l0 -17 21 0 0 83 0 0zm122 -60l12 0c9,0 12,6 12,15 0,6 -3,12 -12,12l-12 0 0 -27zm0 -62l-48 0 0 122 69 0c17,0 29,-3 38,-12 9,-9 15,-21 15,-33 0,-15 -6,-24 -15,-32 -12,-9 -24,-12 -38,-12l-21 0 0 -33 0 0zm139 80l27 0 0 42 51 0 0 -122 -51 0 0 42 -27 0 0 -42 -50 0 0 122 50 0 0 -42zm167 6c-3,6 -9,9 -15,9 -6,0 -12,-6 -12,-12 0,-9 6,-12 15,-12 3,0 9,0 12,3l0 12zm53 0c-3,0 -6,-3 -6,-6l0 -32c0,-15 -6,-27 -18,-36 -11,-9 -26,-15 -44,-15 -18,0 -33,3 -45,9l0 36c9,-3 21,-6 33,-6 18,0 27,6 27,17 -9,-5 -18,-5 -30,-5 -12,0 -21,3 -33,8 -9,6 -12,15 -12,30 0,12 3,21 9,30 9,6 21,9 33,9 18,0 30,-6 36,-15 6,9 17,15 32,15 12,0 18,-3 24,-6l0 -36c0,3 -3,3 -6,3l0 0zm223 0l-24 0 24 -30 0 30zm50 36l24 0 0 -36 -24 0 0 -86 -50 0 -74 89 0 33 74 0 0 47 50 0 0 -47z"/>
   <path id="_1" fill="#2B2A29" fill-rule="nonzero" d="M770 125l18 30 18 0 17 -30 0 60 45 0 0 -122 -45 0 -26 39 -27 -39 -45 0 0 122 45 0 0 -60zm1025 12l-54 0 -21 83 42 0 33 -83 0 0zm-880 -6c-8,0 -14,3 -20,6 -6,6 -9,15 -9,21 0,9 3,15 9,21 6,6 12,9 20,9 9,0 15,-3 21,-9 6,-6 9,-12 9,-21 0,-6 -3,-15 -9,-21 -6,-3 -12,-6 -21,-6zm158 -68l74 0 0 -45 -128 0 0 167 54 0 0 -122zm104 48c3,-12 9,-18 18,-18 9,0 14,6 14,18l-32 0 0 0zm24 77c20,0 38,-3 50,-12l0 -36c-12,6 -27,9 -39,9 -14,0 -29,-6 -32,-15l77 0 0 -12c0,-17 -6,-35 -18,-44 -12,-12 -24,-18 -41,-18 -21,0 -36,6 -48,18 -12,12 -18,27 -18,44 0,21 6,36 21,48 12,12 27,18 48,18l0 0zm121 -77c6,-6 12,-9 21,-9 12,0 18,9 18,20 0,15 -6,24 -18,24 -9,0 -15,-3 -21,-9l0 -26 0 0zm3 59c6,12 18,18 33,18 15,0 27,-6 39,-18 9,-12 14,-27 14,-48 0,-17 -5,-32 -14,-44 -12,-12 -24,-18 -39,-18 -15,0 -27,6 -33,18l0 -15 -50 0 0 169 50 0 0 -62zm247 -24l-18 0 0 -83 -50 0 0 83 -27 0 0 -83 -51 0 0 122 98 0 0 27 48 0 0 -66 0 0zm86 3c-3,6 -9,6 -15,6 -6,0 -12,-3 -12,-12 0,-6 6,-12 12,-12 6,0 12,3 15,6l0 12 0 0zm53 0c-3,0 -5,-3 -5,-6l0 -32c0,-15 -6,-27 -18,-36 -12,-12 -27,-15 -45,-15 -18,0 -33,3 -47,9l0 36c11,-6 23,-9 35,-9 18,0 24,9 24,20 -6,-5 -15,-8 -27,-8 -12,0 -23,3 -32,11 -9,6 -15,15 -15,27 0,12 6,24 12,30 9,9 20,12 32,12 18,0 30,-6 36,-15 6,9 18,15 33,15 9,0 17,-3 23,-6l0 -36c0,3 -3,3 -6,3l0 0zm410 285l-53 0 -21 83 42 0 32 -83 0 0zm306 -77c6,0 12,3 12,12 0,6 -6,9 -12,9l-26 0 0 -21 26 0 0 0zm0 56c9,0 15,6 15,15 0,9 -6,15 -15,15l-26 0 0 -30 26 0zm9 69c18,0 33,-3 45,-12 12,-9 18,-21 18,-36 0,-12 -3,-21 -12,-29 -6,-9 -12,-12 -21,-15 6,0 9,-6 15,-9 3,-6 6,-15 6,-21 0,-15 -6,-24 -15,-33 -9,-6 -24,-9 -39,-9l-83 0 0 164 86 0zm-2370 -51l18 0c6,0 9,3 9,12 0,6 -3,9 -9,9l-18 0 0 -21 0 0zm15 -41c6,0 9,6 9,9 0,6 -3,9 -9,9l-15 0 0 -18 15 0zm38 26c9,-3 18,-11 18,-23 0,-18 -15,-33 -41,-33l-78 0 0 122 81 0c29,0 47,-12 47,-33 0,-18 -12,-27 -27,-33l0 0zm66 116c27,0 44,-12 53,-38l54 -134 -54 0 -18 68 -23 -68 -51 0 51 119c-3,9 -9,9 -21,9 -6,0 -15,0 -21,-6l0 44c9,3 18,6 30,6zm190 -50l50 0 0 -122 -115 0 0 30c0,21 -3,35 -3,41 -3,9 -6,12 -15,12 0,0 -3,0 -6,0l0 39c6,3 12,3 21,3 23,0 35,-12 41,-30 6,-15 6,-24 6,-39l0 -17 21 0 0 83 0 0zm98 -54c-9,0 -15,3 -21,9 -6,6 -9,12 -9,21 0,6 3,15 9,21 6,3 12,6 21,6 6,0 15,-3 21,-6 6,-6 6,-15 6,-21 0,-9 0,-15 -6,-21 -6,-6 -15,-9 -21,-9zm273 12l-21 0 0 -122 -50 0 0 122 -48 0 0 -122 -50 0 0 164 122 0 0 32 47 0 0 -74zm60 -32c0,-9 5,-18 17,-18 6,0 15,9 15,18l-32 0 0 0zm20 77c24,0 42,-3 51,-12l0 -36c-12,6 -24,9 -39,9 -15,0 -27,-3 -32,-15l77 0 0 -9c0,-20 -6,-35 -15,-47 -12,-12 -27,-18 -45,-18 -17,0 -35,6 -47,18 -12,15 -18,30 -18,47 0,18 6,36 21,48 12,9 30,15 47,15l0 0zm125 -45l27 0 0 42 50 0 0 -122 -50 0 0 42 -27 0 0 -42 -50 0 0 122 50 0 0 -42zm175 -41l33 0 0 -39 -116 0 0 39 33 0 0 83 50 0 0 -83zm98 9c3,-6 9,-9 18,-9 12,0 21,12 21,23 0,12 -9,21 -21,21 -9,0 -15,-3 -18,-9l0 -26 0 0zm0 62c9,9 18,15 33,15 18,0 30,-6 39,-18 12,-12 17,-27 17,-45 0,-17 -5,-35 -17,-47 -9,-12 -21,-18 -39,-18 -15,0 -24,6 -33,18l0 -15 -50 0 0 169 50 0 0 -59 0 0zm173 -24c-3,6 -9,9 -15,9 -6,0 -12,-6 -12,-12 0,-9 6,-12 15,-12 3,0 9,0 12,3l0 12zm53 0c-3,0 -6,-3 -6,-6l0 -32c0,-15 -6,-27 -18,-36 -12,-9 -26,-15 -44,-15 -18,0 -33,3 -45,9l0 36c9,-3 21,-6 33,-6 18,0 27,6 27,17 -9,-5 -18,-5 -30,-5 -12,0 -21,3 -33,8 -9,6 -12,15 -12,30 0,12 3,21 12,30 6,6 18,9 30,9 18,0 30,-6 36,-15 6,9 17,15 32,15 12,0 18,-3 24,-6l0 -36c0,3 -3,3 -6,3l0 0zm107 36l50 0 0 -122 -115 0 0 30c0,21 -3,35 -3,41 -3,9 -6,12 -15,12 0,0 -3,0 -6,0l0 39c3,3 12,3 21,3 23,0 35,-12 41,-30 3,-15 6,-24 6,-39l0 -17 21 0 0 83 0 0zm122 -60l12 0c9,0 12,6 12,15 0,6 -3,12 -12,12l-12 0 0 -27zm0 -62l-48 0 0 122 69 0c17,0 29,-3 38,-12 9,-9 15,-21 15,-33 0,-15 -6,-24 -15,-32 -12,-9 -24,-12 -38,-12l-21 0 0 -33 0 0zm139 80l27 0 0 42 51 0 0 -122 -51 0 0 42 -27 0 0 -42 -50 0 0 122 50 0 0 -42zm167 6c-3,6 -9,9 -15,9 -6,0 -12,-6 -12,-12 0,-9 6,-12 15,-12 3,0 9,0 12,3l0 12zm53 0c-3,0 -6,-3 -6,-6l0 -32c0,-15 -6,-27 -18,-36 -11,-9 -26,-15 -44,-15 -18,0 -33,3 -45,9l0 36c9,-3 21,-6 33,-6 18,0 27,6 27,17 -9,-5 -18,-5 -30,-5 -12,0 -21,3 -33,8 -9,6 -12,15 -12,30 0,12 3,21 9,30 9,6 21,9 33,9 18,0 30,-6 36,-15 6,9 17,15 32,15 12,0 18,-3 24,-6l0 -36c0,3 -3,3 -6,3l0 0zm223 0l-24 0 24 -30 0 30zm50 36l24 0 0 -36 -24 0 0 -86 -50 0 -74 89 0 33 74 0 0 47 50 0 0 -47z"/>
  </g>
 </g>
</svg>
