<?xml version="1.0" encoding="UTF-8"?>
<!DOCTYPE svg PUBLIC "-//W3C//DTD SVG 1.1//EN" "http://www.w3.org/Graphics/SVG/1.1/DTD/svg11.dtd">
<!-- Creator: CorelDRAW X7 -->
<svg xmlns="http://www.w3.org/2000/svg" xml:space="preserve" width="210mm" height="297mm" version="1.1" style="shape-rendering:geometricPrecision; text-rendering:geometricPrecision; image-rendering:optimizeQuality; fill-rule:evenodd; clip-rule:evenodd"
viewBox="0 0 21000 29700"
 xmlns:xlink="http://www.w3.org/1999/xlink">
 <defs>
  <style type="text/css">
   <![CDATA[
    .str0 {stroke:#FEFEFE;stroke-width:977.1;stroke-linecap:round;stroke-linejoin:round}
    .fil0 {fill:#898989}
    .fil1 {fill:#898989;fill-rule:nonzero}
   ]]>
  </style>
 </defs>
 <g id="Слой_x0020_1">
  <metadata id="CorelCorpID_0Corel-Layer"/>
  <g id="_685192592">
   <path class="fil0 str0" d="M-2425 10868l476 794 477 0 449 -794 0 1588 1191 0 0 -3228 -1191 0 -688 1031 -714 -1031 -1191 0 0 3228 1191 0 0 -1588 0 0zm27120 318l-1429 0 -555 2196 1111 0 873 -2196 0 0zm-23283 -159c-212,0 -371,79 -530,159 -158,158 -238,396 -238,555 0,238 80,397 238,556 159,159 318,238 530,238 238,0 396,-79 555,-238 159,-159 238,-318 238,-556 0,-159 -79,-397 -238,-555 -159,-80 -317,-159 -555,-159zm4180 -1799l1958 0 0 -1191 -3387 0 0 4419 1429 0 0 -3228 0 0zm2752 1270c79,-318 238,-477 476,-477 238,0 370,159 370,477l-846 0 0 0zm635 2037c529,0 1005,-79 1323,-318l0 -952c-318,159 -715,238 -1032,238 -371,0 -768,-159 -847,-397l2037 0 0 -317c0,-450 -158,-926 -476,-1165 -317,-317 -635,-476 -1085,-476 -555,0 -952,159 -1270,476 -317,318 -476,715 -476,1165 0,555 159,952 556,1270 317,317 714,476 1270,476l0 0zm3201 -2037c159,-159 318,-239 556,-239 317,0 476,239 476,530 0,397 -159,635 -476,635 -238,0 -397,-80 -556,-238l0 -688 0 0 0 0zm79 1561c159,317 477,476 874,476 396,0 714,-159 1031,-476 239,-318 371,-715 371,-1270 0,-450 -132,-847 -371,-1165 -317,-317 -635,-476 -1031,-476 -397,0 -715,159 -874,476l0 -396 -1322 0 0 4471 1322 0 0 -1640 0 0zm6536 -635l-477 0 0 -2196 -1322 0 0 2196 -715 0 0 -2196 -1349 0 0 3228 2593 0 0 714 1270 0 0 -1746 0 0 0 0zm2275 79c-79,159 -238,159 -397,159 -159,0 -317,-80 -317,-318 0,-158 158,-317 317,-317 159,0 318,79 397,159l0 317 0 0zm1402 0c-79,0 -132,-79 -132,-159l0 -846c0,-397 -159,-715 -476,-953 -318,-317 -715,-397 -1191,-397 -476,0 -873,80 -1243,238l0 953c291,-159 608,-238 926,-238 476,0 635,238 635,529 -159,-132 -397,-212 -715,-212 -317,0 -608,80 -846,291 -238,159 -397,397 -397,715 0,317 159,635 317,793 238,239 529,318 847,318 476,0 794,-159 952,-397 159,238 477,397 874,397 238,0 449,-79 608,-159l0 -952c0,79 -79,79 -159,79l0 0 0 0zm10848 7541l-1402 0 -556 2196 1112 0 846 -2196 0 0zm8097 -2038c158,0 317,80 317,318 0,159 -159,238 -317,238l-688 0 0 -556 688 0 0 0zm0 1482c238,0 396,159 396,397 0,238 -158,397 -396,397l-688 0 0 -794 688 0 0 0zm238 1826c476,0 873,-80 1190,-318 318,-238 477,-555 477,-952 0,-318 -80,-556 -318,-768 -159,-238 -317,-317 -556,-397 159,0 239,-158 397,-238 80,-158 159,-397 159,-555 0,-397 -159,-635 -397,-873 -238,-159 -635,-239 -1032,-239l-2196 0 0 4340 2276 0 0 0zm-62707 -1350l477 0c158,0 238,80 238,318 0,159 -80,238 -238,238l-477 0 0 -556 0 0zm397 -1085c159,0 238,159 238,239 0,158 -79,238 -238,238l-397 0 0 -477 397 0 0 0zm1006 688c238,-79 476,-291 476,-608 0,-476 -397,-873 -1085,-873l-2064 0 0 3228 2144 0c767,0 1243,-318 1243,-873 0,-477 -317,-715 -714,-874l0 0 0 0zm1746 3070c714,0 1164,-318 1402,-1006l1429 -3545 -1429 0 -476 1799 -609 -1799 -1349 0 1349 3148c-79,238 -238,238 -555,238 -159,0 -397,0 -556,-158l0 1164c238,79 476,159 794,159l0 0zm5027 -1323l1323 0 0 -3228 -3043 0 0 793c0,556 -79,927 -79,1085 -79,238 -159,318 -397,318 0,0 -79,0 -159,0l0 1032c159,79 318,79 556,79 608,0 926,-317 1085,-794 158,-397 158,-635 158,-1032l0 -449 556 0 0 2196 0 0zm2593 -1429c-238,0 -397,79 -556,238 -158,159 -238,318 -238,556 0,158 80,397 238,555 159,80 318,159 556,159 159,0 397,-79 556,-159 158,-158 158,-397 158,-555 0,-238 0,-397 -158,-556 -159,-159 -397,-238 -556,-238zm7223 317l-556 0 0 -3228 -1322 0 0 3228 -1270 0 0 -3228 -1323 0 0 4340 3228 0 0 846 1243 0 0 -1958 0 0zm1588 -846c0,-238 132,-477 449,-477 159,0 397,239 397,477l-846 0 0 0zm529 2037c635,0 1111,-79 1349,-317l0 -953c-317,159 -635,238 -1032,238 -397,0 -714,-79 -846,-397l2037 0 0 -238c0,-529 -159,-926 -397,-1243 -317,-318 -714,-477 -1191,-477 -449,0 -926,159 -1243,477 -318,396 -476,793 -476,1243 0,476 158,953 555,1270 318,238 794,397 1244,397l0 0 0 0zm3307 -1191l714 0 0 1112 1323 0 0 -3228 -1323 0 0 1111 -714 0 0 -1111 -1323 0 0 3228 1323 0 0 -1112zm4630 -1084l873 0 0 -1032 -3069 0 0 1032 873 0 0 2196 1323 0 0 -2196 0 0zm2593 238c80,-159 238,-238 476,-238 318,0 556,317 556,608 0,318 -238,556 -556,556 -238,0 -396,-80 -476,-238l0 -688 0 0 0 0zm0 1640c238,238 476,397 873,397 477,0 794,-159 1032,-476 318,-318 450,-715 450,-1191 0,-450 -132,-926 -450,-1243 -238,-318 -555,-477 -1032,-477 -397,0 -635,159 -873,477l0 -397 -1323 0 0 4471 1323 0 0 -1561 0 0zm4577 -635c-79,159 -238,238 -396,238 -159,0 -318,-158 -318,-317 0,-238 159,-318 397,-318 79,0 238,0 317,80l0 317 0 0zm1403 0c-80,0 -159,-79 -159,-159l0 -846c0,-397 -159,-715 -476,-953 -318,-238 -688,-397 -1164,-397 -477,0 -874,80 -1191,238l0 953c238,-79 556,-159 873,-159 476,0 714,159 714,450 -238,-132 -476,-132 -793,-132 -318,0 -556,79 -873,211 -239,159 -318,397 -318,794 0,318 79,556 318,794 158,159 476,238 793,238 477,0 794,-159 953,-397 159,238 450,397 847,397 317,0 476,-79 635,-159l0 -952c0,79 -80,79 -159,79l0 0 0 0zm2831 953l1323 0 0 -3228 -3043 0 0 793c0,556 -79,927 -79,1085 -80,238 -159,318 -397,318 0,0 -80,0 -159,0l0 1032c79,79 318,79 556,79 608,0 926,-317 1084,-794 80,-397 159,-635 159,-1032l0 -449 556 0 0 2196 0 0zm3228 -1588l317 0c238,0 318,159 318,397 0,159 -80,318 -318,318l-317 0 0 -715zm0 -1640l-1270 0 0 3228 1825 0c450,0 768,-80 1006,-318 238,-238 397,-555 397,-873 0,-397 -159,-635 -397,-847 -318,-238 -635,-317 -1006,-317l-555 0 0 -873 0 0 0 0zm3677 2116l715 0 0 1112 1349 0 0 -3228 -1349 0 0 1111 -715 0 0 -1111 -1322 0 0 3228 1322 0 0 -1112zm4419 159c-79,159 -238,238 -397,238 -159,0 -317,-158 -317,-317 0,-238 158,-318 396,-318 80,0 239,0 318,80l0 317 0 0zm1402 0c-79,0 -158,-79 -158,-159l0 -846c0,-397 -159,-715 -477,-953 -291,-238 -688,-397 -1164,-397 -476,0 -873,80 -1191,238l0 953c239,-79 556,-159 874,-159 476,0 714,159 714,450 -238,-132 -476,-132 -794,-132 -317,0 -555,79 -873,211 -238,159 -317,397 -317,794 0,318 79,556 238,794 238,159 555,238 873,238 476,0 794,-159 952,-397 159,238 450,397 847,397 318,0 476,-79 635,-159l0 -952c0,79 -79,79 -159,79l0 0 0 0zm5900 0l-635 0 635 -794 0 794zm1323 953l635 0 0 -953 -635 0 0 -2275 -1323 0 -1957 2355 0 873 1957 0 0 1243 1323 0 0 -1243z"/>
   <path id="_1" class="fil1" d="M-2425 10868l476 794 477 0 449 -794 0 1588 1191 0 0 -3228 -1191 0 -688 1031 -714 -1031 -1191 0 0 3228 1191 0 0 -1588 0 0zm27120 318l-1429 0 -555 2196 1111 0 873 -2196 0 0zm-23283 -159c-212,0 -371,79 -530,159 -158,158 -238,396 -238,555 0,238 80,397 238,556 159,159 318,238 530,238 238,0 396,-79 555,-238 159,-159 238,-318 238,-556 0,-159 -79,-397 -238,-555 -159,-80 -317,-159 -555,-159zm4180 -1799l1958 0 0 -1191 -3387 0 0 4419 1429 0 0 -3228 0 0zm2752 1270c79,-318 238,-477 476,-477 238,0 370,159 370,477l-846 0 0 0zm635 2037c529,0 1005,-79 1323,-318l0 -952c-318,159 -715,238 -1032,238 -371,0 -768,-159 -847,-397l2037 0 0 -317c0,-450 -158,-926 -476,-1165 -317,-317 -635,-476 -1085,-476 -555,0 -952,159 -1270,476 -317,318 -476,715 -476,1165 0,555 159,952 556,1270 317,317 714,476 1270,476l0 0zm3201 -2037c159,-159 318,-239 556,-239 317,0 476,239 476,530 0,397 -159,635 -476,635 -238,0 -397,-80 -556,-238l0 -688 0 0 0 0zm79 1561c159,317 477,476 874,476 396,0 714,-159 1031,-476 239,-318 371,-715 371,-1270 0,-450 -132,-847 -371,-1165 -317,-317 -635,-476 -1031,-476 -397,0 -715,159 -874,476l0 -396 -1322 0 0 4471 1322 0 0 -1640 0 0zm6536 -635l-477 0 0 -2196 -1322 0 0 2196 -715 0 0 -2196 -1349 0 0 3228 2593 0 0 714 1270 0 0 -1746 0 0 0 0zm2275 79c-79,159 -238,159 -397,159 -159,0 -317,-80 -317,-318 0,-158 158,-317 317,-317 159,0 318,79 397,159l0 317 0 0zm1402 0c-79,0 -132,-79 -132,-159l0 -846c0,-397 -159,-715 -476,-953 -318,-317 -715,-397 -1191,-397 -476,0 -873,80 -1243,238l0 953c291,-159 608,-238 926,-238 476,0 635,238 635,529 -159,-132 -397,-212 -715,-212 -317,0 -608,80 -846,291 -238,159 -397,397 -397,715 0,317 159,635 317,793 238,239 529,318 847,318 476,0 794,-159 952,-397 159,238 477,397 874,397 238,0 449,-79 608,-159l0 -952c0,79 -79,79 -159,79l0 0 0 0zm10848 7541l-1402 0 -556 2196 1112 0 846 -2196 0 0zm8097 -2038c158,0 317,80 317,318 0,159 -159,238 -317,238l-688 0 0 -556 688 0 0 0zm0 1482c238,0 396,159 396,397 0,238 -158,397 -396,397l-688 0 0 -794 688 0 0 0zm238 1826c476,0 873,-80 1190,-318 318,-238 477,-555 477,-952 0,-318 -80,-556 -318,-768 -159,-238 -317,-317 -556,-397 159,0 239,-158 397,-238 80,-158 159,-397 159,-555 0,-397 -159,-635 -397,-873 -238,-159 -635,-239 -1032,-239l-2196 0 0 4340 2276 0 0 0zm-62707 -1350l477 0c158,0 238,80 238,318 0,159 -80,238 -238,238l-477 0 0 -556 0 0zm397 -1085c159,0 238,159 238,239 0,158 -79,238 -238,238l-397 0 0 -477 397 0 0 0zm1006 688c238,-79 476,-291 476,-608 0,-476 -397,-873 -1085,-873l-2064 0 0 3228 2144 0c767,0 1243,-318 1243,-873 0,-477 -317,-715 -714,-874l0 0 0 0zm1746 3070c714,0 1164,-318 1402,-1006l1429 -3545 -1429 0 -476 1799 -609 -1799 -1349 0 1349 3148c-79,238 -238,238 -555,238 -159,0 -397,0 -556,-158l0 1164c238,79 476,159 794,159l0 0zm5027 -1323l1323 0 0 -3228 -3043 0 0 793c0,556 -79,927 -79,1085 -79,238 -159,318 -397,318 0,0 -79,0 -159,0l0 1032c159,79 318,79 556,79 608,0 926,-317 1085,-794 158,-397 158,-635 158,-1032l0 -449 556 0 0 2196 0 0zm2593 -1429c-238,0 -397,79 -556,238 -158,159 -238,318 -238,556 0,158 80,397 238,555 159,80 318,159 556,159 159,0 397,-79 556,-159 158,-158 158,-397 158,-555 0,-238 0,-397 -158,-556 -159,-159 -397,-238 -556,-238zm7223 317l-556 0 0 -3228 -1322 0 0 3228 -1270 0 0 -3228 -1323 0 0 4340 3228 0 0 846 1243 0 0 -1958 0 0zm1588 -846c0,-238 132,-477 449,-477 159,0 397,239 397,477l-846 0 0 0zm529 2037c635,0 1111,-79 1349,-317l0 -953c-317,159 -635,238 -1032,238 -397,0 -714,-79 -846,-397l2037 0 0 -238c0,-529 -159,-926 -397,-1243 -317,-318 -714,-477 -1191,-477 -449,0 -926,159 -1243,477 -318,396 -476,793 -476,1243 0,476 158,953 555,1270 318,238 794,397 1244,397l0 0 0 0zm3307 -1191l714 0 0 1112 1323 0 0 -3228 -1323 0 0 1111 -714 0 0 -1111 -1323 0 0 3228 1323 0 0 -1112zm4630 -1084l873 0 0 -1032 -3069 0 0 1032 873 0 0 2196 1323 0 0 -2196 0 0zm2593 238c80,-159 238,-238 476,-238 318,0 556,317 556,608 0,318 -238,556 -556,556 -238,0 -396,-80 -476,-238l0 -688 0 0 0 0zm0 1640c238,238 476,397 873,397 477,0 794,-159 1032,-476 318,-318 450,-715 450,-1191 0,-450 -132,-926 -450,-1243 -238,-318 -555,-477 -1032,-477 -397,0 -635,159 -873,477l0 -397 -1323 0 0 4471 1323 0 0 -1561 0 0zm4577 -635c-79,159 -238,238 -396,238 -159,0 -318,-158 -318,-317 0,-238 159,-318 397,-318 79,0 238,0 317,80l0 317 0 0zm1403 0c-80,0 -159,-79 -159,-159l0 -846c0,-397 -159,-715 -476,-953 -318,-238 -688,-397 -1164,-397 -477,0 -874,80 -1191,238l0 953c238,-79 556,-159 873,-159 476,0 714,159 714,450 -238,-132 -476,-132 -793,-132 -318,0 -556,79 -873,211 -239,159 -318,397 -318,794 0,318 79,556 318,794 158,159 476,238 793,238 477,0 794,-159 953,-397 159,238 450,397 847,397 317,0 476,-79 635,-159l0 -952c0,79 -80,79 -159,79l0 0 0 0zm2831 953l1323 0 0 -3228 -3043 0 0 793c0,556 -79,927 -79,1085 -80,238 -159,318 -397,318 0,0 -80,0 -159,0l0 1032c79,79 318,79 556,79 608,0 926,-317 1084,-794 80,-397 159,-635 159,-1032l0 -449 556 0 0 2196 0 0zm3228 -1588l317 0c238,0 318,159 318,397 0,159 -80,318 -318,318l-317 0 0 -715zm0 -1640l-1270 0 0 3228 1825 0c450,0 768,-80 1006,-318 238,-238 397,-555 397,-873 0,-397 -159,-635 -397,-847 -318,-238 -635,-317 -1006,-317l-555 0 0 -873 0 0 0 0zm3677 2116l715 0 0 1112 1349 0 0 -3228 -1349 0 0 1111 -715 0 0 -1111 -1322 0 0 3228 1322 0 0 -1112zm4419 159c-79,159 -238,238 -397,238 -159,0 -317,-158 -317,-317 0,-238 158,-318 396,-318 80,0 239,0 318,80l0 317 0 0zm1402 0c-79,0 -158,-79 -158,-159l0 -846c0,-397 -159,-715 -477,-953 -291,-238 -688,-397 -1164,-397 -476,0 -873,80 -1191,238l0 953c239,-79 556,-159 874,-159 476,0 714,159 714,450 -238,-132 -476,-132 -794,-132 -317,0 -555,79 -873,211 -238,159 -317,397 -317,794 0,318 79,556 238,794 238,159 555,238 873,238 476,0 794,-159 952,-397 159,238 450,397 847,397 318,0 476,-79 635,-159l0 -952c0,79 -79,79 -159,79l0 0 0 0zm5900 0l-635 0 635 -794 0 794zm1323 953l635 0 0 -953 -635 0 0 -2275 -1323 0 -1957 2355 0 873 1957 0 0 1243 1323 0 0 -1243z"/>
  </g>
 </g>
</svg>
