<?xml version="1.0" encoding="UTF-8"?>
<!DOCTYPE svg PUBLIC "-//W3C//DTD SVG 1.1//EN" "http://www.w3.org/Graphics/SVG/1.1/DTD/svg11.dtd">
<!-- Creator: CorelDRAW X7 -->
<svg xmlns="http://www.w3.org/2000/svg" xml:space="preserve" width="210mm" height="297mm" version="1.1" style="shape-rendering:geometricPrecision; text-rendering:geometricPrecision; image-rendering:optimizeQuality; fill-rule:evenodd; clip-rule:evenodd"
viewBox="0 0 21000 29700"
 xmlns:xlink="http://www.w3.org/1999/xlink">
 <defs>
  <style type="text/css">
   <![CDATA[
    .str0 {stroke:#FEFEFE;stroke-width:974.36;stroke-linecap:round;stroke-linejoin:round}
    .fil0 {fill:#5B5B5B}
    .fil1 {fill:#5B5B5B;fill-rule:nonzero}
   ]]>
  </style>
 </defs>
 <g id="Слой_x0020_1">
  <metadata id="CorelCorpID_0Corel-Layer"/>
  <g id="_768292272">
   <path class="fil0 str0" d="M-17784 17353c778,0 1468,-258 1958,-690 517,-490 776,-1094 776,-1871 0,-661 -259,-1265 -776,-1755 -490,-517 -1180,-690 -1958,-690 -834,0 -1437,173 -2014,690 -517,490 -776,1094 -776,1755 0,777 259,1381 776,1871 577,432 1180,690 2014,690zm-575 -1870c-172,-173 -259,-432 -259,-691 0,-230 87,-402 259,-575 259,-346 835,-346 1180,0 86,173 173,345 173,575 0,259 -87,518 -173,691 -345,346 -921,346 -1180,0l0 0zm5496 3654c1007,0 1956,-345 2446,-1035 258,-404 431,-835 431,-1353 0,-661 -258,-1266 -662,-1611 -518,-403 -1122,-576 -1870,-576l-172 0 0 -431 2273 0 0 -1698 -3712 0 -432 3884c518,-144 1036,-229 1525,-229 691,0 1036,229 1036,661 0,431 -260,690 -950,690 -575,0 -1266,-173 -1783,-603l0 1869c517,260 1208,432 1870,432l0 0 0 0 0 0 0 0zm5927 -1784c777,0 1438,-258 1956,-690 489,-490 748,-1094 748,-1871 0,-661 -259,-1265 -748,-1755 -518,-517 -1179,-690 -1956,-690 -749,0 -1439,173 -1957,690 -489,490 -748,1094 -748,1755 0,777 259,1381 748,1871 518,432 1208,690 1957,690zm-604 -1870c-145,-173 -230,-432 -230,-691 0,-230 85,-402 230,-575 345,-346 862,-346 1208,0 173,173 231,345 231,575 0,259 -58,518 -231,691 -346,346 -949,346 -1208,0l0 0zm8142 3654c748,0 1439,-172 1957,-604 489,-431 834,-1007 834,-1697 0,-921 -517,-1612 -1524,-1958l1179 -920 0 -1525 -4402 0 0 1698 2043 0 -1266 1007 0 1179c317,-144 661,-229 1093,-229 518,0 834,316 834,661 0,431 -402,690 -1007,690 -518,0 -1180,-259 -1870,-603l0 1783c604,346 1267,518 2129,518l0 0 0 0 0 0zm5323 0c778,0 1439,-172 1956,-604 576,-431 836,-1007 836,-1697 0,-921 -490,-1612 -1439,-1958l1093 -920 0 -1525 -4374 0 0 1698 2101 0 -1266 1007 0 1179c259,-144 604,-229 1007,-229 604,0 862,316 862,661 0,431 -344,690 -949,690 -575,0 -1179,-259 -1841,-603l0 1783c575,346 1266,518 2014,518l0 0 0 0 0 0zm8229 -5179l0 -1524 -4920 0 0 1697 2705 0 -2446 5006 2100 0 2561 -5179 0 0zm5496 1784c-346,0 -691,-345 -691,-1007 86,-259 432,-432 691,-432 402,0 748,346 748,662 0,432 -259,777 -748,777l0 0 0 0zm575 -2878c-489,0 -834,87 -1180,432 87,-691 691,-1035 1353,-1035 518,0 1035,173 1352,431l0 -1697c-317,-260 -920,-432 -1525,-432 -1093,0 -1928,518 -2446,1208 -517,749 -690,1583 -690,2532 0,921 173,1698 690,2187 518,605 1180,863 2044,863 661,0 1266,-173 1754,-604 519,-490 690,-1007 690,-1784 0,-662 -171,-1180 -517,-1611 -403,-317 -920,-490 -1525,-490l0 0 0 0 0 0zm5266 4489c834,0 1438,-258 2014,-690 517,-490 776,-1094 776,-1871 0,-661 -259,-1265 -776,-1755 -576,-517 -1180,-690 -2014,-690 -778,0 -1439,173 -1957,690 -518,490 -748,1094 -748,1755 0,777 230,1381 748,1871 518,432 1179,690 1957,690zm-605 -1870c-173,-173 -173,-432 -173,-691 0,-230 87,-402 173,-575 346,-346 921,-346 1180,0 173,173 259,345 259,575 0,259 -86,518 -259,691 -259,346 -834,346 -1180,0l0 0zm10933 -1525l0 -1524 -4833 0 0 1697 2618 0 -2360 5006 2016 0 2559 -5179zm3051 3395c748,0 1438,-258 1928,-690 517,-490 776,-1094 776,-1871 0,-661 -259,-1265 -776,-1755 -490,-517 -1180,-690 -1928,-690 -777,0 -1467,173 -1957,690 -517,490 -777,1094 -777,1755 0,777 260,1381 777,1871 490,432 1180,690 1957,690zm-605 -1870c-172,-173 -259,-432 -259,-691 0,-230 87,-402 259,-575 346,-346 835,-346 1180,0 173,173 259,345 259,575 0,259 -86,518 -259,691 -345,346 -921,346 -1180,0l0 0z"/>
   <path id="_1" class="fil1" d="M-17784 17353c778,0 1468,-258 1958,-690 517,-490 776,-1094 776,-1871 0,-661 -259,-1265 -776,-1755 -490,-517 -1180,-690 -1958,-690 -834,0 -1437,173 -2014,690 -517,490 -776,1094 -776,1755 0,777 259,1381 776,1871 577,432 1180,690 2014,690zm-575 -1870c-172,-173 -259,-432 -259,-691 0,-230 87,-402 259,-575 259,-346 835,-346 1180,0 86,173 173,345 173,575 0,259 -87,518 -173,691 -345,346 -921,346 -1180,0l0 0zm5496 3654c1007,0 1956,-345 2446,-1035 258,-404 431,-835 431,-1353 0,-661 -258,-1266 -662,-1611 -518,-403 -1122,-576 -1870,-576l-172 0 0 -431 2273 0 0 -1698 -3712 0 -432 3884c518,-144 1036,-229 1525,-229 691,0 1036,229 1036,661 0,431 -260,690 -950,690 -575,0 -1266,-173 -1783,-603l0 1869c517,260 1208,432 1870,432l0 0 0 0 0 0 0 0zm5927 -1784c777,0 1438,-258 1956,-690 489,-490 748,-1094 748,-1871 0,-661 -259,-1265 -748,-1755 -518,-517 -1179,-690 -1956,-690 -749,0 -1439,173 -1957,690 -489,490 -748,1094 -748,1755 0,777 259,1381 748,1871 518,432 1208,690 1957,690zm-604 -1870c-145,-173 -230,-432 -230,-691 0,-230 85,-402 230,-575 345,-346 862,-346 1208,0 173,173 231,345 231,575 0,259 -58,518 -231,691 -346,346 -949,346 -1208,0l0 0zm8142 3654c748,0 1439,-172 1957,-604 489,-431 834,-1007 834,-1697 0,-921 -517,-1612 -1524,-1958l1179 -920 0 -1525 -4402 0 0 1698 2043 0 -1266 1007 0 1179c317,-144 661,-229 1093,-229 518,0 834,316 834,661 0,431 -402,690 -1007,690 -518,0 -1180,-259 -1870,-603l0 1783c604,346 1267,518 2129,518l0 0 0 0 0 0zm5323 0c778,0 1439,-172 1956,-604 576,-431 836,-1007 836,-1697 0,-921 -490,-1612 -1439,-1958l1093 -920 0 -1525 -4374 0 0 1698 2101 0 -1266 1007 0 1179c259,-144 604,-229 1007,-229 604,0 862,316 862,661 0,431 -344,690 -949,690 -575,0 -1179,-259 -1841,-603l0 1783c575,346 1266,518 2014,518l0 0 0 0 0 0zm8229 -5179l0 -1524 -4920 0 0 1697 2705 0 -2446 5006 2100 0 2561 -5179 0 0zm5496 1784c-346,0 -691,-345 -691,-1007 86,-259 432,-432 691,-432 402,0 748,346 748,662 0,432 -259,777 -748,777l0 0 0 0zm575 -2878c-489,0 -834,87 -1180,432 87,-691 691,-1035 1353,-1035 518,0 1035,173 1352,431l0 -1697c-317,-260 -920,-432 -1525,-432 -1093,0 -1928,518 -2446,1208 -517,749 -690,1583 -690,2532 0,921 173,1698 690,2187 518,605 1180,863 2044,863 661,0 1266,-173 1754,-604 519,-490 690,-1007 690,-1784 0,-662 -171,-1180 -517,-1611 -403,-317 -920,-490 -1525,-490l0 0 0 0 0 0zm5266 4489c834,0 1438,-258 2014,-690 517,-490 776,-1094 776,-1871 0,-661 -259,-1265 -776,-1755 -576,-517 -1180,-690 -2014,-690 -778,0 -1439,173 -1957,690 -518,490 -748,1094 -748,1755 0,777 230,1381 748,1871 518,432 1179,690 1957,690zm-605 -1870c-173,-173 -173,-432 -173,-691 0,-230 87,-402 173,-575 346,-346 921,-346 1180,0 173,173 259,345 259,575 0,259 -86,518 -259,691 -259,346 -834,346 -1180,0l0 0zm10933 -1525l0 -1524 -4833 0 0 1697 2618 0 -2360 5006 2016 0 2559 -5179zm3051 3395c748,0 1438,-258 1928,-690 517,-490 776,-1094 776,-1871 0,-661 -259,-1265 -776,-1755 -490,-517 -1180,-690 -1928,-690 -777,0 -1467,173 -1957,690 -517,490 -777,1094 -777,1755 0,777 260,1381 777,1871 490,432 1180,690 1957,690zm-605 -1870c-172,-173 -259,-432 -259,-691 0,-230 87,-402 259,-575 346,-346 835,-346 1180,0 173,173 259,345 259,575 0,259 -86,518 -259,691 -345,346 -921,346 -1180,0l0 0z"/>
  </g>
 </g>
</svg>
