<?xml version="1.0" encoding="UTF-8"?>
<!DOCTYPE svg PUBLIC "-//W3C//DTD SVG 1.1//EN" "http://www.w3.org/Graphics/SVG/1.1/DTD/svg11.dtd">
<!-- Creator: CorelDRAW X7 -->
<svg xmlns="http://www.w3.org/2000/svg" xml:space="preserve" width="2199px" height="334px" version="1.1" shape-rendering="geometricPrecision" text-rendering="geometricPrecision" image-rendering="optimizeQuality" fill-rule="evenodd" clip-rule="evenodd"
viewBox="0 0 2196 334"
 xmlns:xlink="http://www.w3.org/1999/xlink">
 <g id="Слой_x0020_1">
  <metadata id="CorelCorpID_0Corel-Layer"/>
  <g id="_768292272">
   <path fill="#2B2A29" stroke="#FEFEFE" stroke-width="36.8257" stroke-linecap="round" stroke-linejoin="round" d="M115 254c27,0 51,-9 68,-24 18,-17 27,-38 27,-65 0,-23 -9,-44 -27,-61 -17,-18 -41,-24 -68,-24 -29,0 -50,6 -70,24 -18,17 -27,38 -27,61 0,27 9,48 27,65 20,15 41,24 70,24zm-20 -65c-6,-6 -9,-15 -9,-24 0,-8 3,-14 9,-20 9,-12 29,-12 41,0 3,6 6,12 6,20 0,9 -3,18 -6,24 -12,12 -32,12 -41,0l0 0zm191 127c35,0 68,-12 85,-36 9,-14 15,-29 15,-47 0,-23 -9,-44 -23,-56 -18,-14 -39,-20 -65,-20l-6 0 0 -15 79 0 0 -59 -129 0 -15 135c18,-5 36,-8 53,-8 24,0 36,8 36,23 0,15 -9,24 -33,24 -20,0 -44,-6 -62,-21l0 65c18,9 42,15 65,15l0 0 0 0zm206 -62c27,0 50,-9 68,-24 17,-17 26,-38 26,-65 0,-23 -9,-44 -26,-61 -18,-18 -41,-24 -68,-24 -26,0 -50,6 -68,24 -17,17 -26,38 -26,61 0,27 9,48 26,65 18,15 42,24 68,24zm-21 -65c-5,-6 -8,-15 -8,-24 0,-8 3,-14 8,-20 12,-12 30,-12 42,0 6,6 8,12 8,20 0,9 -2,18 -8,24 -12,12 -33,12 -42,0l0 0zm283 127c26,0 50,-6 68,-21 17,-15 29,-35 29,-59 0,-32 -18,-56 -53,-68l41 -32 0 -53 -153 0 0 59 71 0 -44 35 0 41c11,-5 23,-8 38,-8 18,0 29,11 29,23 0,15 -14,24 -35,24 -18,0 -41,-9 -65,-21l0 62c21,12 44,18 74,18l0 0 0 0zm185 0c27,0 50,-6 68,-21 20,-15 29,-35 29,-59 0,-32 -17,-56 -50,-68l38 -32 0 -53 -152 0 0 59 73 0 -44 35 0 41c9,-5 21,-8 35,-8 21,0 30,11 30,23 0,15 -12,24 -33,24 -20,0 -41,-9 -64,-21l0 62c20,12 44,18 70,18l0 0 0 0zm286 -180l0 -53 -171 0 0 59 94 0 -85 174 73 0 89 -180zm191 62c-12,0 -24,-12 -24,-35 3,-9 15,-15 24,-15 14,0 26,12 26,23 0,15 -9,27 -26,27l0 0zm20 -100c-17,0 -29,3 -41,15 3,-24 24,-36 47,-36 18,0 36,6 47,15l0 -59c-11,-9 -32,-15 -53,-15 -38,0 -67,18 -85,42 -18,26 -24,55 -24,88 0,32 6,59 24,76 18,21 41,30 71,30 23,0 44,-6 61,-21 18,-17 24,-35 24,-62 0,-23 -6,-41 -18,-56 -14,-11 -32,-17 -53,-17l0 0zm183 156c29,0 50,-9 70,-24 18,-17 27,-38 27,-65 0,-23 -9,-44 -27,-61 -20,-18 -41,-24 -70,-24 -27,0 -50,6 -68,24 -18,17 -26,38 -26,61 0,27 8,48 26,65 18,15 41,24 68,24zm-21 -65c-6,-6 -6,-15 -6,-24 0,-8 3,-14 6,-20 12,-12 32,-12 41,0 6,6 9,12 9,20 0,9 -3,18 -9,24 -9,12 -29,12 -41,0l0 0zm380 -53l0 -53 -168 0 0 59 91 0 -82 174 70 0 89 -180zm106 118c26,0 50,-9 67,-24 18,-17 27,-38 27,-65 0,-23 -9,-44 -27,-61 -17,-18 -41,-24 -67,-24 -27,0 -51,6 -68,24 -18,17 -27,38 -27,61 0,27 9,48 27,65 17,15 41,24 68,24zm-21 -65c-6,-6 -9,-15 -9,-24 0,-8 3,-14 9,-20 12,-12 29,-12 41,0 6,6 9,12 9,20 0,9 -3,18 -9,24 -12,12 -32,12 -41,0l0 0z"/>
   <path id="_1" fill="#2B2A29" fill-rule="nonzero" d="M115 254c27,0 51,-9 68,-24 18,-17 27,-38 27,-65 0,-23 -9,-44 -27,-61 -17,-18 -41,-24 -68,-24 -29,0 -50,6 -70,24 -18,17 -27,38 -27,61 0,27 9,48 27,65 20,15 41,24 70,24zm-20 -65c-6,-6 -9,-15 -9,-24 0,-8 3,-14 9,-20 9,-12 29,-12 41,0 3,6 6,12 6,20 0,9 -3,18 -6,24 -12,12 -32,12 -41,0l0 0zm191 127c35,0 68,-12 85,-36 9,-14 15,-29 15,-47 0,-23 -9,-44 -23,-56 -18,-14 -39,-20 -65,-20l-6 0 0 -15 79 0 0 -59 -129 0 -15 135c18,-5 36,-8 53,-8 24,0 36,8 36,23 0,15 -9,24 -33,24 -20,0 -44,-6 -62,-21l0 65c18,9 42,15 65,15l0 0 0 0zm206 -62c27,0 50,-9 68,-24 17,-17 26,-38 26,-65 0,-23 -9,-44 -26,-61 -18,-18 -41,-24 -68,-24 -26,0 -50,6 -68,24 -17,17 -26,38 -26,61 0,27 9,48 26,65 18,15 42,24 68,24zm-21 -65c-5,-6 -8,-15 -8,-24 0,-8 3,-14 8,-20 12,-12 30,-12 42,0 6,6 8,12 8,20 0,9 -2,18 -8,24 -12,12 -33,12 -42,0l0 0zm283 127c26,0 50,-6 68,-21 17,-15 29,-35 29,-59 0,-32 -18,-56 -53,-68l41 -32 0 -53 -153 0 0 59 71 0 -44 35 0 41c11,-5 23,-8 38,-8 18,0 29,11 29,23 0,15 -14,24 -35,24 -18,0 -41,-9 -65,-21l0 62c21,12 44,18 74,18l0 0 0 0zm185 0c27,0 50,-6 68,-21 20,-15 29,-35 29,-59 0,-32 -17,-56 -50,-68l38 -32 0 -53 -152 0 0 59 73 0 -44 35 0 41c9,-5 21,-8 35,-8 21,0 30,11 30,23 0,15 -12,24 -33,24 -20,0 -41,-9 -64,-21l0 62c20,12 44,18 70,18l0 0 0 0zm286 -180l0 -53 -171 0 0 59 94 0 -85 174 73 0 89 -180zm191 62c-12,0 -24,-12 -24,-35 3,-9 15,-15 24,-15 14,0 26,12 26,23 0,15 -9,27 -26,27l0 0zm20 -100c-17,0 -29,3 -41,15 3,-24 24,-36 47,-36 18,0 36,6 47,15l0 -59c-11,-9 -32,-15 -53,-15 -38,0 -67,18 -85,42 -18,26 -24,55 -24,88 0,32 6,59 24,76 18,21 41,30 71,30 23,0 44,-6 61,-21 18,-17 24,-35 24,-62 0,-23 -6,-41 -18,-56 -14,-11 -32,-17 -53,-17l0 0zm183 156c29,0 50,-9 70,-24 18,-17 27,-38 27,-65 0,-23 -9,-44 -27,-61 -20,-18 -41,-24 -70,-24 -27,0 -50,6 -68,24 -18,17 -26,38 -26,61 0,27 8,48 26,65 18,15 41,24 68,24zm-21 -65c-6,-6 -6,-15 -6,-24 0,-8 3,-14 6,-20 12,-12 32,-12 41,0 6,6 9,12 9,20 0,9 -3,18 -9,24 -9,12 -29,12 -41,0l0 0zm380 -53l0 -53 -168 0 0 59 91 0 -82 174 70 0 89 -180zm106 118c26,0 50,-9 67,-24 18,-17 27,-38 27,-65 0,-23 -9,-44 -27,-61 -17,-18 -41,-24 -67,-24 -27,0 -51,6 -68,24 -18,17 -27,38 -27,61 0,27 9,48 27,65 17,15 41,24 68,24zm-21 -65c-6,-6 -9,-15 -9,-24 0,-8 3,-14 9,-20 12,-12 29,-12 41,0 6,6 9,12 9,20 0,9 -3,18 -9,24 -12,12 -32,12 -41,0l0 0z"/>
  </g>
 </g>
</svg>
