<?xml version="1.0" encoding="UTF-8"?>
<!DOCTYPE svg PUBLIC "-//W3C//DTD SVG 1.1//EN" "http://www.w3.org/Graphics/SVG/1.1/DTD/svg11.dtd">
<!-- Creator: CorelDRAW X7 -->
<svg xmlns="http://www.w3.org/2000/svg" xml:space="preserve" width="704px" height="107px" version="1.1" shape-rendering="geometricPrecision" text-rendering="geometricPrecision" image-rendering="optimizeQuality" fill-rule="evenodd" clip-rule="evenodd"
viewBox="0 0 747 113"
 xmlns:xlink="http://www.w3.org/1999/xlink">
 <g id="Слой_x0020_1">
  <metadata id="CorelCorpID_0Corel-Layer"/>
  <g>
   <path fill="none" fill-rule="nonzero" stroke="#FEFEFE" stroke-width="12.5183" stroke-linecap="round" stroke-linejoin="round" d="M39 86c9,0 17,-3 23,-8 6,-6 9,-13 9,-22 0,-8 -3,-15 -9,-21 -6,-6 -14,-8 -23,-8 -10,0 -17,2 -24,8 -6,6 -9,13 -9,21 0,9 3,16 9,22 7,5 14,8 24,8zm-7 -22c-2,-2 -3,-5 -3,-8 0,-3 1,-5 3,-7 3,-4 10,-4 14,0 1,2 2,4 2,7 0,3 -1,6 -2,8 -4,4 -11,4 -14,0l0 0zm65 43c12,0 23,-4 29,-12 3,-5 5,-10 5,-16 0,-8 -3,-15 -8,-19 -6,-5 -13,-7 -22,-7l-2 0 0 -5 27 0 0 -20 -44 0 -5 46c6,-2 12,-3 18,-3 8,0 12,3 12,8 0,5 -3,8 -11,8 -7,0 -15,-2 -21,-7l0 22c6,3 14,5 22,5l0 0zm70 -21c9,0 17,-3 23,-8 6,-6 9,-13 9,-22 0,-8 -3,-15 -9,-21 -6,-6 -14,-8 -23,-8 -9,0 -17,2 -23,8 -6,6 -9,13 -9,21 0,9 3,16 9,22 6,5 14,8 23,8zm-7 -22c-2,-2 -3,-5 -3,-8 0,-3 1,-5 3,-7 4,-4 10,-4 14,0 2,2 3,4 3,7 0,3 -1,6 -3,8 -4,4 -11,4 -14,0l0 0zm96 43c9,0 17,-2 23,-7 6,-5 10,-12 10,-20 0,-11 -6,-19 -18,-23l14 -11 0 -18 -52 0 0 20 24 0 -15 12 0 14c4,-2 8,-3 13,-3 6,0 10,4 10,8 0,5 -5,8 -12,8 -6,0 -14,-3 -22,-7l0 21c7,4 15,6 25,6l0 0zm63 0c9,0 17,-2 23,-7 7,-5 10,-12 10,-20 0,-11 -6,-19 -17,-23l13 -11 0 -18 -52 0 0 20 25 0 -15 12 0 14c3,-2 7,-3 12,-3 7,0 10,4 10,8 0,5 -4,8 -11,8 -7,0 -14,-3 -22,-7l0 21c7,4 15,6 24,6l0 0zm97 -61l0 -18 -58 0 0 20 32 0 -29 59 25 0 30 -61zm65 21c-4,0 -8,-4 -8,-12 1,-3 5,-5 8,-5 5,0 9,4 9,8 0,5 -3,9 -9,9l0 0zm7 -34c-6,0 -10,1 -14,5 1,-8 8,-12 16,-12 6,0 12,2 16,5l0 -20c-4,-3 -11,-5 -18,-5 -13,0 -23,6 -29,14 -6,9 -8,19 -8,30 0,11 2,20 8,26 6,7 14,10 24,10 8,0 15,-2 21,-7 6,-6 8,-12 8,-21 0,-8 -2,-14 -6,-19 -5,-4 -11,-6 -18,-6zm62 53c10,0 17,-3 24,-8 6,-6 9,-13 9,-22 0,-8 -3,-15 -9,-21 -7,-6 -14,-8 -24,-8 -9,0 -17,2 -23,8 -6,6 -9,13 -9,21 0,9 3,16 9,22 6,5 14,8 23,8zm-7 -22c-2,-2 -2,-5 -2,-8 0,-3 1,-5 2,-7 4,-4 11,-4 14,0 2,2 3,4 3,7 0,3 -1,6 -3,8 -3,4 -10,4 -14,0l0 0zm129 -18l0 -18 -57 0 0 20 31 0 -28 59 24 0 30 -61zm36 40c9,0 17,-3 23,-8 6,-6 9,-13 9,-22 0,-8 -3,-15 -9,-21 -6,-6 -14,-8 -23,-8 -9,0 -17,2 -23,8 -6,6 -9,13 -9,21 0,9 3,16 9,22 6,5 14,8 23,8zm-7 -22c-2,-2 -3,-5 -3,-8 0,-3 1,-5 3,-7 4,-4 10,-4 14,0 2,2 3,4 3,7 0,3 -1,6 -3,8 -4,4 -11,4 -14,0l0 0z"/>
   <path id="1" fill="#E31E24" fill-rule="nonzero" d="M39 86c9,0 17,-3 23,-8 6,-6 9,-13 9,-22 0,-8 -3,-15 -9,-21 -6,-6 -14,-8 -23,-8 -10,0 -17,2 -24,8 -6,6 -9,13 -9,21 0,9 3,16 9,22 7,5 14,8 24,8zm-7 -22c-2,-2 -3,-5 -3,-8 0,-3 1,-5 3,-7 3,-4 10,-4 14,0 1,2 2,4 2,7 0,3 -1,6 -2,8 -4,4 -11,4 -14,0l0 0zm65 43c12,0 23,-4 29,-12 3,-5 5,-10 5,-16 0,-8 -3,-15 -8,-19 -6,-5 -13,-7 -22,-7l-2 0 0 -5 27 0 0 -20 -44 0 -5 46c6,-2 12,-3 18,-3 8,0 12,3 12,8 0,5 -3,8 -11,8 -7,0 -15,-2 -21,-7l0 22c6,3 14,5 22,5l0 0zm70 -21c9,0 17,-3 23,-8 6,-6 9,-13 9,-22 0,-8 -3,-15 -9,-21 -6,-6 -14,-8 -23,-8 -9,0 -17,2 -23,8 -6,6 -9,13 -9,21 0,9 3,16 9,22 6,5 14,8 23,8zm-7 -22c-2,-2 -3,-5 -3,-8 0,-3 1,-5 3,-7 4,-4 10,-4 14,0 2,2 3,4 3,7 0,3 -1,6 -3,8 -4,4 -11,4 -14,0l0 0zm96 43c9,0 17,-2 23,-7 6,-5 10,-12 10,-20 0,-11 -6,-19 -18,-23l14 -11 0 -18 -52 0 0 20 24 0 -15 12 0 14c4,-2 8,-3 13,-3 6,0 10,4 10,8 0,5 -5,8 -12,8 -6,0 -14,-3 -22,-7l0 21c7,4 15,6 25,6l0 0zm63 0c9,0 17,-2 23,-7 7,-5 10,-12 10,-20 0,-11 -6,-19 -17,-23l13 -11 0 -18 -52 0 0 20 25 0 -15 12 0 14c3,-2 7,-3 12,-3 7,0 10,4 10,8 0,5 -4,8 -11,8 -7,0 -14,-3 -22,-7l0 21c7,4 15,6 24,6l0 0zm97 -61l0 -18 -58 0 0 20 32 0 -29 59 25 0 30 -61zm65 21c-4,0 -8,-4 -8,-12 1,-3 5,-5 8,-5 5,0 9,4 9,8 0,5 -3,9 -9,9l0 0zm7 -34c-6,0 -10,1 -14,5 1,-8 8,-12 16,-12 6,0 12,2 16,5l0 -20c-4,-3 -11,-5 -18,-5 -13,0 -23,6 -29,14 -6,9 -8,19 -8,30 0,11 2,20 8,26 6,7 14,10 24,10 8,0 15,-2 21,-7 6,-6 8,-12 8,-21 0,-8 -2,-14 -6,-19 -5,-4 -11,-6 -18,-6zm62 53c10,0 17,-3 24,-8 6,-6 9,-13 9,-22 0,-8 -3,-15 -9,-21 -7,-6 -14,-8 -24,-8 -9,0 -17,2 -23,8 -6,6 -9,13 -9,21 0,9 3,16 9,22 6,5 14,8 23,8zm-7 -22c-2,-2 -2,-5 -2,-8 0,-3 1,-5 2,-7 4,-4 11,-4 14,0 2,2 3,4 3,7 0,3 -1,6 -3,8 -3,4 -10,4 -14,0l0 0zm129 -18l0 -18 -57 0 0 20 31 0 -28 59 24 0 30 -61zm36 40c9,0 17,-3 23,-8 6,-6 9,-13 9,-22 0,-8 -3,-15 -9,-21 -6,-6 -14,-8 -23,-8 -9,0 -17,2 -23,8 -6,6 -9,13 -9,21 0,9 3,16 9,22 6,5 14,8 23,8zm-7 -22c-2,-2 -3,-5 -3,-8 0,-3 1,-5 3,-7 4,-4 10,-4 14,0 2,2 3,4 3,7 0,3 -1,6 -3,8 -4,4 -11,4 -14,0l0 0z"/>
  </g>
 </g>
</svg>
