<?xml version="1.0" encoding="UTF-8"?>
<!DOCTYPE svg PUBLIC "-//W3C//DTD SVG 1.1//EN" "http://www.w3.org/Graphics/SVG/1.1/DTD/svg11.dtd">
<!-- Creator: CorelDRAW X7 -->
<svg xmlns="http://www.w3.org/2000/svg" xml:space="preserve" width="297mm" height="210mm" version="1.1" style="shape-rendering:geometricPrecision; text-rendering:geometricPrecision; image-rendering:optimizeQuality; fill-rule:evenodd; clip-rule:evenodd"
viewBox="0 0 29700 21000"
 xmlns:xlink="http://www.w3.org/1999/xlink">
 <defs>
  <style type="text/css">
   <![CDATA[
    .str0 {stroke:#FEFEFE;stroke-width:974.35;stroke-linecap:round;stroke-linejoin:round}
    .fil0 {fill:#898989}
    .fil1 {fill:#898989;fill-rule:nonzero}
   ]]>
  </style>
 </defs>
 <g id="Слой_x0020_1">
  <metadata id="CorelCorpID_0Corel-Layer"/>
  <g id="_768292272">
   <path class="fil0 str0" d="M-11159 12802c715,0 1350,-238 1800,-635 476,-450 714,-1006 714,-1720 0,-608 -238,-1164 -714,-1614 -450,-476 -1085,-635 -1800,-635 -767,0 -1322,159 -1852,635 -476,450 -714,1006 -714,1614 0,714 238,1270 714,1720 530,397 1085,635 1852,635zm-529 -1720c-158,-159 -238,-397 -238,-635 0,-212 80,-370 238,-529 238,-318 768,-318 1085,0 79,159 159,317 159,529 0,238 -80,476 -159,635 -317,318 -847,318 -1085,0l0 0zm5054 3360c926,0 1799,-317 2249,-952 238,-371 397,-767 397,-1244 0,-608 -238,-1164 -609,-1481 -476,-371 -1032,-530 -1720,-530l-158 0 0 -396 2090 0 0 -1562 -3413 0 -397 3572c476,-132 952,-211 1402,-211 635,0 953,211 953,608 0,397 -239,635 -874,635 -529,0 -1164,-159 -1640,-555l0 1719c476,239 1111,397 1720,397l0 0 0 0 0 0zm5450 -1640c715,0 1323,-238 1799,-635 450,-450 688,-1006 688,-1720 0,-608 -238,-1164 -688,-1614 -476,-476 -1084,-635 -1799,-635 -688,0 -1323,159 -1799,635 -450,450 -688,1006 -688,1614 0,714 238,1270 688,1720 476,397 1111,635 1799,635zm-555 -1720c-133,-159 -212,-397 -212,-635 0,-212 79,-370 212,-529 317,-318 793,-318 1111,0 159,159 212,317 212,529 0,238 -53,476 -212,635 -318,318 -873,318 -1111,0l0 0zm7487 3360c688,0 1323,-158 1800,-555 449,-397 767,-926 767,-1561 0,-847 -476,-1482 -1402,-1800l1084 -846 0 -1403 -4048 0 0 1562 1879 0 -1164 926 0 1084c291,-132 608,-211 1005,-211 476,0 767,291 767,608 0,397 -370,635 -926,635 -476,0 -1085,-238 -1720,-555l0 1640c556,318 1165,476 1958,476l0 0 0 0 0 0zm4895 0c715,0 1323,-158 1799,-555 529,-397 768,-926 768,-1561 0,-847 -450,-1482 -1323,-1800l1005 -846 0 -1403 -4022 0 0 1562 1932 0 -1164 926 0 1084c238,-132 555,-211 926,-211 555,0 793,291 793,608 0,397 -317,635 -873,635 -529,0 -1084,-238 -1693,-555l0 1640c529,318 1164,476 1852,476l0 0 0 0 0 0zm7567 -4762l0 -1402 -4524 0 0 1561 2487 0 -2249 4603 1931 0 2355 -4762 0 0zm5054 1640c-318,0 -635,-317 -635,-926 79,-238 397,-397 635,-397 370,0 688,318 688,609 0,397 -238,714 -688,714l0 0zm529 -2646c-450,0 -767,80 -1085,397 80,-635 635,-952 1244,-952 476,0 952,159 1243,397l0 -1561c-291,-239 -846,-397 -1402,-397 -1005,0 -1773,476 -2249,1111 -476,688 -635,1455 -635,2328 0,847 159,1561 635,2011 476,556 1085,794 1879,794 608,0 1164,-159 1613,-556 477,-450 635,-926 635,-1640 0,-609 -158,-1085 -476,-1482 -370,-291 -846,-450 -1402,-450l0 0 0 0zm4842 4128c767,0 1323,-238 1852,-635 476,-450 714,-1006 714,-1720 0,-608 -238,-1164 -714,-1614 -529,-476 -1085,-635 -1852,-635 -715,0 -1323,159 -1799,635 -477,450 -688,1006 -688,1614 0,714 211,1270 688,1720 476,397 1084,635 1799,635zm-556 -1720c-159,-159 -159,-397 -159,-635 0,-212 80,-370 159,-529 318,-318 847,-318 1085,0 159,159 238,317 238,529 0,238 -79,476 -238,635 -238,318 -767,318 -1085,0l0 0zm10054 -1402l0 -1402 -4445 0 0 1561 2408 0 -2170 4603 1853 0 2354 -4762zm2805 3122c688,0 1323,-238 1773,-635 476,-450 714,-1006 714,-1720 0,-608 -238,-1164 -714,-1614 -450,-476 -1085,-635 -1773,-635 -714,0 -1349,159 -1799,635 -476,450 -715,1006 -715,1614 0,714 239,1270 715,1720 450,397 1085,635 1799,635zm-556 -1720c-158,-159 -238,-397 -238,-635 0,-212 80,-370 238,-529 318,-318 768,-318 1085,0 159,159 238,317 238,529 0,238 -79,476 -238,635 -317,318 -847,318 -1085,0l0 0z"/>
   <path id="_1" class="fil1" d="M-11159 12802c715,0 1350,-238 1800,-635 476,-450 714,-1006 714,-1720 0,-608 -238,-1164 -714,-1614 -450,-476 -1085,-635 -1800,-635 -767,0 -1322,159 -1852,635 -476,450 -714,1006 -714,1614 0,714 238,1270 714,1720 530,397 1085,635 1852,635zm-529 -1720c-158,-159 -238,-397 -238,-635 0,-212 80,-370 238,-529 238,-318 768,-318 1085,0 79,159 159,317 159,529 0,238 -80,476 -159,635 -317,318 -847,318 -1085,0l0 0zm5054 3360c926,0 1799,-317 2249,-952 238,-371 397,-767 397,-1244 0,-608 -238,-1164 -609,-1481 -476,-371 -1032,-530 -1720,-530l-158 0 0 -396 2090 0 0 -1562 -3413 0 -397 3572c476,-132 952,-211 1402,-211 635,0 953,211 953,608 0,397 -239,635 -874,635 -529,0 -1164,-159 -1640,-555l0 1719c476,239 1111,397 1720,397l0 0 0 0 0 0zm5450 -1640c715,0 1323,-238 1799,-635 450,-450 688,-1006 688,-1720 0,-608 -238,-1164 -688,-1614 -476,-476 -1084,-635 -1799,-635 -688,0 -1323,159 -1799,635 -450,450 -688,1006 -688,1614 0,714 238,1270 688,1720 476,397 1111,635 1799,635zm-555 -1720c-133,-159 -212,-397 -212,-635 0,-212 79,-370 212,-529 317,-318 793,-318 1111,0 159,159 212,317 212,529 0,238 -53,476 -212,635 -318,318 -873,318 -1111,0l0 0zm7487 3360c688,0 1323,-158 1800,-555 449,-397 767,-926 767,-1561 0,-847 -476,-1482 -1402,-1800l1084 -846 0 -1403 -4048 0 0 1562 1879 0 -1164 926 0 1084c291,-132 608,-211 1005,-211 476,0 767,291 767,608 0,397 -370,635 -926,635 -476,0 -1085,-238 -1720,-555l0 1640c556,318 1165,476 1958,476l0 0 0 0 0 0zm4895 0c715,0 1323,-158 1799,-555 529,-397 768,-926 768,-1561 0,-847 -450,-1482 -1323,-1800l1005 -846 0 -1403 -4022 0 0 1562 1932 0 -1164 926 0 1084c238,-132 555,-211 926,-211 555,0 793,291 793,608 0,397 -317,635 -873,635 -529,0 -1084,-238 -1693,-555l0 1640c529,318 1164,476 1852,476l0 0 0 0 0 0zm7567 -4762l0 -1402 -4524 0 0 1561 2487 0 -2249 4603 1931 0 2355 -4762 0 0zm5054 1640c-318,0 -635,-317 -635,-926 79,-238 397,-397 635,-397 370,0 688,318 688,609 0,397 -238,714 -688,714l0 0zm529 -2646c-450,0 -767,80 -1085,397 80,-635 635,-952 1244,-952 476,0 952,159 1243,397l0 -1561c-291,-239 -846,-397 -1402,-397 -1005,0 -1773,476 -2249,1111 -476,688 -635,1455 -635,2328 0,847 159,1561 635,2011 476,556 1085,794 1879,794 608,0 1164,-159 1613,-556 477,-450 635,-926 635,-1640 0,-609 -158,-1085 -476,-1482 -370,-291 -846,-450 -1402,-450l0 0 0 0zm4842 4128c767,0 1323,-238 1852,-635 476,-450 714,-1006 714,-1720 0,-608 -238,-1164 -714,-1614 -529,-476 -1085,-635 -1852,-635 -715,0 -1323,159 -1799,635 -477,450 -688,1006 -688,1614 0,714 211,1270 688,1720 476,397 1084,635 1799,635zm-556 -1720c-159,-159 -159,-397 -159,-635 0,-212 80,-370 159,-529 318,-318 847,-318 1085,0 159,159 238,317 238,529 0,238 -79,476 -238,635 -238,318 -767,318 -1085,0l0 0zm10054 -1402l0 -1402 -4445 0 0 1561 2408 0 -2170 4603 1853 0 2354 -4762zm2805 3122c688,0 1323,-238 1773,-635 476,-450 714,-1006 714,-1720 0,-608 -238,-1164 -714,-1614 -450,-476 -1085,-635 -1773,-635 -714,0 -1349,159 -1799,635 -476,450 -715,1006 -715,1614 0,714 239,1270 715,1720 450,397 1085,635 1799,635zm-556 -1720c-158,-159 -238,-397 -238,-635 0,-212 80,-370 238,-529 318,-318 768,-318 1085,0 159,159 238,317 238,529 0,238 -79,476 -238,635 -317,318 -847,318 -1085,0l0 0z"/>
  </g>
 </g>
</svg>
